<?xml version="1.0" encoding="ISO8859-1"?>
<svg xmlns="http://www.w3.org/2000/svg" xmlns:xlink="http://www.w3.org/1999/xlink" width="288px" height="252px" viewBox="0 0 288 252" version="1.1" id="Fig:dens">
  <metadata xmlns:gridsvg="http://www.stat.auckland.ac.nz/~paul/R/gridSVG/">
    <gridsvg:generator name="gridSVG" version="1.7-1" time="2020-04-27 18:58:22"/>
    <gridsvg:argument name="name" value="arrayQualityMetrics report for raw_data/dens.svg"/>
    <gridsvg:argument name="exportCoords" value="none"/>
    <gridsvg:argument name="exportMappings" value="none"/>
    <gridsvg:argument name="exportJS" value="none"/>
    <gridsvg:argument name="res" value="72"/>
    <gridsvg:argument name="prefix" value="Fig:dens"/>
    <gridsvg:argument name="addClasses" value="FALSE"/>
    <gridsvg:argument name="indent" value="TRUE"/>
    <gridsvg:argument name="htmlWrapper" value="FALSE"/>
    <gridsvg:argument name="usePaths" value="none"/>
    <gridsvg:argument name="uniqueNames" value="TRUE"/>
    <gridsvg:separator name="id.sep" value="."/>
    <gridsvg:separator name="gPath.sep" value="::"/>
    <gridsvg:separator name="vpPath.sep" value="::"/>
  </metadata>
  <g transform="translate(0, 252) scale(1, -1)">
    <g id="Fig:densgridSVG" fill="none" stroke="rgb(0,0,0)" stroke-dasharray="none" stroke-width="0.75" font-size="12" font-family="Helvetica, Arial, FreeSans, Liberation Sans, Nimbus Sans L, sans-serif" opacity="1" stroke-linecap="round" stroke-linejoin="round" stroke-miterlimit="10" stroke-opacity="1" fill-opacity="0" font-weight="normal" font-style="normal">
      <g id="Fig:densplot_01.background.1">
        <rect id="Fig:densplot_01.background.1.1" x="0" y="0" width="288" height="252" transform="" fill="none" stroke="none" stroke-opacity="0" fill-opacity="0"/>
      </g>
      <g id="Fig:densplot_01.toplevel.vp.1" font-size="12">
        <g id="Fig:densplot_01.ylab.vp.1">
          <g id="Fig:densplot_01.ylab.1">
            <g id="Fig:densplot_01.ylab.1.1" transform="translate(10.31, 138.09)" stroke-width="0.1">
              <g id="Fig:densplot_01.ylab.1.1.scale" transform="scale(1, -1)">
                <text x="0" y="0" id="Fig:densplot_01.ylab.1.1.text" transform="rotate(-90)" text-anchor="middle" opacity="1" stroke="rgb(0,0,0)" fill="rgb(0,0,0)" stroke-opacity="1" fill-opacity="1" font-size="12" font-weight="normal" font-style="normal">
                  <tspan id="Fig:densplot_01.ylab.1.1.tspan.1" dy="4.31" x="0">Density</tspan>
                </text>
              </g>
            </g>
          </g>
        </g>
        <g id="Fig:densplot_01.figure.vp.1"/>
        <defs>
          <clipPath id="Fig:densplot_01.panel.1.1.vp.1.clipPath">
            <rect x="44.8" y="42.19" width="231.2" height="191.81" fill="none" stroke="none"/>
          </clipPath>
        </defs>
        <g id="Fig:densplot_01.panel.1.1.vp.1" clip-path="url(#Fig:densplot_01.panel.1.1.vp.1.clipPath)"/>
        <g id="Fig:densplot_01.strip.1.1.off.vp.1"/>
        <g id="Fig:densplot_01.strip.left.1.1.off.vp.1">
          <g id="Fig:densplot_01.ticks.left.panel.1.1.1">
            <polyline id="Fig:densplot_01.ticks.left.panel.1.1.1.1" points="44.8,53.97 39.13,53.97" stroke="rgb(0,0,0)" opacity="1" stroke-dasharray="none" stroke-width="0.75" stroke-opacity="1" fill="none"/>
            <polyline id="Fig:densplot_01.ticks.left.panel.1.1.1.2" points="44.8,114.12 39.13,114.12" stroke="rgb(0,0,0)" opacity="1" stroke-dasharray="none" stroke-width="0.75" stroke-opacity="1" fill="none"/>
            <polyline id="Fig:densplot_01.ticks.left.panel.1.1.1.3" points="44.8,174.27 39.13,174.27" stroke="rgb(0,0,0)" opacity="1" stroke-dasharray="none" stroke-width="0.75" stroke-opacity="1" fill="none"/>
          </g>
          <g id="Fig:densplot_01.ticklabels.left.panel.1.1.1">
            <g id="Fig:densplot_01.ticklabels.left.panel.1.1.1.1" transform="translate(33.47, 53.97)" stroke-width="0.1">
              <g id="Fig:densplot_01.ticklabels.left.panel.1.1.1.1.scale" transform="scale(1, -1)">
                <text x="0" y="0" id="Fig:densplot_01.ticklabels.left.panel.1.1.1.1.text" transform="rotate(-90)" text-anchor="middle" stroke="rgb(0,0,0)" opacity="1" fill="rgb(0,0,0)" stroke-opacity="1" fill-opacity="1" font-size="9.6" font-weight="normal" font-style="normal">
                  <tspan id="Fig:densplot_01.ticklabels.left.panel.1.1.1.1.tspan.1" dy="0" x="0">0.000</tspan>
                </text>
              </g>
            </g>
            <g id="Fig:densplot_01.ticklabels.left.panel.1.1.1.2" transform="translate(33.47, 114.12)" stroke-width="0.1">
              <g id="Fig:densplot_01.ticklabels.left.panel.1.1.1.2.scale" transform="scale(1, -1)">
                <text x="0" y="0" id="Fig:densplot_01.ticklabels.left.panel.1.1.1.2.text" transform="rotate(-90)" text-anchor="middle" stroke="rgb(0,0,0)" opacity="1" fill="rgb(0,0,0)" stroke-opacity="1" fill-opacity="1" font-size="9.6" font-weight="normal" font-style="normal">
                  <tspan id="Fig:densplot_01.ticklabels.left.panel.1.1.1.2.tspan.1" dy="0" x="0">0.005</tspan>
                </text>
              </g>
            </g>
            <g id="Fig:densplot_01.ticklabels.left.panel.1.1.1.3" transform="translate(33.47, 174.27)" stroke-width="0.1">
              <g id="Fig:densplot_01.ticklabels.left.panel.1.1.1.3.scale" transform="scale(1, -1)">
                <text x="0" y="0" id="Fig:densplot_01.ticklabels.left.panel.1.1.1.3.text" transform="rotate(-90)" text-anchor="middle" stroke="rgb(0,0,0)" opacity="1" fill="rgb(0,0,0)" stroke-opacity="1" fill-opacity="1" font-size="9.6" font-weight="normal" font-style="normal">
                  <tspan id="Fig:densplot_01.ticklabels.left.panel.1.1.1.3.tspan.1" dy="0" x="0">0.010</tspan>
                </text>
              </g>
            </g>
          </g>
        </g>
        <g id="Fig:densplot_01.panel.1.1.off.vp.1">
          <g id="Fig:densplot_01.ticks.bottom.panel.1.1.1">
            <polyline id="Fig:densplot_01.ticks.bottom.panel.1.1.1.1" points="58.54,42.19 58.54,36.52" stroke="rgb(0,0,0)" opacity="1" stroke-dasharray="none" stroke-width="0.75" stroke-opacity="1" fill="none"/>
            <polyline id="Fig:densplot_01.ticks.bottom.panel.1.1.1.2" points="110.44,42.19 110.44,36.52" stroke="rgb(0,0,0)" opacity="1" stroke-dasharray="none" stroke-width="0.75" stroke-opacity="1" fill="none"/>
            <polyline id="Fig:densplot_01.ticks.bottom.panel.1.1.1.3" points="162.34,42.19 162.34,36.52" stroke="rgb(0,0,0)" opacity="1" stroke-dasharray="none" stroke-width="0.75" stroke-opacity="1" fill="none"/>
            <polyline id="Fig:densplot_01.ticks.bottom.panel.1.1.1.4" points="214.25,42.19 214.25,36.52" stroke="rgb(0,0,0)" opacity="1" stroke-dasharray="none" stroke-width="0.75" stroke-opacity="1" fill="none"/>
            <polyline id="Fig:densplot_01.ticks.bottom.panel.1.1.1.5" points="266.15,42.19 266.15,36.52" stroke="rgb(0,0,0)" opacity="1" stroke-dasharray="none" stroke-width="0.75" stroke-opacity="1" fill="none"/>
          </g>
          <g id="Fig:densplot_01.ticklabels.bottom.panel.1.1.1">
            <g id="Fig:densplot_01.ticklabels.bottom.panel.1.1.1.1" transform="translate(58.54, 30.85)" stroke-width="0.1">
              <g id="Fig:densplot_01.ticklabels.bottom.panel.1.1.1.1.scale" transform="scale(1, -1)">
                <text x="0" y="0" id="Fig:densplot_01.ticklabels.bottom.panel.1.1.1.1.text" text-anchor="middle" stroke="rgb(0,0,0)" opacity="1" fill="rgb(0,0,0)" stroke-opacity="1" fill-opacity="1" font-size="9.6" font-weight="normal" font-style="normal">
                  <tspan id="Fig:densplot_01.ticklabels.bottom.panel.1.1.1.1.tspan.1" dy="7.18" x="0">0</tspan>
                </text>
              </g>
            </g>
            <g id="Fig:densplot_01.ticklabels.bottom.panel.1.1.1.2" transform="translate(110.44, 30.85)" stroke-width="0.1">
              <g id="Fig:densplot_01.ticklabels.bottom.panel.1.1.1.2.scale" transform="scale(1, -1)">
                <text x="0" y="0" id="Fig:densplot_01.ticklabels.bottom.panel.1.1.1.2.text" text-anchor="middle" stroke="rgb(0,0,0)" opacity="1" fill="rgb(0,0,0)" stroke-opacity="1" fill-opacity="1" font-size="9.6" font-weight="normal" font-style="normal">
                  <tspan id="Fig:densplot_01.ticklabels.bottom.panel.1.1.1.2.tspan.1" dy="7.18" x="0">1000</tspan>
                </text>
              </g>
            </g>
            <g id="Fig:densplot_01.ticklabels.bottom.panel.1.1.1.3" transform="translate(162.34, 30.85)" stroke-width="0.1">
              <g id="Fig:densplot_01.ticklabels.bottom.panel.1.1.1.3.scale" transform="scale(1, -1)">
                <text x="0" y="0" id="Fig:densplot_01.ticklabels.bottom.panel.1.1.1.3.text" text-anchor="middle" stroke="rgb(0,0,0)" opacity="1" fill="rgb(0,0,0)" stroke-opacity="1" fill-opacity="1" font-size="9.6" font-weight="normal" font-style="normal">
                  <tspan id="Fig:densplot_01.ticklabels.bottom.panel.1.1.1.3.tspan.1" dy="7.18" x="0">2000</tspan>
                </text>
              </g>
            </g>
            <g id="Fig:densplot_01.ticklabels.bottom.panel.1.1.1.4" transform="translate(214.25, 30.85)" stroke-width="0.1">
              <g id="Fig:densplot_01.ticklabels.bottom.panel.1.1.1.4.scale" transform="scale(1, -1)">
                <text x="0" y="0" id="Fig:densplot_01.ticklabels.bottom.panel.1.1.1.4.text" text-anchor="middle" stroke="rgb(0,0,0)" opacity="1" fill="rgb(0,0,0)" stroke-opacity="1" fill-opacity="1" font-size="9.6" font-weight="normal" font-style="normal">
                  <tspan id="Fig:densplot_01.ticklabels.bottom.panel.1.1.1.4.tspan.1" dy="7.18" x="0">3000</tspan>
                </text>
              </g>
            </g>
            <g id="Fig:densplot_01.ticklabels.bottom.panel.1.1.1.5" transform="translate(266.15, 30.85)" stroke-width="0.1">
              <g id="Fig:densplot_01.ticklabels.bottom.panel.1.1.1.5.scale" transform="scale(1, -1)">
                <text x="0" y="0" id="Fig:densplot_01.ticklabels.bottom.panel.1.1.1.5.text" text-anchor="middle" stroke="rgb(0,0,0)" opacity="1" fill="rgb(0,0,0)" stroke-opacity="1" fill-opacity="1" font-size="9.6" font-weight="normal" font-style="normal">
                  <tspan id="Fig:densplot_01.ticklabels.bottom.panel.1.1.1.5.tspan.1" dy="7.18" x="0">4000</tspan>
                </text>
              </g>
            </g>
          </g>
        </g>
        <defs>
          <clipPath id="Fig:densplot_01.panel.1.1.vp.2.clipPath">
            <rect x="44.8" y="42.19" width="231.2" height="191.81" fill="none" stroke="none"/>
          </clipPath>
        </defs>
        <g id="Fig:densplot_01.panel.1.1.vp.2" clip-path="url(#Fig:densplot_01.panel.1.1.vp.2.clipPath)">
          <g id="Fig:densplot_01.xyplot.lines.group.1.panel.1.1.1">
            <polyline id="Fig:densplot_01.xyplot.lines.group.1.panel.1.1.1.1" points="59,53.98 59.4,54.3 59.79,58.12 60.19,78.6 60.59,128.48 60.98,182.65 61.38,197.63 61.78,176.16 62.17,148.26 62.57,127.98 62.97,114.48 63.36,104.97 63.76,97.98 64.16,92.74 64.55,88.63 64.95,85.13 65.35,82.11 65.75,79.62 66.14,77.57 66.54,75.81 66.94,74.21 67.33,72.79 67.73,71.56 68.13,70.45 68.52,69.45 68.92,68.58 69.32,67.8 69.71,67.03 70.11,66.3 70.51,65.69 70.9,65.15 71.3,64.56 71.7,63.96 72.09,63.43 72.49,62.97 72.89,62.58 73.28,62.26 73.68,61.92 74.08,61.53 74.47,61.13 74.87,60.78 75.27,60.5 75.66,60.27 76.06,60.07 76.46,59.85 76.85,59.62 77.25,59.43 77.65,59.29 78.04,59.13 78.44,58.92 78.84,58.73 79.23,58.6 79.63,58.51 80.03,58.38 80.43,58.2 80.82,58.03 81.22,57.89 81.62,57.78 82.01,57.7 82.41,57.61 82.81,57.51 83.2,57.42 83.6,57.32 84,57.19 84.39,57.07 84.79,57 85.19,56.92 85.58,56.82 85.98,56.74 86.38,56.69 86.77,56.65 87.17,56.59 87.57,56.51 87.96,56.43 88.36,56.38 88.76,56.34 89.15,56.31 89.55,56.27 89.95,56.2 90.34,56.14 90.74,56.1 91.14,56.07 91.53,56.01 91.93,55.93 92.33,55.84 92.72,55.78 93.12,55.74 93.52,55.71 93.92,55.69 94.31,55.67 94.71,55.67 95.11,55.66 95.5,55.65 95.9,55.62 96.3,55.58 96.69,55.54 97.09,55.5 97.49,55.47 97.88,55.43 98.28,55.39 98.68,55.37 99.07,55.36 99.47,55.35 99.87,55.32 100.26,55.27 100.66,55.23 101.06,55.19 101.45,55.18 101.85,55.16 102.25,55.15 102.64,55.11 103.04,55.08 103.44,55.06 103.83,55.05 104.23,55.05 104.63,55.05 105.02,55.03 105.42,55.01 105.82,54.97 106.21,54.94 106.61,54.94 107.01,54.96 107.4,54.94 107.8,54.9 108.2,54.87 108.6,54.87 108.99,54.87 109.39,54.86 109.79,54.85 110.18,54.85 110.58,54.84 110.98,54.82 111.37,54.81 111.77,54.79 112.17,54.77 112.56,54.75 112.96,54.73 113.36,54.72 113.75,54.73 114.15,54.74 114.55,54.74 114.94,54.72 115.34,54.69 115.74,54.66 116.13,54.65 116.53,54.63 116.93,54.62 117.32,54.6 117.72,54.6 118.12,54.61 118.51,54.61 118.91,54.6 119.31,54.58 119.7,54.56 120.1,54.56 120.5,54.56 120.89,54.55 121.29,54.53 121.69,54.53 122.09,54.52 122.48,54.51 122.88,54.51 123.28,54.52 123.67,54.51 124.07,54.5 124.47,54.5 124.86,54.51 125.26,54.49 125.66,54.46 126.05,54.46 126.45,54.46 126.85,54.46 127.24,54.44 127.64,54.43 128.04,54.43 128.43,54.44 128.83,54.45 129.23,54.45 129.62,54.45 130.02,54.44 130.42,54.42 130.81,54.4 131.21,54.4 131.61,54.41 132,54.42 132.4,54.42 132.8,54.4 133.19,54.37 133.59,54.37 133.99,54.37 134.38,54.38 134.78,54.37 135.18,54.36 135.57,54.35 135.97,54.34 136.37,54.33 136.77,54.33 137.16,54.33 137.56,54.34 137.96,54.34 138.35,54.34 138.75,54.33 139.15,54.32 139.54,54.31 139.94,54.31 140.34,54.31 140.73,54.3 141.13,54.29 141.53,54.29 141.92,54.29 142.32,54.29 142.72,54.28 143.11,54.28 143.51,54.27 143.91,54.27 144.3,54.27 144.7,54.26 145.1,54.25 145.49,54.25 145.89,54.25 146.29,54.26 146.68,54.26 147.08,54.25 147.48,54.24 147.87,54.24 148.27,54.24 148.67,54.24 149.06,54.25 149.46,54.25 149.86,54.24 150.26,54.24 150.65,54.23 151.05,54.23 151.45,54.23 151.84,54.23 152.24,54.23 152.64,54.22 153.03,54.22 153.43,54.23 153.83,54.23 154.22,54.22 154.62,54.22 155.02,54.21 155.41,54.21 155.81,54.2 156.21,54.19 156.6,54.19 157,54.2 157.4,54.21 157.79,54.2 158.19,54.18 158.59,54.17 158.98,54.17 159.38,54.17 159.78,54.17 160.17,54.17 160.57,54.18 160.97,54.18 161.36,54.18 161.76,54.18 162.16,54.18 162.55,54.17 162.95,54.17 163.35,54.18 163.74,54.17 164.14,54.16 164.54,54.15 164.94,54.16 165.33,54.17 165.73,54.17 166.13,54.17 166.52,54.16 166.92,54.16 167.32,54.16 167.71,54.16 168.11,54.16 168.51,54.15 168.9,54.15 169.3,54.15 169.7,54.16 170.09,54.15 170.49,54.15 170.89,54.15 171.28,54.15 171.68,54.14 172.08,54.14 172.47,54.13 172.87,54.14 173.27,54.14 173.66,54.14 174.06,54.14 174.46,54.13 174.85,54.12 175.25,54.12 175.65,54.12 176.04,54.13 176.44,54.13 176.84,54.12 177.23,54.12 177.63,54.11 178.03,54.12 178.43,54.12 178.82,54.12 179.22,54.12 179.62,54.12 180.01,54.12 180.41,54.12 180.81,54.12 181.2,54.12 181.6,54.12 182,54.12 182.39,54.12 182.79,54.12 183.19,54.12 183.58,54.11 183.98,54.1 184.38,54.1 184.77,54.1 185.17,54.11 185.57,54.1 185.96,54.1 186.36,54.1 186.76,54.1 187.15,54.1 187.55,54.1 187.95,54.11 188.34,54.1 188.74,54.1 189.14,54.1 189.53,54.11 189.93,54.11 190.33,54.1 190.72,54.09 191.12,54.09 191.52,54.09 191.91,54.08 192.31,54.08 192.71,54.08 193.11,54.09 193.5,54.1 193.9,54.09 194.3,54.09 194.69,54.09 195.09,54.09 195.49,54.08 195.88,54.08 196.28,54.08 196.68,54.08 197.07,54.08 197.47,54.08 197.87,54.08 198.26,54.09 198.66,54.09 199.06,54.09 199.45,54.09 199.85,54.09 200.25,54.08 200.64,54.07 201.04,54.07 201.44,54.07 201.83,54.07 202.23,54.07 202.63,54.07 203.02,54.07 203.42,54.07 203.82,54.07 204.21,54.07 204.61,54.08 205.01,54.08 205.4,54.08 205.8,54.08 206.2,54.08 206.6,54.06 206.99,54.06 207.39,54.07 207.79,54.07 208.18,54.07 208.58,54.07 208.98,54.08 209.37,54.08 209.77,54.07 210.17,54.07 210.56,54.06 210.96,54.06 211.36,54.06 211.75,54.06 212.15,54.06 212.55,54.06 212.94,54.06 213.34,54.06 213.74,54.06 214.13,54.05 214.53,54.06 214.93,54.06 215.32,54.07 215.72,54.07 216.12,54.06 216.51,54.06 216.91,54.05 217.31,54.05 217.7,54.06 218.1,54.06 218.5,54.05 218.89,54.05 219.29,54.05 219.69,54.06 220.08,54.06 220.48,54.06 220.88,54.05 221.28,54.05 221.67,54.05 222.07,54.05 222.47,54.05 222.86,54.05 223.26,54.05 223.66,54.05 224.05,54.04 224.45,54.04 224.85,54.03 225.24,54.03 225.64,54.04 226.04,54.05 226.43,54.05 226.83,54.04 227.23,54.04 227.62,54.04 228.02,54.04 228.42,54.03 228.81,54.04 229.21,54.04 229.61,54.05 230,54.04 230.4,54.04 230.8,54.05 231.19,54.04 231.59,54.04 231.99,54.03 232.38,54.03 232.78,54.03 233.18,54.04 233.57,54.03 233.97,54.04 234.37,54.04 234.77,54.04 235.16,54.04 235.56,54.03 235.96,54.03 236.35,54.03 236.75,54.03 237.15,54.03 237.54,54.04 237.94,54.04 238.34,54.04 238.73,54.04 239.13,54.04 239.53,54.04 239.92,54.04 240.32,54.03 240.72,54.03 241.11,54.03 241.51,54.03 241.91,54.03 242.3,54.03 242.7,54.03 243.1,54.03 243.49,54.03 243.89,54.03 244.29,54.03 244.68,54.03 245.08,54.04 245.48,54.04 245.87,54.04 246.27,54.04 246.67,54.03 247.06,54.03 247.46,54.03 247.86,54.02 248.25,54.03 248.65,54.03 249.05,54.03 249.45,54.03 249.84,54.03 250.24,54.03 250.64,54.03 251.03,54.03 251.43,54.03 251.83,54.03 252.22,54.03 252.62,54.03 253.02,54.03 253.41,54.03 253.81,54.03 254.21,54.03 254.6,54.03 255,54.02 255.4,54.02 255.79,54.02 256.19,54.03 256.59,54.03 256.98,54.03 257.38,54.03 257.78,54.03 258.17,54.02 258.57,54.02 258.97,54.02 259.36,54.03 259.76,54.03 260.16,54.02 260.55,54 260.95,53.98 261.35,53.97 261.74,53.97" stroke-dasharray="none" stroke="rgb(31,120,180)" stroke-width="0.75" opacity="1" stroke-opacity="1" fill="none"/>
          </g>
          <g id="Fig:densplot_01.xyplot.lines.group.2.panel.1.1.1">
            <polyline id="Fig:densplot_01.xyplot.lines.group.2.panel.1.1.1.1" points="59.3,54.04 59.69,55.31 60.09,65.9 60.49,108.4 60.88,183.19 61.28,222.22 61.67,198.3 62.07,161.25 62.47,136.27 62.86,119.97 63.26,108.83 63.65,100.99 64.05,95.08 64.44,90.35 64.84,86.5 65.24,83.21 65.63,80.36 66.03,77.89 66.42,75.83 66.82,74.12 67.22,72.56 67.61,71.16 68.01,69.97 68.4,68.86 68.8,67.85 69.19,66.99 69.59,66.26 69.99,65.58 70.38,64.91 70.78,64.33 71.17,63.85 71.57,63.4 71.96,62.93 72.36,62.45 72.76,61.97 73.15,61.53 73.55,61.2 73.94,60.85 74.34,60.52 74.74,60.27 75.13,60.07 75.53,59.85 75.92,59.6 76.32,59.35 76.71,59.13 77.11,58.95 77.51,58.78 77.9,58.61 78.3,58.42 78.69,58.26 79.09,58.15 79.48,58.05 79.88,57.92 80.28,57.78 80.67,57.67 81.07,57.55 81.46,57.42 81.86,57.28 82.26,57.16 82.65,57.09 83.05,57.04 83.44,56.97 83.84,56.91 84.23,56.83 84.63,56.73 85.03,56.64 85.42,56.56 85.82,56.48 86.21,56.42 86.61,56.33 87,56.24 87.4,56.18 87.8,56.14 88.19,56.1 88.59,56.06 88.98,56.03 89.38,55.98 89.78,55.89 90.17,55.82 90.57,55.82 90.96,55.8 91.36,55.75 91.75,55.7 92.15,55.66 92.55,55.62 92.94,55.59 93.34,55.57 93.73,55.55 94.13,55.5 94.52,55.45 94.92,55.42 95.32,55.43 95.71,55.43 96.11,55.37 96.5,55.31 96.9,55.28 97.3,55.25 97.69,55.23 98.09,55.21 98.48,55.2 98.88,55.16 99.27,55.13 99.67,55.12 100.07,55.11 100.46,55.06 100.86,55.03 101.25,55.01 101.65,55.02 102.04,55.03 102.44,55.02 102.84,55 103.23,54.98 103.63,54.95 104.02,54.92 104.42,54.91 104.82,54.91 105.21,54.86 105.61,54.8 106,54.79 106.4,54.79 106.79,54.8 107.19,54.78 107.59,54.76 107.98,54.75 108.38,54.74 108.77,54.73 109.17,54.71 109.56,54.7 109.96,54.7 110.36,54.69 110.75,54.68 111.15,54.66 111.54,54.65 111.94,54.65 112.34,54.65 112.73,54.64 113.13,54.62 113.52,54.6 113.92,54.6 114.31,54.58 114.71,54.57 115.11,54.56 115.5,54.56 115.9,54.55 116.29,54.55 116.69,54.53 117.09,54.51 117.48,54.51 117.88,54.51 118.27,54.51 118.67,54.5 119.06,54.48 119.46,54.47 119.86,54.49 120.25,54.5 120.65,54.5 121.04,54.48 121.44,54.46 121.83,54.44 122.23,54.44 122.63,54.45 123.02,54.45 123.42,54.44 123.81,54.44 124.21,54.44 124.61,54.41 125,54.39 125.4,54.37 125.79,54.38 126.19,54.38 126.58,54.38 126.98,54.37 127.38,54.37 127.77,54.37 128.17,54.36 128.56,54.35 128.96,54.35 129.35,54.35 129.75,54.35 130.15,54.36 130.54,54.35 130.94,54.35 131.33,54.34 131.73,54.33 132.13,54.32 132.52,54.32 132.92,54.33 133.31,54.32 133.71,54.31 134.1,54.3 134.5,54.29 134.9,54.3 135.29,54.29 135.69,54.29 136.08,54.29 136.48,54.29 136.87,54.28 137.27,54.27 137.67,54.28 138.06,54.28 138.46,54.27 138.85,54.26 139.25,54.26 139.65,54.25 140.04,54.25 140.44,54.24 140.83,54.23 141.23,54.23 141.62,54.24 142.02,54.24 142.42,54.25 142.81,54.25 143.21,54.24 143.6,54.23 144,54.22 144.39,54.22 144.79,54.22 145.19,54.2 145.58,54.2 145.98,54.2 146.37,54.21 146.77,54.22 147.17,54.22 147.56,54.22 147.96,54.2 148.35,54.19 148.75,54.19 149.14,54.19 149.54,54.2 149.94,54.19 150.33,54.19 150.73,54.19 151.12,54.19 151.52,54.19 151.91,54.19 152.31,54.19 152.71,54.19 153.1,54.19 153.5,54.18 153.89,54.17 154.29,54.17 154.69,54.17 155.08,54.17 155.48,54.16 155.87,54.16 156.27,54.16 156.66,54.17 157.06,54.16 157.46,54.16 157.85,54.16 158.25,54.16 158.64,54.15 159.04,54.15 159.43,54.16 159.83,54.15 160.23,54.14 160.62,54.14 161.02,54.14 161.41,54.14 161.81,54.14 162.21,54.14 162.6,54.14 163,54.14 163.39,54.13 163.79,54.13 164.18,54.14 164.58,54.14 164.98,54.14 165.37,54.15 165.77,54.14 166.16,54.13 166.56,54.12 166.95,54.13 167.35,54.13 167.75,54.14 168.14,54.14 168.54,54.13 168.93,54.13 169.33,54.13 169.73,54.14 170.12,54.13 170.52,54.13 170.91,54.12 171.31,54.12 171.7,54.12 172.1,54.11 172.5,54.11 172.89,54.11 173.29,54.11 173.68,54.11 174.08,54.1 174.48,54.09 174.87,54.1 175.27,54.1 175.66,54.11 176.06,54.1 176.45,54.1 176.85,54.1 177.25,54.09 177.64,54.09 178.04,54.09 178.43,54.1 178.83,54.1 179.22,54.09 179.62,54.08 180.02,54.08 180.41,54.08 180.81,54.08 181.2,54.08 181.6,54.08 182,54.08 182.39,54.09 182.79,54.08 183.18,54.08 183.58,54.09 183.97,54.09 184.37,54.09 184.77,54.08 185.16,54.09 185.56,54.09 185.95,54.09 186.35,54.09 186.74,54.09 187.14,54.09 187.54,54.08 187.93,54.07 188.33,54.07 188.72,54.07 189.12,54.07 189.52,54.07 189.91,54.07 190.31,54.08 190.7,54.08 191.1,54.08 191.49,54.08 191.89,54.07 192.29,54.07 192.68,54.08 193.08,54.08 193.47,54.07 193.87,54.06 194.26,54.06 194.66,54.05 195.06,54.05 195.45,54.05 195.85,54.06 196.24,54.06 196.64,54.06 197.04,54.06 197.43,54.05 197.83,54.05 198.22,54.05 198.62,54.06 199.01,54.07 199.41,54.07 199.81,54.07 200.2,54.06 200.6,54.05 200.99,54.05 201.39,54.06 201.78,54.06 202.18,54.06 202.58,54.05 202.97,54.05 203.37,54.06 203.76,54.06 204.16,54.06 204.56,54.05 204.95,54.05 205.35,54.05 205.74,54.05 206.14,54.05 206.53,54.05 206.93,54.05 207.33,54.05 207.72,54.05 208.12,54.05 208.51,54.05 208.91,54.05 209.3,54.05 209.7,54.05 210.1,54.05 210.49,54.05 210.89,54.04 211.28,54.05 211.68,54.05 212.08,54.05 212.47,54.05 212.87,54.05 213.26,54.05 213.66,54.04 214.05,54.04 214.45,54.04 214.85,54.04 215.24,54.04 215.64,54.05 216.03,54.04 216.43,54.04 216.82,54.03 217.22,54.03 217.62,54.03 218.01,54.03 218.41,54.02 218.8,54.03 219.2,54.03 219.6,54.03 219.99,54.03 220.39,54.04 220.78,54.04 221.18,54.04 221.57,54.04 221.97,54.04 222.37,54.04 222.76,54.04 223.16,54.04 223.55,54.04 223.95,54.04 224.34,54.04 224.74,54.04 225.14,54.04 225.53,54.04 225.93,54.04 226.32,54.04 226.72,54.03 227.12,54.03 227.51,54.03 227.91,54.04 228.3,54.03 228.7,54.03 229.09,54.03 229.49,54.03 229.89,54.03 230.28,54.03 230.68,54.03 231.07,54.03 231.47,54.03 231.87,54.03 232.26,54.04 232.66,54.05 233.05,54.04 233.45,54.03 233.84,54.03 234.24,54.03 234.64,54.03 235.03,54.02 235.43,54.02 235.82,54.03 236.22,54.02 236.61,54.02 237.01,54.02 237.41,54.02 237.8,54.02 238.2,54.03 238.59,54.02 238.99,54.02 239.39,54.02 239.78,54.03 240.18,54.03 240.57,54.03 240.97,54.03 241.36,54.03 241.76,54.03 242.16,54.02 242.55,54.02 242.95,54.02 243.34,54.02 243.74,54.02 244.13,54.02 244.53,54.02 244.93,54.02 245.32,54.02 245.72,54.02 246.11,54.02 246.51,54.02 246.91,54.02 247.3,54.02 247.7,54.02 248.09,54.02 248.49,54.02 248.88,54.01 249.28,54.01 249.68,54.01 250.07,54.01 250.47,54.01 250.86,54.01 251.26,54.01 251.65,54.01 252.05,54.01 252.45,54.01 252.84,54.02 253.24,54.02 253.63,54.02 254.03,54.02 254.43,54.03 254.82,54.02 255.22,54.01 255.61,54.01 256.01,54.01 256.4,54.01 256.8,54.01 257.2,54.01 257.59,54.02 257.99,54.01 258.38,54.01 258.78,54.01 259.17,54.01 259.57,54.01 259.97,54.02 260.36,54.01 260.76,53.98 261.15,53.97 261.55,53.97" stroke-dasharray="none" stroke="rgb(31,120,180)" stroke-width="0.75" opacity="1" stroke-opacity="1" fill="none"/>
          </g>
          <g id="Fig:densplot_01.xyplot.lines.group.3.panel.1.1.1">
            <polyline id="Fig:densplot_01.xyplot.lines.group.3.panel.1.1.1.1" points="59.14,53.99 59.53,54.52 59.93,59.87 60.33,84.61 60.72,138.6 61.12,192.11 61.51,203.24 61.91,177.78 62.31,148.14 62.7,127.56 63.1,114.01 63.5,104.55 63.89,97.75 64.29,92.5 64.69,88.12 65.08,84.48 65.48,81.46 65.87,78.98 66.27,76.94 66.67,75.19 67.06,73.56 67.46,72.02 67.86,70.68 68.25,69.6 68.65,68.68 69.04,67.87 69.44,67.1 69.84,66.34 70.23,65.66 70.63,65.14 71.03,64.58 71.42,63.98 71.82,63.47 72.22,63 72.61,62.52 73.01,62.08 73.4,61.73 73.8,61.4 74.2,61.1 74.59,60.83 74.99,60.57 75.39,60.29 75.78,60.01 76.18,59.78 76.58,59.53 76.97,59.31 77.37,59.13 77.76,58.99 78.16,58.85 78.56,58.71 78.95,58.53 79.35,58.33 79.75,58.17 80.14,58.05 80.54,57.93 80.93,57.81 81.33,57.69 81.73,57.6 82.12,57.52 82.52,57.47 82.92,57.38 83.31,57.24 83.71,57.09 84.11,56.99 84.5,56.93 84.9,56.87 85.29,56.81 85.69,56.74 86.09,56.67 86.48,56.58 86.88,56.48 87.28,56.41 87.67,56.34 88.07,56.26 88.46,56.21 88.86,56.19 89.26,56.18 89.65,56.14 90.05,56.09 90.45,56.03 90.84,55.98 91.24,55.94 91.64,55.9 92.03,55.87 92.43,55.85 92.82,55.81 93.22,55.74 93.62,55.69 94.01,55.65 94.41,55.61 94.81,55.57 95.2,55.53 95.6,55.5 96,55.47 96.39,55.45 96.79,55.43 97.18,55.39 97.58,55.34 97.98,55.31 98.37,55.31 98.77,55.29 99.17,55.25 99.56,55.23 99.96,55.21 100.35,55.21 100.75,55.19 101.15,55.17 101.54,55.15 101.94,55.11 102.34,55.08 102.73,55.06 103.13,55.07 103.53,55.07 103.92,55.04 104.32,54.99 104.71,54.94 105.11,54.92 105.51,54.9 105.9,54.89 106.3,54.88 106.7,54.87 107.09,54.87 107.49,54.87 107.88,54.88 108.28,54.89 108.68,54.88 109.07,54.84 109.47,54.81 109.87,54.79 110.26,54.78 110.66,54.76 111.06,54.74 111.45,54.73 111.85,54.73 112.24,54.73 112.64,54.73 113.04,54.72 113.43,54.7 113.83,54.68 114.23,54.67 114.62,54.66 115.02,54.65 115.42,54.63 115.81,54.62 116.21,54.61 116.6,54.59 117,54.58 117.4,54.58 117.79,54.57 118.19,54.58 118.59,54.59 118.98,54.59 119.38,54.58 119.77,54.57 120.17,54.56 120.57,54.55 120.96,54.54 121.36,54.54 121.76,54.53 122.15,54.51 122.55,54.49 122.95,54.47 123.34,54.46 123.74,54.46 124.13,54.46 124.53,54.46 124.93,54.46 125.32,54.46 125.72,54.46 126.12,54.45 126.51,54.43 126.91,54.43 127.31,54.42 127.7,54.43 128.1,54.44 128.49,54.44 128.89,54.43 129.29,54.4 129.68,54.39 130.08,54.38 130.48,54.38 130.87,54.37 131.27,54.36 131.66,54.37 132.06,54.38 132.46,54.38 132.85,54.36 133.25,54.36 133.65,54.36 134.04,54.36 134.44,54.34 134.84,54.32 135.23,54.32 135.63,54.31 136.02,54.3 136.42,54.3 136.82,54.31 137.21,54.32 137.61,54.32 138.01,54.32 138.4,54.31 138.8,54.3 139.19,54.31 139.59,54.31 139.99,54.31 140.38,54.3 140.78,54.3 141.18,54.29 141.57,54.27 141.97,54.27 142.37,54.27 142.76,54.28 143.16,54.28 143.55,54.27 143.95,54.26 144.35,54.26 144.74,54.25 145.14,54.25 145.54,54.25 145.93,54.26 146.33,54.26 146.73,54.25 147.12,54.24 147.52,54.22 147.91,54.22 148.31,54.23 148.71,54.25 149.1,54.25 149.5,54.24 149.9,54.22 150.29,54.21 150.69,54.2 151.08,54.19 151.48,54.19 151.88,54.2 152.27,54.21 152.67,54.21 153.07,54.21 153.46,54.22 153.86,54.22 154.26,54.22 154.65,54.21 155.05,54.2 155.44,54.19 155.84,54.18 156.24,54.18 156.63,54.18 157.03,54.18 157.43,54.17 157.82,54.17 158.22,54.17 158.61,54.17 159.01,54.16 159.41,54.17 159.8,54.18 160.2,54.17 160.6,54.17 160.99,54.17 161.39,54.18 161.79,54.18 162.18,54.17 162.58,54.16 162.97,54.16 163.37,54.16 163.77,54.16 164.16,54.16 164.56,54.16 164.96,54.15 165.35,54.15 165.75,54.16 166.15,54.16 166.54,54.16 166.94,54.15 167.33,54.15 167.73,54.15 168.13,54.15 168.52,54.16 168.92,54.17 169.32,54.17 169.71,54.15 170.11,54.14 170.5,54.13 170.9,54.13 171.3,54.13 171.69,54.12 172.09,54.13 172.49,54.13 172.88,54.13 173.28,54.13 173.68,54.13 174.07,54.13 174.47,54.13 174.86,54.13 175.26,54.13 175.66,54.13 176.05,54.12 176.45,54.12 176.85,54.11 177.24,54.11 177.64,54.11 178.03,54.11 178.43,54.11 178.83,54.1 179.22,54.1 179.62,54.1 180.02,54.1 180.41,54.1 180.81,54.1 181.21,54.11 181.6,54.11 182,54.11 182.39,54.11 182.79,54.11 183.19,54.11 183.58,54.11 183.98,54.11 184.38,54.11 184.77,54.11 185.17,54.11 185.57,54.1 185.96,54.1 186.36,54.09 186.75,54.09 187.15,54.1 187.55,54.1 187.94,54.1 188.34,54.09 188.74,54.1 189.13,54.09 189.53,54.09 189.92,54.09 190.32,54.09 190.72,54.09 191.11,54.08 191.51,54.08 191.91,54.08 192.3,54.09 192.7,54.08 193.1,54.08 193.49,54.07 193.89,54.07 194.28,54.08 194.68,54.08 195.08,54.08 195.47,54.09 195.87,54.08 196.27,54.07 196.66,54.08 197.06,54.08 197.46,54.07 197.85,54.07 198.25,54.08 198.64,54.08 199.04,54.08 199.44,54.08 199.83,54.08 200.23,54.07 200.63,54.07 201.02,54.07 201.42,54.07 201.81,54.07 202.21,54.07 202.61,54.07 203,54.07 203.4,54.06 203.8,54.06 204.19,54.06 204.59,54.06 204.99,54.06 205.38,54.07 205.78,54.07 206.17,54.07 206.57,54.07 206.97,54.07 207.36,54.07 207.76,54.07 208.16,54.06 208.55,54.06 208.95,54.06 209.34,54.06 209.74,54.06 210.14,54.05 210.53,54.06 210.93,54.06 211.33,54.06 211.72,54.06 212.12,54.05 212.52,54.05 212.91,54.05 213.31,54.06 213.7,54.06 214.1,54.06 214.5,54.05 214.89,54.05 215.29,54.06 215.69,54.06 216.08,54.05 216.48,54.05 216.88,54.05 217.27,54.06 217.67,54.06 218.06,54.05 218.46,54.05 218.86,54.04 219.25,54.04 219.65,54.05 220.05,54.05 220.44,54.05 220.84,54.05 221.23,54.05 221.63,54.05 222.03,54.04 222.42,54.04 222.82,54.04 223.22,54.04 223.61,54.04 224.01,54.04 224.41,54.04 224.8,54.04 225.2,54.05 225.59,54.05 225.99,54.05 226.39,54.04 226.78,54.04 227.18,54.05 227.58,54.05 227.97,54.05 228.37,54.05 228.76,54.04 229.16,54.04 229.56,54.04 229.95,54.04 230.35,54.04 230.75,54.04 231.14,54.03 231.54,54.03 231.94,54.03 232.33,54.03 232.73,54.03 233.12,54.03 233.52,54.03 233.92,54.04 234.31,54.03 234.71,54.03 235.11,54.03 235.5,54.03 235.9,54.03 236.3,54.03 236.69,54.03 237.09,54.03 237.48,54.03 237.88,54.03 238.28,54.04 238.67,54.04 239.07,54.04 239.47,54.04 239.86,54.04 240.26,54.04 240.65,54.04 241.05,54.03 241.45,54.02 241.84,54.03 242.24,54.03 242.64,54.04 243.03,54.04 243.43,54.04 243.83,54.04 244.22,54.04 244.62,54.03 245.01,54.03 245.41,54.03 245.81,54.02 246.2,54.02 246.6,54.02 247,54.03 247.39,54.03 247.79,54.03 248.18,54.03 248.58,54.02 248.98,54.03 249.37,54.03 249.77,54.03 250.17,54.03 250.56,54.03 250.96,54.03 251.36,54.03 251.75,54.03 252.15,54.03 252.54,54.02 252.94,54.02 253.34,54.02 253.73,54.02 254.13,54.02 254.53,54.02 254.92,54.01 255.32,54.01 255.72,54.01 256.11,54.01 256.51,54.01 256.9,54.02 257.3,54.02 257.7,54.02 258.09,54.02 258.49,54.03 258.89,54.02 259.28,54.02 259.68,54.02 260.07,54.01 260.47,54 260.87,53.98 261.26,53.97 261.66,53.97" stroke-dasharray="none" stroke="rgb(31,120,180)" stroke-width="0.75" opacity="1" stroke-opacity="1" fill="none"/>
          </g>
          <g id="Fig:densplot_01.xyplot.lines.group.4.panel.1.1.1">
            <polyline id="Fig:densplot_01.xyplot.lines.group.4.panel.1.1.1.1" points="59.26,53.99 59.66,54.57 60.05,60.72 60.45,92.6 60.84,164.28 61.24,219.76 61.64,206.54 62.03,168.68 62.43,141.05 62.82,123.65 63.22,111.88 63.61,103.33 64.01,96.86 64.41,91.89 64.8,87.82 65.2,84.28 65.59,81.41 65.99,78.96 66.39,76.81 66.78,74.95 67.18,73.31 67.57,71.89 67.97,70.75 68.36,69.72 68.76,68.67 69.16,67.71 69.55,66.82 69.95,66.01 70.34,65.31 70.74,64.7 71.14,64.18 71.53,63.7 71.93,63.23 72.32,62.76 72.72,62.3 73.12,61.86 73.51,61.46 73.91,61.13 74.3,60.87 74.7,60.59 75.09,60.33 75.49,60.09 75.89,59.82 76.28,59.52 76.68,59.25 77.07,59.06 77.47,58.91 77.87,58.76 78.26,58.59 78.66,58.39 79.05,58.19 79.45,58.05 79.84,57.94 80.24,57.8 80.64,57.66 81.03,57.54 81.43,57.44 81.82,57.34 82.22,57.22 82.62,57.08 83.01,56.98 83.41,56.93 83.8,56.88 84.2,56.79 84.59,56.71 84.99,56.62 85.39,56.53 85.78,56.47 86.18,56.42 86.57,56.31 86.97,56.21 87.37,56.14 87.76,56.09 88.16,56.07 88.55,56.03 88.95,55.98 89.34,55.94 89.74,55.89 90.14,55.83 90.53,55.77 90.93,55.73 91.32,55.7 91.72,55.67 92.12,55.64 92.51,55.58 92.91,55.56 93.3,55.51 93.7,55.46 94.09,55.43 94.49,55.4 94.89,55.39 95.28,55.39 95.68,55.33 96.07,55.26 96.47,55.21 96.87,55.2 97.26,55.19 97.66,55.16 98.05,55.15 98.45,55.14 98.84,55.14 99.24,55.11 99.64,55.08 100.03,55.06 100.43,55.02 100.82,54.98 101.22,54.97 101.62,54.95 102.01,54.95 102.41,54.94 102.8,54.91 103.2,54.88 103.59,54.86 103.99,54.85 104.39,54.83 104.78,54.82 105.18,54.81 105.57,54.8 105.97,54.79 106.37,54.78 106.76,54.77 107.16,54.75 107.55,54.74 107.95,54.72 108.35,54.71 108.74,54.7 109.14,54.69 109.53,54.68 109.93,54.67 110.32,54.66 110.72,54.65 111.12,54.65 111.51,54.64 111.91,54.63 112.3,54.62 112.7,54.62 113.1,54.61 113.49,54.59 113.89,54.56 114.28,54.55 114.68,54.55 115.07,54.55 115.47,54.53 115.87,54.52 116.26,54.5 116.66,54.49 117.05,54.5 117.45,54.51 117.85,54.5 118.24,54.48 118.64,54.47 119.03,54.46 119.43,54.45 119.82,54.45 120.22,54.45 120.62,54.45 121.01,54.44 121.41,54.42 121.8,54.4 122.2,54.4 122.6,54.4 122.99,54.4 123.39,54.4 123.78,54.4 124.18,54.39 124.57,54.39 124.97,54.39 125.37,54.39 125.76,54.38 126.16,54.38 126.55,54.37 126.95,54.34 127.35,54.32 127.74,54.33 128.14,54.34 128.53,54.35 128.93,54.35 129.32,54.33 129.72,54.32 130.12,54.32 130.51,54.33 130.91,54.31 131.3,54.3 131.7,54.31 132.1,54.32 132.49,54.33 132.89,54.32 133.28,54.3 133.68,54.29 134.07,54.28 134.47,54.27 134.87,54.27 135.26,54.27 135.66,54.28 136.05,54.28 136.45,54.25 136.85,54.24 137.24,54.26 137.64,54.26 138.03,54.25 138.43,54.24 138.82,54.25 139.22,54.25 139.62,54.23 140.01,54.21 140.41,54.22 140.8,54.23 141.2,54.22 141.6,54.21 141.99,54.21 142.39,54.21 142.78,54.2 143.18,54.2 143.58,54.2 143.97,54.21 144.37,54.2 144.76,54.2 145.16,54.2 145.55,54.21 145.95,54.21 146.35,54.19 146.74,54.19 147.14,54.19 147.53,54.19 147.93,54.18 148.33,54.18 148.72,54.18 149.12,54.18 149.51,54.18 149.91,54.17 150.3,54.16 150.7,54.15 151.1,54.16 151.49,54.18 151.89,54.18 152.28,54.18 152.68,54.17 153.08,54.16 153.47,54.15 153.87,54.15 154.26,54.15 154.66,54.15 155.05,54.15 155.45,54.15 155.85,54.15 156.24,54.15 156.64,54.15 157.03,54.14 157.43,54.14 157.83,54.14 158.22,54.14 158.62,54.13 159.01,54.12 159.41,54.13 159.8,54.14 160.2,54.14 160.6,54.13 160.99,54.13 161.39,54.13 161.78,54.13 162.18,54.13 162.58,54.14 162.97,54.14 163.37,54.13 163.76,54.13 164.16,54.12 164.55,54.12 164.95,54.12 165.35,54.12 165.74,54.12 166.14,54.12 166.53,54.12 166.93,54.11 167.33,54.11 167.72,54.11 168.12,54.11 168.51,54.12 168.91,54.13 169.3,54.12 169.7,54.11 170.1,54.11 170.49,54.1 170.89,54.11 171.28,54.11 171.68,54.12 172.08,54.12 172.47,54.11 172.87,54.1 173.26,54.09 173.66,54.09 174.05,54.09 174.45,54.09 174.85,54.09 175.24,54.1 175.64,54.1 176.03,54.09 176.43,54.09 176.83,54.09 177.22,54.1 177.62,54.1 178.01,54.09 178.41,54.09 178.81,54.09 179.2,54.09 179.6,54.09 179.99,54.09 180.39,54.08 180.78,54.08 181.18,54.08 181.58,54.08 181.97,54.08 182.37,54.08 182.76,54.07 183.16,54.07 183.56,54.07 183.95,54.08 184.35,54.08 184.74,54.07 185.14,54.07 185.53,54.06 185.93,54.07 186.33,54.07 186.72,54.07 187.12,54.07 187.51,54.07 187.91,54.07 188.31,54.08 188.7,54.08 189.1,54.07 189.49,54.07 189.89,54.06 190.28,54.06 190.68,54.06 191.08,54.06 191.47,54.06 191.87,54.07 192.26,54.08 192.66,54.08 193.06,54.07 193.45,54.07 193.85,54.06 194.24,54.06 194.64,54.06 195.03,54.06 195.43,54.06 195.83,54.06 196.22,54.05 196.62,54.05 197.01,54.05 197.41,54.05 197.81,54.05 198.2,54.06 198.6,54.06 198.99,54.06 199.39,54.06 199.78,54.06 200.18,54.05 200.58,54.06 200.97,54.06 201.37,54.05 201.76,54.04 202.16,54.04 202.56,54.05 202.95,54.05 203.35,54.05 203.74,54.05 204.14,54.05 204.53,54.05 204.93,54.04 205.33,54.05 205.72,54.05 206.12,54.05 206.51,54.05 206.91,54.04 207.31,54.05 207.7,54.06 208.1,54.06 208.49,54.05 208.89,54.04 209.29,54.03 209.68,54.03 210.08,54.04 210.47,54.04 210.87,54.04 211.26,54.04 211.66,54.04 212.06,54.04 212.45,54.04 212.85,54.04 213.24,54.04 213.64,54.03 214.04,54.03 214.43,54.03 214.83,54.03 215.22,54.03 215.62,54.03 216.01,54.04 216.41,54.04 216.81,54.04 217.2,54.03 217.6,54.03 217.99,54.03 218.39,54.03 218.79,54.03 219.18,54.04 219.58,54.04 219.97,54.04 220.37,54.03 220.76,54.03 221.16,54.03 221.56,54.03 221.95,54.03 222.35,54.03 222.74,54.03 223.14,54.03 223.54,54.03 223.93,54.03 224.33,54.03 224.72,54.03 225.12,54.04 225.51,54.04 225.91,54.04 226.31,54.03 226.7,54.03 227.1,54.02 227.49,54.02 227.89,54.03 228.29,54.03 228.68,54.03 229.08,54.02 229.47,54.02 229.87,54.03 230.26,54.03 230.66,54.03 231.06,54.02 231.45,54.02 231.85,54.02 232.24,54.02 232.64,54.03 233.04,54.03 233.43,54.03 233.83,54.02 234.22,54.02 234.62,54.02 235.01,54.02 235.41,54.02 235.81,54.02 236.2,54.02 236.6,54.02 236.99,54.02 237.39,54.02 237.79,54.02 238.18,54.01 238.58,54.02 238.97,54.02 239.37,54.02 239.76,54.01 240.16,54.01 240.56,54.01 240.95,54.01 241.35,54.01 241.74,54.01 242.14,54.02 242.54,54.02 242.93,54.01 243.33,54.02 243.72,54.02 244.12,54.02 244.52,54.03 244.91,54.03 245.31,54.02 245.7,54.01 246.1,54.01 246.49,54.02 246.89,54.02 247.29,54.01 247.68,54.01 248.08,54.01 248.47,54.01 248.87,54.01 249.27,54.02 249.66,54.02 250.06,54.02 250.45,54.02 250.85,54.02 251.24,54.02 251.64,54.01 252.04,54 252.43,54 252.83,54.01 253.22,54.01 253.62,54.01 254.02,54.01 254.41,54.01 254.81,54.01 255.2,54.01 255.6,54.02 255.99,54.02 256.39,54.01 256.79,54 257.18,54 257.58,54.01 257.97,54.02 258.37,54.02 258.77,54.01 259.16,54 259.56,54.01 259.95,54 260.35,53.99 260.74,53.98 261.14,53.97 261.54,53.97" stroke-dasharray="none" stroke="rgb(31,120,180)" stroke-width="0.75" opacity="1" stroke-opacity="1" fill="none"/>
          </g>
          <g id="Fig:densplot_01.xyplot.lines.group.5.panel.1.1.1">
            <polyline id="Fig:densplot_01.xyplot.lines.group.5.panel.1.1.1.1" points="59.19,53.98 59.58,54.29 59.98,57.69 60.38,75.09 60.77,117.86 61.17,168.97 61.57,191.31 61.96,178.15 62.36,153.59 62.75,133.61 63.15,119.65 63.55,109.78 63.94,102.43 64.34,96.61 64.74,91.84 65.13,87.93 65.53,84.71 65.92,81.92 66.32,79.46 66.72,77.4 67.11,75.61 67.51,73.92 67.91,72.35 68.3,71.01 68.7,69.94 69.09,69.04 69.49,68.19 69.89,67.35 70.28,66.55 70.68,65.79 71.08,65.15 71.47,64.65 71.87,64.19 72.26,63.7 72.66,63.15 73.06,62.62 73.45,62.18 73.85,61.82 74.25,61.5 74.64,61.19 75.04,60.84 75.43,60.49 75.83,60.18 76.23,59.95 76.62,59.79 77.02,59.63 77.41,59.41 77.81,59.16 78.21,58.96 78.6,58.83 79,58.69 79.4,58.53 79.79,58.39 80.19,58.26 80.58,58.1 80.98,57.92 81.38,57.78 81.77,57.69 82.17,57.61 82.57,57.52 82.96,57.4 83.36,57.28 83.75,57.19 84.15,57.09 84.55,56.97 84.94,56.87 85.34,56.82 85.74,56.76 86.13,56.67 86.53,56.58 86.92,56.53 87.32,56.49 87.72,56.43 88.11,56.37 88.51,56.31 88.91,56.24 89.3,56.18 89.7,56.13 90.09,56.08 90.49,56.03 90.89,55.97 91.28,55.93 91.68,55.89 92.08,55.85 92.47,55.81 92.87,55.77 93.26,55.72 93.66,55.68 94.06,55.66 94.45,55.63 94.85,55.61 95.25,55.58 95.64,55.52 96.04,55.47 96.43,55.46 96.83,55.43 97.23,55.37 97.62,55.32 98.02,55.31 98.41,55.31 98.81,55.31 99.21,55.3 99.6,55.26 100,55.22 100.4,55.18 100.79,55.16 101.19,55.16 101.58,55.14 101.98,55.11 102.38,55.09 102.77,55.08 103.17,55.06 103.57,55.02 103.96,54.99 104.36,54.99 104.75,54.98 105.15,54.93 105.55,54.89 105.94,54.88 106.34,54.88 106.74,54.86 107.13,54.85 107.53,54.85 107.92,54.83 108.32,54.79 108.72,54.77 109.11,54.77 109.51,54.78 109.91,54.77 110.3,54.76 110.7,54.75 111.09,54.74 111.49,54.72 111.89,54.7 112.28,54.69 112.68,54.69 113.08,54.69 113.47,54.68 113.87,54.66 114.26,54.65 114.66,54.64 115.06,54.64 115.45,54.62 115.85,54.61 116.25,54.6 116.64,54.6 117.04,54.6 117.43,54.57 117.83,54.54 118.23,54.53 118.62,54.52 119.02,54.52 119.41,54.52 119.81,54.5 120.21,54.5 120.6,54.5 121,54.51 121.4,54.52 121.79,54.52 122.19,54.51 122.58,54.5 122.98,54.48 123.38,54.46 123.77,54.46 124.17,54.46 124.57,54.46 124.96,54.45 125.36,54.44 125.75,54.44 126.15,54.44 126.55,54.44 126.94,54.43 127.34,54.43 127.74,54.42 128.13,54.41 128.53,54.41 128.92,54.4 129.32,54.4 129.72,54.38 130.11,54.36 130.51,54.36 130.91,54.36 131.3,54.35 131.7,54.35 132.09,54.34 132.49,54.36 132.89,54.36 133.28,54.34 133.68,54.34 134.08,54.33 134.47,54.32 134.87,54.32 135.26,54.33 135.66,54.33 136.06,54.33 136.45,54.32 136.85,54.31 137.25,54.3 137.64,54.3 138.04,54.29 138.43,54.28 138.83,54.27 139.23,54.27 139.62,54.27 140.02,54.27 140.41,54.27 140.81,54.27 141.21,54.26 141.6,54.25 142,54.25 142.4,54.26 142.79,54.28 143.19,54.28 143.58,54.26 143.98,54.25 144.38,54.25 144.77,54.25 145.17,54.25 145.57,54.24 145.96,54.23 146.36,54.23 146.75,54.24 147.15,54.25 147.55,54.24 147.94,54.23 148.34,54.23 148.74,54.22 149.13,54.22 149.53,54.21 149.92,54.2 150.32,54.19 150.72,54.2 151.11,54.2 151.51,54.2 151.91,54.2 152.3,54.2 152.7,54.2 153.09,54.2 153.49,54.18 153.89,54.17 154.28,54.17 154.68,54.17 155.08,54.17 155.47,54.17 155.87,54.18 156.26,54.17 156.66,54.17 157.06,54.18 157.45,54.18 157.85,54.18 158.25,54.17 158.64,54.17 159.04,54.17 159.43,54.17 159.83,54.16 160.23,54.16 160.62,54.15 161.02,54.15 161.41,54.14 161.81,54.14 162.21,54.15 162.6,54.16 163,54.16 163.4,54.17 163.79,54.16 164.19,54.15 164.58,54.15 164.98,54.15 165.38,54.16 165.77,54.15 166.17,54.14 166.57,54.13 166.96,54.14 167.36,54.14 167.75,54.14 168.15,54.13 168.55,54.14 168.94,54.13 169.34,54.13 169.74,54.12 170.13,54.12 170.53,54.12 170.92,54.13 171.32,54.14 171.72,54.14 172.11,54.13 172.51,54.11 172.91,54.11 173.3,54.12 173.7,54.12 174.09,54.12 174.49,54.13 174.89,54.13 175.28,54.13 175.68,54.12 176.08,54.11 176.47,54.1 176.87,54.1 177.26,54.1 177.66,54.1 178.06,54.1 178.45,54.09 178.85,54.1 179.25,54.1 179.64,54.1 180.04,54.11 180.43,54.11 180.83,54.1 181.23,54.11 181.62,54.11 182.02,54.11 182.41,54.11 182.81,54.1 183.21,54.09 183.6,54.09 184,54.1 184.4,54.1 184.79,54.1 185.19,54.1 185.58,54.09 185.98,54.08 186.38,54.09 186.77,54.09 187.17,54.09 187.57,54.09 187.96,54.08 188.36,54.08 188.75,54.08 189.15,54.08 189.55,54.08 189.94,54.07 190.34,54.07 190.74,54.07 191.13,54.07 191.53,54.07 191.92,54.07 192.32,54.07 192.72,54.08 193.11,54.08 193.51,54.08 193.91,54.08 194.3,54.07 194.7,54.07 195.09,54.07 195.49,54.08 195.89,54.08 196.28,54.08 196.68,54.08 197.08,54.08 197.47,54.08 197.87,54.07 198.26,54.07 198.66,54.07 199.06,54.06 199.45,54.06 199.85,54.06 200.25,54.06 200.64,54.06 201.04,54.06 201.43,54.06 201.83,54.06 202.23,54.06 202.62,54.06 203.02,54.06 203.41,54.06 203.81,54.06 204.21,54.05 204.6,54.05 205,54.06 205.4,54.06 205.79,54.05 206.19,54.05 206.58,54.05 206.98,54.05 207.38,54.06 207.77,54.06 208.17,54.06 208.57,54.05 208.96,54.05 209.36,54.05 209.75,54.05 210.15,54.06 210.55,54.06 210.94,54.06 211.34,54.06 211.74,54.05 212.13,54.05 212.53,54.04 212.92,54.05 213.32,54.05 213.72,54.06 214.11,54.06 214.51,54.05 214.91,54.04 215.3,54.04 215.7,54.04 216.09,54.04 216.49,54.04 216.89,54.04 217.28,54.05 217.68,54.05 218.08,54.05 218.47,54.05 218.87,54.05 219.26,54.04 219.66,54.05 220.06,54.05 220.45,54.04 220.85,54.04 221.25,54.04 221.64,54.04 222.04,54.04 222.43,54.04 222.83,54.04 223.23,54.03 223.62,54.04 224.02,54.04 224.41,54.04 224.81,54.03 225.21,54.03 225.6,54.04 226,54.04 226.4,54.03 226.79,54.03 227.19,54.03 227.58,54.03 227.98,54.03 228.38,54.03 228.77,54.03 229.17,54.03 229.57,54.03 229.96,54.04 230.36,54.04 230.75,54.03 231.15,54.03 231.55,54.03 231.94,54.04 232.34,54.04 232.74,54.04 233.13,54.04 233.53,54.04 233.92,54.03 234.32,54.03 234.72,54.03 235.11,54.02 235.51,54.02 235.91,54.03 236.3,54.03 236.7,54.03 237.09,54.03 237.49,54.03 237.89,54.03 238.28,54.03 238.68,54.03 239.08,54.02 239.47,54.02 239.87,54.02 240.26,54.02 240.66,54.03 241.06,54.03 241.45,54.02 241.85,54.02 242.25,54.03 242.64,54.03 243.04,54.03 243.43,54.03 243.83,54.02 244.23,54.02 244.62,54.03 245.02,54.03 245.41,54.03 245.81,54.02 246.21,54.02 246.6,54.01 247,54.01 247.4,54.02 247.79,54.02 248.19,54.02 248.58,54.02 248.98,54.02 249.38,54.02 249.77,54.02 250.17,54.03 250.57,54.02 250.96,54.01 251.36,54.01 251.75,54.01 252.15,54.01 252.55,54.01 252.94,54.01 253.34,54.02 253.74,54.02 254.13,54.02 254.53,54.02 254.92,54.02 255.32,54.02 255.72,54.02 256.11,54.02 256.51,54.02 256.91,54.01 257.3,54.02 257.7,54.02 258.09,54.02 258.49,54.02 258.89,54.01 259.28,54.01 259.68,54.01 260.08,54.01 260.47,54 260.87,53.98 261.26,53.97 261.66,53.97" stroke-dasharray="none" stroke="rgb(31,120,180)" stroke-width="0.75" opacity="1" stroke-opacity="1" fill="none"/>
          </g>
          <g id="Fig:densplot_01.xyplot.lines.group.6.panel.1.1.1">
            <polyline id="Fig:densplot_01.xyplot.lines.group.6.panel.1.1.1.1" points="59.05,53.98 59.45,54.34 59.84,58.27 60.24,78.43 60.64,126.48 61.03,178.96 61.43,195.61 61.83,177.31 62.22,150.77 62.62,130.23 63.02,116.1 63.41,106.04 63.81,98.63 64.21,93.09 64.6,88.79 65,85.22 65.4,82.18 65.79,79.62 66.19,77.5 66.59,75.69 66.98,74.06 67.38,72.62 67.78,71.3 68.17,70.09 68.57,69.08 68.97,68.28 69.36,67.5 69.76,66.68 70.16,65.88 70.55,65.19 70.95,64.63 71.35,64.15 71.74,63.7 72.14,63.28 72.54,62.87 72.93,62.46 73.33,62.07 73.73,61.7 74.12,61.33 74.52,61.02 74.92,60.79 75.31,60.57 75.71,60.32 76.11,60.06 76.5,59.81 76.9,59.58 77.3,59.39 77.69,59.23 78.09,59.06 78.49,58.87 78.88,58.69 79.28,58.52 79.68,58.39 80.07,58.28 80.47,58.19 80.87,58.08 81.26,57.92 81.66,57.77 82.06,57.67 82.45,57.57 82.85,57.46 83.25,57.32 83.64,57.2 84.04,57.12 84.44,57.08 84.83,57.02 85.23,56.95 85.63,56.87 86.02,56.79 86.42,56.72 86.82,56.67 87.21,56.62 87.61,56.57 88.01,56.51 88.4,56.42 88.8,56.35 89.2,56.32 89.59,56.28 89.99,56.23 90.39,56.17 90.78,56.11 91.18,56.05 91.58,56 91.97,55.96 92.37,55.94 92.77,55.93 93.16,55.9 93.56,55.82 93.96,55.74 94.35,55.71 94.75,55.71 95.15,55.7 95.54,55.65 95.94,55.59 96.34,55.54 96.73,55.52 97.13,55.49 97.53,55.46 97.92,55.43 98.32,55.41 98.72,55.39 99.11,55.38 99.51,55.37 99.91,55.35 100.3,55.33 100.7,55.31 101.1,55.28 101.49,55.25 101.89,55.22 102.29,55.18 102.68,55.15 103.08,55.11 103.48,55.07 103.87,55.05 104.27,55.04 104.67,55.03 105.06,55.02 105.46,55.02 105.86,55.03 106.25,55.03 106.65,55 107.05,54.96 107.44,54.91 107.84,54.88 108.24,54.88 108.63,54.89 109.03,54.87 109.43,54.85 109.82,54.83 110.22,54.82 110.62,54.82 111.01,54.82 111.41,54.84 111.81,54.84 112.2,54.83 112.6,54.8 113,54.78 113.39,54.76 113.79,54.74 114.19,54.72 114.58,54.71 114.98,54.7 115.38,54.7 115.77,54.7 116.17,54.7 116.57,54.69 116.96,54.68 117.36,54.66 117.76,54.64 118.15,54.61 118.55,54.6 118.95,54.6 119.34,54.6 119.74,54.6 120.14,54.59 120.53,54.58 120.93,54.57 121.33,54.56 121.72,54.56 122.12,54.56 122.52,54.55 122.91,54.54 123.31,54.52 123.71,54.52 124.1,54.52 124.5,54.51 124.9,54.5 125.29,54.5 125.69,54.52 126.09,54.52 126.48,54.5 126.88,54.48 127.28,54.48 127.67,54.48 128.07,54.46 128.47,54.45 128.86,54.45 129.26,54.45 129.66,54.46 130.05,54.44 130.45,54.41 130.85,54.39 131.24,54.4 131.64,54.4 132.04,54.41 132.43,54.42 132.83,54.42 133.23,54.41 133.62,54.4 134.02,54.39 134.42,54.39 134.81,54.38 135.21,54.36 135.61,54.35 136,54.34 136.4,54.34 136.8,54.35 137.19,54.35 137.59,54.35 137.99,54.35 138.38,54.34 138.78,54.33 139.18,54.33 139.57,54.33 139.97,54.34 140.37,54.34 140.76,54.34 141.16,54.34 141.56,54.34 141.95,54.33 142.35,54.32 142.75,54.31 143.14,54.3 143.54,54.3 143.94,54.28 144.33,54.28 144.73,54.27 145.13,54.27 145.52,54.28 145.92,54.28 146.32,54.28 146.71,54.28 147.11,54.27 147.51,54.26 147.9,54.26 148.3,54.27 148.7,54.27 149.09,54.27 149.49,54.26 149.89,54.26 150.28,54.26 150.68,54.26 151.08,54.25 151.47,54.24 151.87,54.22 152.27,54.22 152.66,54.22 153.06,54.21 153.46,54.2 153.85,54.2 154.25,54.2 154.65,54.21 155.04,54.21 155.44,54.22 155.84,54.22 156.23,54.22 156.63,54.22 157.03,54.22 157.42,54.21 157.82,54.2 158.22,54.19 158.61,54.19 159.01,54.19 159.41,54.19 159.8,54.18 160.2,54.18 160.6,54.17 160.99,54.17 161.39,54.18 161.79,54.18 162.18,54.18 162.58,54.17 162.98,54.18 163.37,54.18 163.77,54.18 164.17,54.17 164.56,54.17 164.96,54.17 165.36,54.17 165.75,54.16 166.15,54.16 166.55,54.17 166.94,54.17 167.34,54.17 167.74,54.17 168.13,54.16 168.53,54.15 168.93,54.15 169.32,54.14 169.72,54.14 170.12,54.14 170.51,54.14 170.91,54.14 171.31,54.15 171.7,54.16 172.1,54.16 172.5,54.16 172.89,54.15 173.29,54.15 173.69,54.14 174.08,54.14 174.48,54.13 174.88,54.14 175.27,54.14 175.67,54.14 176.07,54.13 176.46,54.13 176.86,54.13 177.26,54.13 177.65,54.13 178.05,54.13 178.45,54.13 178.84,54.13 179.24,54.13 179.64,54.13 180.03,54.12 180.43,54.12 180.83,54.12 181.22,54.13 181.62,54.14 182.02,54.14 182.41,54.13 182.81,54.12 183.21,54.11 183.6,54.1 184,54.1 184.4,54.1 184.79,54.11 185.19,54.11 185.59,54.1 185.98,54.11 186.38,54.12 186.78,54.12 187.17,54.11 187.57,54.1 187.97,54.1 188.36,54.09 188.76,54.1 189.16,54.11 189.55,54.12 189.95,54.12 190.35,54.12 190.74,54.11 191.14,54.1 191.54,54.09 191.93,54.09 192.33,54.09 192.73,54.1 193.12,54.1 193.52,54.11 193.92,54.11 194.31,54.1 194.71,54.1 195.11,54.09 195.5,54.09 195.9,54.08 196.3,54.08 196.69,54.08 197.09,54.09 197.49,54.08 197.88,54.08 198.28,54.07 198.68,54.07 199.07,54.08 199.47,54.08 199.87,54.09 200.26,54.08 200.66,54.08 201.06,54.08 201.45,54.08 201.85,54.08 202.25,54.08 202.64,54.09 203.04,54.09 203.44,54.09 203.83,54.08 204.23,54.08 204.63,54.08 205.02,54.08 205.42,54.08 205.82,54.08 206.21,54.08 206.61,54.07 207.01,54.06 207.4,54.06 207.8,54.07 208.2,54.07 208.59,54.07 208.99,54.07 209.39,54.07 209.78,54.07 210.18,54.07 210.58,54.07 210.97,54.07 211.37,54.07 211.77,54.06 212.16,54.05 212.56,54.06 212.96,54.07 213.35,54.07 213.75,54.07 214.15,54.07 214.54,54.07 214.94,54.06 215.34,54.06 215.73,54.06 216.13,54.06 216.53,54.05 216.92,54.05 217.32,54.05 217.72,54.05 218.11,54.05 218.51,54.05 218.91,54.06 219.3,54.06 219.7,54.06 220.1,54.06 220.49,54.05 220.89,54.04 221.29,54.04 221.68,54.04 222.08,54.05 222.48,54.05 222.87,54.05 223.27,54.05 223.67,54.04 224.06,54.04 224.46,54.05 224.86,54.05 225.25,54.05 225.65,54.04 226.05,54.04 226.44,54.04 226.84,54.04 227.24,54.04 227.63,54.05 228.03,54.05 228.43,54.06 228.82,54.05 229.22,54.05 229.62,54.04 230.01,54.04 230.41,54.04 230.81,54.04 231.2,54.04 231.6,54.04 232,54.03 232.39,54.03 232.79,54.03 233.19,54.04 233.58,54.04 233.98,54.04 234.38,54.04 234.77,54.04 235.17,54.04 235.57,54.04 235.96,54.04 236.36,54.04 236.76,54.04 237.15,54.04 237.55,54.04 237.95,54.03 238.34,54.03 238.74,54.03 239.14,54.04 239.53,54.04 239.93,54.03 240.33,54.04 240.72,54.04 241.12,54.05 241.52,54.05 241.91,54.05 242.31,54.04 242.71,54.04 243.1,54.03 243.5,54.03 243.9,54.03 244.29,54.04 244.69,54.04 245.09,54.04 245.48,54.04 245.88,54.03 246.28,54.03 246.67,54.03 247.07,54.03 247.47,54.03 247.86,54.03 248.26,54.04 248.66,54.04 249.05,54.03 249.45,54.03 249.85,54.03 250.24,54.03 250.64,54.03 251.04,54.03 251.43,54.03 251.83,54.03 252.23,54.03 252.62,54.02 253.02,54.02 253.42,54.03 253.81,54.03 254.21,54.03 254.61,54.03 255,54.03 255.4,54.02 255.8,54.02 256.19,54.02 256.59,54.02 256.99,54.02 257.38,54.02 257.78,54.03 258.18,54.03 258.57,54.03 258.97,54.02 259.37,54.02 259.76,54.02 260.16,54.01 260.56,54 260.95,53.98 261.35,53.97 261.75,53.97" stroke-dasharray="none" stroke="rgb(31,120,180)" stroke-width="0.75" opacity="1" stroke-opacity="1" fill="none"/>
          </g>
          <g id="Fig:densplot_01.xyplot.lines.group.7.panel.1.1.1">
            <polyline id="Fig:densplot_01.xyplot.lines.group.7.panel.1.1.1.1" points="59.03,53.98 59.43,54.29 59.83,58 60.22,77.77 60.62,125.69 61.02,178.68 61.41,195.45 61.81,175.9 62.21,149.58 62.6,130.31 63,117.08 63.39,107.56 63.79,100.51 64.19,95.11 64.58,90.73 64.98,87.02 65.38,83.85 65.77,81.17 66.17,78.83 66.57,76.81 66.96,75.13 67.36,73.67 67.76,72.29 68.15,71.03 68.55,69.94 68.95,68.99 69.34,68.08 69.74,67.23 70.14,66.5 70.53,65.84 70.93,65.14 71.33,64.5 71.72,63.95 72.12,63.49 72.52,63.09 72.91,62.71 73.31,62.34 73.7,61.98 74.1,61.61 74.5,61.24 74.89,60.93 75.29,60.67 75.69,60.36 76.08,60.1 76.48,59.86 76.88,59.63 77.27,59.43 77.67,59.26 78.07,59.07 78.46,58.84 78.86,58.64 79.26,58.51 79.65,58.36 80.05,58.19 80.45,58.05 80.84,57.93 81.24,57.81 81.64,57.69 82.03,57.58 82.43,57.47 82.82,57.37 83.22,57.26 83.62,57.14 84.01,57.04 84.41,56.98 84.81,56.93 85.2,56.86 85.6,56.77 86,56.68 86.39,56.58 86.79,56.53 87.19,56.5 87.58,56.43 87.98,56.35 88.38,56.28 88.77,56.22 89.17,56.17 89.57,56.12 89.96,56.05 90.36,55.98 90.76,55.95 91.15,55.94 91.55,55.89 91.95,55.83 92.34,55.79 92.74,55.75 93.13,55.72 93.53,55.69 93.93,55.64 94.32,55.59 94.72,55.57 95.12,55.55 95.51,55.53 95.91,55.49 96.31,55.45 96.7,55.41 97.1,55.38 97.5,55.35 97.89,55.33 98.29,55.3 98.69,55.27 99.08,55.25 99.48,55.24 99.88,55.2 100.27,55.16 100.67,55.14 101.07,55.12 101.46,55.09 101.86,55.07 102.25,55.07 102.65,55.05 103.05,55.01 103.44,54.99 103.84,54.97 104.24,54.96 104.63,54.96 105.03,54.95 105.43,54.91 105.82,54.89 106.22,54.88 106.62,54.89 107.01,54.9 107.41,54.88 107.81,54.85 108.2,54.82 108.6,54.79 109,54.78 109.39,54.76 109.79,54.75 110.19,54.74 110.58,54.73 110.98,54.73 111.38,54.72 111.77,54.7 112.17,54.68 112.56,54.66 112.96,54.66 113.36,54.66 113.75,54.64 114.15,54.63 114.55,54.61 114.94,54.61 115.34,54.6 115.74,54.59 116.13,54.58 116.53,54.57 116.93,54.56 117.32,54.56 117.72,54.55 118.12,54.53 118.51,54.52 118.91,54.5 119.31,54.5 119.7,54.49 120.1,54.49 120.5,54.49 120.89,54.49 121.29,54.49 121.68,54.49 122.08,54.49 122.48,54.49 122.87,54.49 123.27,54.48 123.67,54.45 124.06,54.43 124.46,54.42 124.86,54.43 125.25,54.43 125.65,54.43 126.05,54.42 126.44,54.41 126.84,54.41 127.24,54.41 127.63,54.4 128.03,54.39 128.43,54.38 128.82,54.39 129.22,54.39 129.62,54.37 130.01,54.37 130.41,54.36 130.8,54.36 131.2,54.35 131.6,54.36 131.99,54.35 132.39,54.35 132.79,54.35 133.18,54.34 133.58,54.34 133.98,54.33 134.37,54.31 134.77,54.3 135.17,54.3 135.56,54.3 135.96,54.3 136.36,54.3 136.75,54.3 137.15,54.3 137.55,54.29 137.94,54.29 138.34,54.28 138.74,54.27 139.13,54.26 139.53,54.26 139.93,54.26 140.32,54.26 140.72,54.27 141.11,54.26 141.51,54.26 141.91,54.26 142.3,54.26 142.7,54.26 143.1,54.27 143.49,54.26 143.89,54.25 144.29,54.24 144.68,54.23 145.08,54.22 145.48,54.22 145.87,54.22 146.27,54.22 146.67,54.22 147.06,54.21 147.46,54.21 147.86,54.21 148.25,54.2 148.65,54.2 149.05,54.21 149.44,54.21 149.84,54.22 150.23,54.21 150.63,54.2 151.03,54.2 151.42,54.2 151.82,54.2 152.22,54.2 152.61,54.2 153.01,54.21 153.41,54.2 153.8,54.19 154.2,54.18 154.6,54.18 154.99,54.18 155.39,54.16 155.79,54.15 156.18,54.16 156.58,54.17 156.98,54.17 157.37,54.17 157.77,54.17 158.17,54.16 158.56,54.16 158.96,54.15 159.36,54.16 159.75,54.17 160.15,54.16 160.54,54.15 160.94,54.14 161.34,54.14 161.73,54.14 162.13,54.14 162.53,54.13 162.92,54.14 163.32,54.14 163.72,54.14 164.11,54.15 164.51,54.15 164.91,54.15 165.3,54.15 165.7,54.14 166.1,54.13 166.49,54.13 166.89,54.13 167.29,54.13 167.68,54.13 168.08,54.13 168.48,54.12 168.87,54.11 169.27,54.11 169.66,54.12 170.06,54.11 170.46,54.11 170.85,54.11 171.25,54.12 171.65,54.12 172.04,54.12 172.44,54.11 172.84,54.11 173.23,54.11 173.63,54.12 174.03,54.12 174.42,54.11 174.82,54.11 175.22,54.1 175.61,54.1 176.01,54.1 176.41,54.09 176.8,54.09 177.2,54.1 177.6,54.1 177.99,54.1 178.39,54.1 178.79,54.1 179.18,54.11 179.58,54.11 179.97,54.11 180.37,54.1 180.77,54.09 181.16,54.09 181.56,54.09 181.96,54.08 182.35,54.07 182.75,54.07 183.15,54.08 183.54,54.08 183.94,54.08 184.34,54.09 184.73,54.09 185.13,54.09 185.53,54.1 185.92,54.1 186.32,54.1 186.72,54.09 187.11,54.09 187.51,54.08 187.91,54.08 188.3,54.08 188.7,54.08 189.09,54.08 189.49,54.08 189.89,54.07 190.28,54.07 190.68,54.07 191.08,54.07 191.47,54.08 191.87,54.08 192.27,54.08 192.66,54.08 193.06,54.08 193.46,54.08 193.85,54.08 194.25,54.08 194.65,54.08 195.04,54.08 195.44,54.08 195.84,54.07 196.23,54.07 196.63,54.07 197.03,54.07 197.42,54.07 197.82,54.07 198.22,54.06 198.61,54.07 199.01,54.07 199.4,54.07 199.8,54.07 200.2,54.07 200.59,54.06 200.99,54.06 201.39,54.06 201.78,54.06 202.18,54.06 202.58,54.06 202.97,54.07 203.37,54.07 203.77,54.06 204.16,54.06 204.56,54.06 204.96,54.06 205.35,54.06 205.75,54.06 206.15,54.06 206.54,54.06 206.94,54.06 207.34,54.06 207.73,54.06 208.13,54.06 208.52,54.05 208.92,54.05 209.32,54.04 209.71,54.04 210.11,54.05 210.51,54.05 210.9,54.05 211.3,54.05 211.7,54.05 212.09,54.05 212.49,54.05 212.89,54.04 213.28,54.04 213.68,54.04 214.08,54.05 214.47,54.05 214.87,54.05 215.27,54.04 215.66,54.04 216.06,54.04 216.46,54.04 216.85,54.05 217.25,54.05 217.65,54.05 218.04,54.04 218.44,54.04 218.83,54.04 219.23,54.04 219.63,54.04 220.02,54.04 220.42,54.03 220.82,54.03 221.21,54.03 221.61,54.04 222.01,54.03 222.4,54.03 222.8,54.03 223.2,54.03 223.59,54.04 223.99,54.04 224.39,54.04 224.78,54.04 225.18,54.03 225.58,54.03 225.97,54.03 226.37,54.02 226.77,54.02 227.16,54.03 227.56,54.03 227.95,54.04 228.35,54.04 228.75,54.04 229.14,54.03 229.54,54.03 229.94,54.02 230.33,54.02 230.73,54.02 231.13,54.03 231.52,54.03 231.92,54.03 232.32,54.03 232.71,54.03 233.11,54.02 233.51,54.02 233.9,54.02 234.3,54.02 234.7,54.02 235.09,54.03 235.49,54.03 235.89,54.03 236.28,54.03 236.68,54.03 237.08,54.03 237.47,54.03 237.87,54.03 238.26,54.02 238.66,54.02 239.06,54.02 239.45,54.02 239.85,54.03 240.25,54.03 240.64,54.03 241.04,54.02 241.44,54.02 241.83,54.02 242.23,54.02 242.63,54.02 243.02,54.02 243.42,54.02 243.82,54.02 244.21,54.02 244.61,54.02 245.01,54.03 245.4,54.03 245.8,54.03 246.2,54.02 246.59,54.02 246.99,54.02 247.38,54.02 247.78,54.02 248.18,54.02 248.57,54.02 248.97,54.02 249.37,54.02 249.76,54.02 250.16,54.02 250.56,54.03 250.95,54.02 251.35,54.03 251.75,54.03 252.14,54.03 252.54,54.01 252.94,54.01 253.33,54.01 253.73,54.01 254.13,54.01 254.52,54.01 254.92,54.01 255.32,54.02 255.71,54.02 256.11,54.02 256.51,54.02 256.9,54.01 257.3,54.01 257.69,54.01 258.09,54.02 258.49,54.02 258.88,54.01 259.28,54.01 259.68,54.01 260.07,54.01 260.47,53.99 260.87,53.98 261.26,53.97 261.66,53.97" stroke-dasharray="none" stroke="rgb(31,120,180)" stroke-width="0.75" opacity="1" stroke-opacity="1" fill="none"/>
          </g>
          <g id="Fig:densplot_01.xyplot.lines.group.8.panel.1.1.1">
            <polyline id="Fig:densplot_01.xyplot.lines.group.8.panel.1.1.1.1" points="59.15,53.99 59.55,54.68 59.94,61.16 60.34,88.76 60.73,144.19 61.13,193.33 61.53,198.25 61.92,172.48 62.32,145.76 62.72,126.91 63.11,114 63.51,104.84 63.91,97.96 64.3,92.62 64.7,88.39 65.09,84.95 65.49,81.99 65.89,79.5 66.28,77.39 66.68,75.55 67.08,73.92 67.47,72.48 67.87,71.15 68.26,69.97 68.66,68.91 69.06,67.98 69.45,67.21 69.85,66.48 70.25,65.8 70.64,65.2 71.04,64.58 71.43,63.98 71.83,63.52 72.23,63.08 72.62,62.6 73.02,62.2 73.42,61.89 73.81,61.53 74.21,61.16 74.6,60.83 75,60.58 75.4,60.33 75.79,60.08 76.19,59.82 76.59,59.56 76.98,59.38 77.38,59.29 77.77,59.16 78.17,58.93 78.57,58.68 78.96,58.5 79.36,58.35 79.76,58.21 80.15,58.07 80.55,57.93 80.94,57.81 81.34,57.74 81.74,57.63 82.13,57.49 82.53,57.39 82.93,57.31 83.32,57.2 83.72,57.07 84.12,56.97 84.51,56.88 84.91,56.79 85.3,56.7 85.7,56.64 86.1,56.6 86.49,56.57 86.89,56.56 87.29,56.5 87.68,56.42 88.08,56.34 88.47,56.27 88.87,56.21 89.27,56.16 89.66,56.12 90.06,56.08 90.46,56.03 90.85,55.98 91.25,55.93 91.64,55.88 92.04,55.8 92.44,55.74 92.83,55.7 93.23,55.68 93.63,55.65 94.02,55.62 94.42,55.61 94.81,55.58 95.21,55.54 95.61,55.49 96,55.45 96.4,55.42 96.8,55.4 97.19,55.37 97.59,55.33 97.98,55.31 98.38,55.29 98.78,55.26 99.17,55.23 99.57,55.2 99.97,55.2 100.36,55.18 100.76,55.16 101.16,55.14 101.55,55.12 101.95,55.08 102.34,55.05 102.74,55.01 103.14,54.99 103.53,54.99 103.93,54.99 104.33,54.98 104.72,54.96 105.12,54.95 105.51,54.93 105.91,54.89 106.31,54.86 106.7,54.86 107.1,54.86 107.5,54.85 107.89,54.83 108.29,54.82 108.68,54.82 109.08,54.8 109.48,54.77 109.87,54.74 110.27,54.73 110.67,54.72 111.06,54.72 111.46,54.7 111.85,54.7 112.25,54.7 112.65,54.7 113.04,54.69 113.44,54.67 113.84,54.65 114.23,54.63 114.63,54.62 115.02,54.63 115.42,54.64 115.82,54.63 116.21,54.59 116.61,54.56 117.01,54.56 117.4,54.57 117.8,54.55 118.19,54.53 118.59,54.52 118.99,54.52 119.38,54.51 119.78,54.52 120.18,54.53 120.57,54.53 120.97,54.52 121.37,54.51 121.76,54.5 122.16,54.49 122.55,54.47 122.95,54.45 123.35,54.45 123.74,54.45 124.14,54.44 124.54,54.43 124.93,54.43 125.33,54.43 125.72,54.42 126.12,54.42 126.52,54.42 126.91,54.43 127.31,54.42 127.71,54.41 128.1,54.41 128.5,54.4 128.89,54.39 129.29,54.38 129.69,54.37 130.08,54.36 130.48,54.36 130.88,54.38 131.27,54.38 131.67,54.37 132.06,54.37 132.46,54.36 132.86,54.36 133.25,54.35 133.65,54.33 134.05,54.32 134.44,54.32 134.84,54.31 135.23,54.32 135.63,54.32 136.03,54.32 136.42,54.32 136.82,54.32 137.22,54.32 137.61,54.3 138.01,54.29 138.41,54.29 138.8,54.29 139.2,54.29 139.59,54.29 139.99,54.29 140.39,54.29 140.78,54.28 141.18,54.27 141.58,54.26 141.97,54.25 142.37,54.25 142.76,54.25 143.16,54.25 143.56,54.25 143.95,54.25 144.35,54.25 144.75,54.24 145.14,54.23 145.54,54.22 145.93,54.22 146.33,54.22 146.73,54.21 147.12,54.2 147.52,54.2 147.92,54.21 148.31,54.23 148.71,54.23 149.1,54.24 149.5,54.24 149.9,54.23 150.29,54.22 150.69,54.21 151.09,54.2 151.48,54.19 151.88,54.18 152.27,54.19 152.67,54.2 153.07,54.21 153.46,54.21 153.86,54.2 154.26,54.18 154.65,54.17 155.05,54.18 155.44,54.18 155.84,54.18 156.24,54.18 156.63,54.17 157.03,54.17 157.43,54.18 157.82,54.18 158.22,54.17 158.62,54.18 159.01,54.18 159.41,54.17 159.8,54.16 160.2,54.15 160.6,54.14 160.99,54.14 161.39,54.15 161.79,54.15 162.18,54.15 162.58,54.14 162.97,54.14 163.37,54.16 163.77,54.17 164.16,54.17 164.56,54.16 164.96,54.16 165.35,54.15 165.75,54.15 166.14,54.14 166.54,54.13 166.94,54.13 167.33,54.14 167.73,54.13 168.13,54.12 168.52,54.12 168.92,54.12 169.31,54.12 169.71,54.12 170.11,54.13 170.5,54.14 170.9,54.14 171.3,54.13 171.69,54.13 172.09,54.12 172.48,54.12 172.88,54.11 173.28,54.11 173.67,54.11 174.07,54.11 174.47,54.11 174.86,54.11 175.26,54.1 175.66,54.11 176.05,54.12 176.45,54.13 176.84,54.12 177.24,54.12 177.64,54.12 178.03,54.11 178.43,54.1 178.83,54.1 179.22,54.1 179.62,54.11 180.01,54.11 180.41,54.1 180.81,54.1 181.2,54.09 181.6,54.1 182,54.1 182.39,54.11 182.79,54.1 183.18,54.09 183.58,54.09 183.98,54.09 184.37,54.09 184.77,54.09 185.17,54.1 185.56,54.09 185.96,54.09 186.35,54.09 186.75,54.09 187.15,54.09 187.54,54.08 187.94,54.09 188.34,54.09 188.73,54.08 189.13,54.08 189.52,54.08 189.92,54.08 190.32,54.08 190.71,54.08 191.11,54.09 191.51,54.08 191.9,54.08 192.3,54.08 192.69,54.08 193.09,54.07 193.49,54.08 193.88,54.08 194.28,54.08 194.68,54.09 195.07,54.09 195.47,54.08 195.87,54.07 196.26,54.06 196.66,54.06 197.05,54.06 197.45,54.06 197.85,54.06 198.24,54.07 198.64,54.07 199.04,54.07 199.43,54.06 199.83,54.06 200.22,54.05 200.62,54.06 201.02,54.06 201.41,54.07 201.81,54.07 202.21,54.07 202.6,54.06 203,54.06 203.39,54.05 203.79,54.06 204.19,54.06 204.58,54.06 204.98,54.06 205.38,54.05 205.77,54.04 206.17,54.05 206.56,54.05 206.96,54.05 207.36,54.05 207.75,54.05 208.15,54.05 208.55,54.05 208.94,54.05 209.34,54.05 209.73,54.05 210.13,54.06 210.53,54.05 210.92,54.05 211.32,54.05 211.72,54.05 212.11,54.05 212.51,54.05 212.91,54.06 213.3,54.06 213.7,54.06 214.09,54.05 214.49,54.04 214.89,54.03 215.28,54.04 215.68,54.05 216.08,54.05 216.47,54.05 216.87,54.04 217.26,54.04 217.66,54.04 218.06,54.04 218.45,54.04 218.85,54.04 219.25,54.04 219.64,54.04 220.04,54.04 220.43,54.04 220.83,54.04 221.23,54.05 221.62,54.05 222.02,54.04 222.42,54.04 222.81,54.03 223.21,54.03 223.6,54.03 224,54.03 224.4,54.04 224.79,54.05 225.19,54.04 225.59,54.04 225.98,54.04 226.38,54.04 226.77,54.04 227.17,54.03 227.57,54.03 227.96,54.03 228.36,54.04 228.76,54.04 229.15,54.04 229.55,54.04 229.94,54.04 230.34,54.04 230.74,54.04 231.13,54.04 231.53,54.04 231.93,54.03 232.32,54.03 232.72,54.02 233.12,54.03 233.51,54.03 233.91,54.04 234.3,54.04 234.7,54.03 235.1,54.03 235.49,54.03 235.89,54.03 236.29,54.03 236.68,54.03 237.08,54.03 237.47,54.03 237.87,54.03 238.27,54.03 238.66,54.03 239.06,54.03 239.46,54.03 239.85,54.02 240.25,54.02 240.64,54.02 241.04,54.01 241.44,54.01 241.83,54.02 242.23,54.02 242.63,54.02 243.02,54.02 243.42,54.03 243.81,54.03 244.21,54.03 244.61,54.02 245,54.02 245.4,54.02 245.8,54.01 246.19,54.02 246.59,54.03 246.98,54.03 247.38,54.03 247.78,54.02 248.17,54.02 248.57,54.01 248.97,54.01 249.36,54.01 249.76,54.01 250.16,54.01 250.55,54.01 250.95,54.01 251.34,54.02 251.74,54.02 252.14,54.02 252.53,54.02 252.93,54.02 253.33,54.02 253.72,54.02 254.12,54.02 254.51,54.01 254.91,54.01 255.31,54.01 255.7,54.02 256.1,54.02 256.5,54.02 256.89,54.02 257.29,54.02 257.68,54.01 258.08,54.01 258.48,54.01 258.87,54.01 259.27,54.01 259.67,54.01 260.06,54.01 260.46,53.99 260.85,53.98 261.25,53.97 261.65,53.97" stroke-dasharray="none" stroke="rgb(31,120,180)" stroke-width="0.75" opacity="1" stroke-opacity="1" fill="none"/>
          </g>
          <g id="Fig:densplot_01.xyplot.lines.group.9.panel.1.1.1">
            <polyline id="Fig:densplot_01.xyplot.lines.group.9.panel.1.1.1.1" points="59.04,53.98 59.44,54.33 59.84,58.11 60.24,77.27 60.63,123.4 61.03,173.82 61.43,188.95 61.82,171.87 62.22,148.22 62.62,129.62 63.01,116.34 63.41,106.66 63.81,99.45 64.2,93.94 64.6,89.48 65,85.75 65.39,82.7 65.79,80.18 66.19,78.05 66.58,76.21 66.98,74.55 67.38,73.03 67.77,71.7 68.17,70.55 68.57,69.53 68.96,68.61 69.36,67.78 69.76,67.05 70.16,66.35 70.55,65.68 70.95,65.06 71.35,64.49 71.74,63.98 72.14,63.51 72.54,63.05 72.93,62.64 73.33,62.29 73.73,61.99 74.12,61.69 74.52,61.34 74.92,60.99 75.31,60.68 75.71,60.4 76.11,60.13 76.5,59.9 76.9,59.7 77.3,59.53 77.69,59.38 78.09,59.21 78.49,59.05 78.88,58.86 79.28,58.66 79.68,58.48 80.07,58.34 80.47,58.26 80.87,58.18 81.27,58.05 81.66,57.88 82.06,57.73 82.46,57.61 82.85,57.52 83.25,57.45 83.65,57.39 84.04,57.32 84.44,57.22 84.84,57.11 85.23,56.99 85.63,56.9 86.03,56.84 86.42,56.79 86.82,56.75 87.22,56.71 87.61,56.66 88.01,56.58 88.41,56.48 88.8,56.4 89.2,56.33 89.6,56.29 89.99,56.25 90.39,56.22 90.79,56.18 91.18,56.13 91.58,56.07 91.98,56.02 92.38,55.97 92.77,55.93 93.17,55.89 93.57,55.85 93.96,55.82 94.36,55.79 94.76,55.76 95.15,55.74 95.55,55.72 95.95,55.68 96.34,55.62 96.74,55.57 97.14,55.54 97.53,55.52 97.93,55.5 98.33,55.49 98.72,55.46 99.12,55.42 99.52,55.38 99.91,55.36 100.31,55.34 100.71,55.33 101.1,55.33 101.5,55.32 101.9,55.29 102.29,55.24 102.69,55.19 103.09,55.17 103.49,55.19 103.88,55.17 104.28,55.14 104.68,55.11 105.07,55.09 105.47,55.07 105.87,55.06 106.26,55.05 106.66,55.02 107.06,54.98 107.45,54.95 107.85,54.94 108.25,54.92 108.64,54.92 109.04,54.93 109.44,54.93 109.83,54.93 110.23,54.91 110.63,54.9 111.02,54.89 111.42,54.88 111.82,54.86 112.21,54.83 112.61,54.8 113.01,54.79 113.4,54.78 113.8,54.76 114.2,54.74 114.6,54.73 114.99,54.72 115.39,54.71 115.79,54.69 116.18,54.67 116.58,54.67 116.98,54.68 117.37,54.69 117.77,54.69 118.17,54.68 118.56,54.67 118.96,54.66 119.36,54.64 119.75,54.62 120.15,54.61 120.55,54.61 120.94,54.61 121.34,54.58 121.74,54.56 122.13,54.56 122.53,54.57 122.93,54.57 123.32,54.55 123.72,54.54 124.12,54.55 124.52,54.56 124.91,54.56 125.31,54.55 125.71,54.53 126.1,54.52 126.5,54.5 126.9,54.49 127.29,54.48 127.69,54.48 128.09,54.48 128.48,54.47 128.88,54.47 129.28,54.47 129.67,54.47 130.07,54.47 130.47,54.47 130.86,54.46 131.26,54.45 131.66,54.44 132.05,54.44 132.45,54.45 132.85,54.44 133.24,54.42 133.64,54.41 134.04,54.4 134.43,54.39 134.83,54.4 135.23,54.4 135.63,54.4 136.02,54.39 136.42,54.38 136.82,54.37 137.21,54.36 137.61,54.35 138.01,54.35 138.4,54.35 138.8,54.35 139.2,54.36 139.59,54.36 139.99,54.37 140.39,54.36 140.78,54.34 141.18,54.33 141.58,54.33 141.97,54.33 142.37,54.33 142.77,54.32 143.16,54.31 143.56,54.3 143.96,54.29 144.35,54.29 144.75,54.29 145.15,54.29 145.54,54.28 145.94,54.28 146.34,54.28 146.74,54.28 147.13,54.27 147.53,54.27 147.93,54.27 148.32,54.28 148.72,54.27 149.12,54.26 149.51,54.26 149.91,54.27 150.31,54.26 150.7,54.25 151.1,54.25 151.5,54.25 151.89,54.25 152.29,54.26 152.69,54.26 153.08,54.26 153.48,54.26 153.88,54.25 154.27,54.25 154.67,54.25 155.07,54.25 155.46,54.25 155.86,54.25 156.26,54.25 156.65,54.24 157.05,54.24 157.45,54.24 157.85,54.23 158.24,54.22 158.64,54.22 159.04,54.22 159.43,54.21 159.83,54.21 160.23,54.22 160.62,54.22 161.02,54.22 161.42,54.21 161.81,54.21 162.21,54.19 162.61,54.18 163,54.18 163.4,54.18 163.8,54.19 164.19,54.19 164.59,54.19 164.99,54.18 165.38,54.18 165.78,54.18 166.18,54.18 166.57,54.18 166.97,54.18 167.37,54.18 167.76,54.17 168.16,54.17 168.56,54.16 168.96,54.15 169.35,54.15 169.75,54.15 170.15,54.16 170.54,54.16 170.94,54.16 171.34,54.17 171.73,54.16 172.13,54.15 172.53,54.15 172.92,54.15 173.32,54.16 173.72,54.17 174.11,54.17 174.51,54.16 174.91,54.14 175.3,54.14 175.7,54.14 176.1,54.14 176.49,54.14 176.89,54.14 177.29,54.14 177.68,54.14 178.08,54.14 178.48,54.15 178.88,54.15 179.27,54.14 179.67,54.14 180.07,54.13 180.46,54.13 180.86,54.13 181.26,54.14 181.65,54.14 182.05,54.13 182.45,54.13 182.84,54.12 183.24,54.12 183.64,54.12 184.03,54.12 184.43,54.12 184.83,54.12 185.22,54.11 185.62,54.11 186.02,54.11 186.41,54.11 186.81,54.11 187.21,54.11 187.6,54.11 188,54.11 188.4,54.12 188.79,54.12 189.19,54.11 189.59,54.11 189.99,54.11 190.38,54.11 190.78,54.11 191.18,54.11 191.57,54.1 191.97,54.1 192.37,54.1 192.76,54.1 193.16,54.1 193.56,54.1 193.95,54.1 194.35,54.1 194.75,54.1 195.14,54.11 195.54,54.11 195.94,54.1 196.33,54.09 196.73,54.1 197.13,54.1 197.52,54.1 197.92,54.1 198.32,54.1 198.71,54.1 199.11,54.09 199.51,54.09 199.9,54.08 200.3,54.08 200.7,54.07 201.1,54.07 201.49,54.08 201.89,54.08 202.29,54.08 202.68,54.09 203.08,54.09 203.48,54.09 203.87,54.09 204.27,54.09 204.67,54.09 205.06,54.09 205.46,54.09 205.86,54.09 206.25,54.08 206.65,54.08 207.05,54.07 207.44,54.07 207.84,54.07 208.24,54.08 208.63,54.08 209.03,54.07 209.43,54.08 209.82,54.08 210.22,54.08 210.62,54.07 211.01,54.07 211.41,54.07 211.81,54.07 212.21,54.07 212.6,54.08 213,54.07 213.4,54.07 213.79,54.08 214.19,54.08 214.59,54.08 214.98,54.07 215.38,54.07 215.78,54.07 216.17,54.07 216.57,54.06 216.97,54.07 217.36,54.07 217.76,54.06 218.16,54.06 218.55,54.06 218.95,54.06 219.35,54.06 219.74,54.07 220.14,54.07 220.54,54.07 220.93,54.07 221.33,54.07 221.73,54.06 222.12,54.06 222.52,54.06 222.92,54.05 223.32,54.04 223.71,54.04 224.11,54.05 224.51,54.05 224.9,54.05 225.3,54.05 225.7,54.05 226.09,54.06 226.49,54.06 226.89,54.05 227.28,54.06 227.68,54.05 228.08,54.05 228.47,54.05 228.87,54.05 229.27,54.05 229.66,54.05 230.06,54.05 230.46,54.06 230.85,54.06 231.25,54.06 231.65,54.05 232.04,54.05 232.44,54.05 232.84,54.04 233.23,54.04 233.63,54.05 234.03,54.05 234.43,54.06 234.82,54.06 235.22,54.05 235.62,54.05 236.01,54.05 236.41,54.05 236.81,54.05 237.2,54.04 237.6,54.04 238,54.04 238.39,54.05 238.79,54.05 239.19,54.04 239.58,54.05 239.98,54.05 240.38,54.05 240.77,54.05 241.17,54.05 241.57,54.04 241.96,54.04 242.36,54.04 242.76,54.03 243.15,54.04 243.55,54.04 243.95,54.04 244.35,54.04 244.74,54.03 245.14,54.03 245.54,54.04 245.93,54.04 246.33,54.04 246.73,54.04 247.12,54.03 247.52,54.03 247.92,54.04 248.31,54.04 248.71,54.04 249.11,54.04 249.5,54.04 249.9,54.04 250.3,54.04 250.69,54.04 251.09,54.04 251.49,54.03 251.88,54.03 252.28,54.03 252.68,54.03 253.07,54.02 253.47,54.03 253.87,54.03 254.26,54.04 254.66,54.04 255.06,54.03 255.46,54.03 255.85,54.03 256.25,54.03 256.65,54.03 257.04,54.03 257.44,54.03 257.84,54.03 258.23,54.03 258.63,54.03 259.03,54.03 259.42,54.04 259.82,54.04 260.22,54.03 260.61,54 261.01,53.98 261.41,53.97 261.8,53.97" stroke-dasharray="none" stroke="rgb(31,120,180)" stroke-width="0.75" opacity="1" stroke-opacity="1" fill="none"/>
          </g>
          <g id="Fig:densplot_01.xyplot.lines.group.10.panel.1.1.1">
            <polyline id="Fig:densplot_01.xyplot.lines.group.10.panel.1.1.1.1" points="59.23,54.01 59.62,54.88 60.02,62.37 60.42,91.54 60.81,145.05 61.21,187.95 61.6,190.78 62,167.94 62.4,144.02 62.79,126.59 63.19,114.3 63.59,105.27 63.98,98.44 64.38,93.15 64.77,88.93 65.17,85.45 65.57,82.47 65.96,79.91 66.36,77.68 66.75,75.75 67.15,74.12 67.55,72.73 67.94,71.53 68.34,70.41 68.74,69.32 69.13,68.38 69.53,67.6 69.92,66.86 70.32,66.11 70.72,65.42 71.11,64.83 71.51,64.29 71.91,63.73 72.3,63.17 72.7,62.69 73.09,62.28 73.49,61.92 73.89,61.61 74.28,61.3 74.68,60.95 75.07,60.63 75.47,60.4 75.87,60.16 76.26,59.9 76.66,59.7 77.06,59.54 77.45,59.34 77.85,59.08 78.24,58.86 78.64,58.7 79.04,58.57 79.43,58.45 79.83,58.33 80.22,58.19 80.62,58.05 81.02,57.9 81.41,57.77 81.81,57.66 82.21,57.56 82.6,57.44 83,57.32 83.39,57.22 83.79,57.13 84.19,57.05 84.58,56.98 84.98,56.9 85.38,56.82 85.77,56.74 86.17,56.68 86.56,56.62 86.96,56.56 87.36,56.46 87.75,56.38 88.15,56.33 88.54,56.28 88.94,56.24 89.34,56.2 89.73,56.14 90.13,56.07 90.53,56.03 90.92,56.02 91.32,56.01 91.71,55.98 92.11,55.93 92.51,55.87 92.9,55.79 93.3,55.72 93.69,55.66 94.09,55.62 94.49,55.61 94.88,55.6 95.28,55.56 95.68,55.51 96.07,55.47 96.47,55.43 96.86,55.42 97.26,55.41 97.66,55.38 98.05,55.37 98.45,55.34 98.85,55.3 99.24,55.26 99.64,55.22 100.03,55.18 100.43,55.17 100.83,55.18 101.22,55.17 101.62,55.15 102.01,55.11 102.41,55.06 102.81,55.05 103.2,55.05 103.6,55.04 104,55 104.39,54.99 104.79,55 105.18,54.99 105.58,54.96 105.98,54.94 106.37,54.92 106.77,54.88 107.16,54.84 107.56,54.82 107.96,54.81 108.35,54.81 108.75,54.81 109.15,54.81 109.54,54.8 109.94,54.78 110.33,54.77 110.73,54.75 111.13,54.74 111.52,54.74 111.92,54.73 112.31,54.72 112.71,54.71 113.11,54.69 113.5,54.68 113.9,54.68 114.3,54.67 114.69,54.67 115.09,54.65 115.48,54.63 115.88,54.61 116.28,54.6 116.67,54.61 117.07,54.61 117.47,54.59 117.86,54.58 118.26,54.57 118.65,54.57 119.05,54.57 119.45,54.57 119.84,54.57 120.24,54.56 120.63,54.54 121.03,54.53 121.43,54.52 121.82,54.52 122.22,54.52 122.62,54.51 123.01,54.5 123.41,54.49 123.8,54.48 124.2,54.48 124.6,54.46 124.99,54.45 125.39,54.44 125.78,54.44 126.18,54.45 126.58,54.45 126.97,54.45 127.37,54.42 127.77,54.39 128.16,54.39 128.56,54.39 128.95,54.39 129.35,54.38 129.75,54.38 130.14,54.38 130.54,54.38 130.94,54.37 131.33,54.37 131.73,54.36 132.12,54.35 132.52,54.35 132.92,54.34 133.31,54.34 133.71,54.34 134.1,54.34 134.5,54.34 134.9,54.34 135.29,54.33 135.69,54.32 136.09,54.31 136.48,54.31 136.88,54.31 137.27,54.31 137.67,54.31 138.07,54.31 138.46,54.3 138.86,54.29 139.25,54.28 139.65,54.28 140.05,54.28 140.44,54.28 140.84,54.28 141.24,54.28 141.63,54.28 142.03,54.27 142.42,54.26 142.82,54.26 143.22,54.27 143.61,54.28 144.01,54.28 144.41,54.26 144.8,54.25 145.2,54.24 145.59,54.23 145.99,54.23 146.39,54.23 146.78,54.22 147.18,54.21 147.57,54.22 147.97,54.23 148.37,54.23 148.76,54.22 149.16,54.22 149.56,54.21 149.95,54.2 150.35,54.2 150.74,54.2 151.14,54.2 151.54,54.2 151.93,54.19 152.33,54.19 152.72,54.2 153.12,54.21 153.52,54.22 153.91,54.22 154.31,54.21 154.71,54.19 155.1,54.19 155.5,54.2 155.89,54.21 156.29,54.21 156.69,54.19 157.08,54.18 157.48,54.17 157.88,54.17 158.27,54.16 158.67,54.16 159.06,54.17 159.46,54.18 159.86,54.18 160.25,54.17 160.65,54.17 161.04,54.17 161.44,54.17 161.84,54.17 162.23,54.16 162.63,54.16 163.03,54.16 163.42,54.16 163.82,54.17 164.21,54.17 164.61,54.16 165.01,54.14 165.4,54.13 165.8,54.13 166.19,54.13 166.59,54.13 166.99,54.13 167.38,54.14 167.78,54.14 168.18,54.14 168.57,54.14 168.97,54.15 169.36,54.16 169.76,54.15 170.16,54.14 170.55,54.14 170.95,54.14 171.35,54.14 171.74,54.13 172.14,54.13 172.53,54.12 172.93,54.12 173.33,54.12 173.72,54.12 174.12,54.12 174.51,54.12 174.91,54.11 175.31,54.11 175.7,54.12 176.1,54.11 176.5,54.11 176.89,54.1 177.29,54.1 177.68,54.11 178.08,54.11 178.48,54.11 178.87,54.11 179.27,54.11 179.66,54.11 180.06,54.11 180.46,54.1 180.85,54.09 181.25,54.09 181.65,54.1 182.04,54.1 182.44,54.09 182.83,54.09 183.23,54.09 183.63,54.1 184.02,54.1 184.42,54.1 184.82,54.1 185.21,54.1 185.61,54.09 186,54.09 186.4,54.09 186.8,54.09 187.19,54.08 187.59,54.08 187.98,54.09 188.38,54.09 188.78,54.08 189.17,54.09 189.57,54.09 189.97,54.09 190.36,54.09 190.76,54.08 191.15,54.08 191.55,54.08 191.95,54.08 192.34,54.08 192.74,54.08 193.13,54.08 193.53,54.07 193.93,54.08 194.32,54.08 194.72,54.07 195.12,54.06 195.51,54.06 195.91,54.06 196.3,54.06 196.7,54.06 197.1,54.06 197.49,54.07 197.89,54.08 198.29,54.08 198.68,54.07 199.08,54.07 199.47,54.07 199.87,54.07 200.27,54.07 200.66,54.07 201.06,54.07 201.45,54.07 201.85,54.06 202.25,54.06 202.64,54.06 203.04,54.07 203.44,54.07 203.83,54.07 204.23,54.07 204.62,54.06 205.02,54.06 205.42,54.06 205.81,54.06 206.21,54.06 206.6,54.06 207,54.05 207.4,54.05 207.79,54.05 208.19,54.06 208.59,54.06 208.98,54.06 209.38,54.06 209.77,54.06 210.17,54.06 210.57,54.06 210.96,54.07 211.36,54.07 211.76,54.07 212.15,54.06 212.55,54.06 212.94,54.05 213.34,54.05 213.74,54.05 214.13,54.05 214.53,54.05 214.92,54.05 215.32,54.05 215.72,54.05 216.11,54.05 216.51,54.06 216.91,54.05 217.3,54.05 217.7,54.05 218.09,54.05 218.49,54.05 218.89,54.04 219.28,54.04 219.68,54.04 220.07,54.05 220.47,54.05 220.87,54.05 221.26,54.04 221.66,54.04 222.06,54.04 222.45,54.04 222.85,54.03 223.24,54.03 223.64,54.04 224.04,54.04 224.43,54.05 224.83,54.04 225.22,54.04 225.62,54.04 226.02,54.04 226.41,54.03 226.81,54.03 227.21,54.04 227.6,54.04 228,54.04 228.39,54.04 228.79,54.04 229.19,54.03 229.58,54.03 229.98,54.03 230.38,54.03 230.77,54.04 231.17,54.04 231.56,54.04 231.96,54.03 232.36,54.03 232.75,54.03 233.15,54.03 233.54,54.03 233.94,54.03 234.34,54.03 234.73,54.04 235.13,54.04 235.53,54.04 235.92,54.03 236.32,54.03 236.71,54.03 237.11,54.03 237.51,54.02 237.9,54.02 238.3,54.02 238.69,54.02 239.09,54.03 239.49,54.03 239.88,54.02 240.28,54.02 240.68,54.02 241.07,54.03 241.47,54.03 241.86,54.03 242.26,54.02 242.66,54.02 243.05,54.02 243.45,54.02 243.85,54.02 244.24,54.02 244.64,54.02 245.03,54.02 245.43,54.02 245.83,54.02 246.22,54.02 246.62,54.02 247.01,54.02 247.41,54.02 247.81,54.02 248.2,54.02 248.6,54.03 249,54.02 249.39,54.01 249.79,54.01 250.18,54.02 250.58,54.02 250.98,54.02 251.37,54.02 251.77,54.02 252.16,54.02 252.56,54.02 252.96,54.02 253.35,54.03 253.75,54.03 254.15,54.03 254.54,54.03 254.94,54.03 255.33,54.03 255.73,54.03 256.13,54.02 256.52,54.02 256.92,54.02 257.32,54.02 257.71,54.02 258.11,54.02 258.5,54.01 258.9,54.02 259.3,54.02 259.69,54.01 260.09,54.01 260.48,53.99 260.88,53.98 261.28,53.97 261.67,53.97" stroke-dasharray="none" stroke="rgb(31,120,180)" stroke-width="0.75" opacity="1" stroke-opacity="1" fill="none"/>
          </g>
          <g id="Fig:densplot_01.xyplot.lines.group.11.panel.1.1.1">
            <polyline id="Fig:densplot_01.xyplot.lines.group.11.panel.1.1.1.1" points="59.08,53.98 59.48,54.29 59.88,57.63 60.27,74.84 60.67,117.17 61.07,167.59 61.46,190.59 61.86,179.69 62.26,155.97 62.65,135.16 63.05,120.05 63.45,109.13 63.84,101.12 64.24,95.15 64.64,90.45 65.03,86.6 65.43,83.41 65.83,80.69 66.22,78.34 66.62,76.33 67.02,74.6 67.41,73.12 67.81,71.87 68.2,70.72 68.6,69.65 69,68.73 69.39,67.91 69.79,67.11 70.19,66.33 70.58,65.59 70.98,64.94 71.38,64.37 71.77,63.85 72.17,63.4 72.57,63.02 72.96,62.62 73.36,62.21 73.76,61.85 74.15,61.53 74.55,61.19 74.95,60.82 75.34,60.52 75.74,60.3 76.14,60.11 76.53,59.86 76.93,59.59 77.32,59.36 77.72,59.19 78.12,59.05 78.51,58.93 78.91,58.79 79.31,58.6 79.7,58.41 80.1,58.26 80.5,58.13 80.89,57.98 81.29,57.82 81.69,57.69 82.08,57.56 82.48,57.44 82.88,57.37 83.27,57.32 83.67,57.24 84.07,57.16 84.46,57.08 84.86,56.98 85.26,56.89 85.65,56.81 86.05,56.72 86.45,56.64 86.84,56.57 87.24,56.51 87.63,56.44 88.03,56.38 88.43,56.34 88.82,56.31 89.22,56.27 89.62,56.21 90.01,56.15 90.41,56.12 90.81,56.08 91.2,56.04 91.6,55.99 92,55.93 92.39,55.87 92.79,55.83 93.19,55.79 93.58,55.74 93.98,55.68 94.38,55.64 94.77,55.64 95.17,55.63 95.57,55.61 95.96,55.58 96.36,55.54 96.76,55.5 97.15,55.46 97.55,55.42 97.94,55.4 98.34,55.38 98.74,55.36 99.13,55.35 99.53,55.34 99.93,55.32 100.32,55.29 100.72,55.25 101.12,55.21 101.51,55.19 101.91,55.18 102.31,55.16 102.7,55.13 103.1,55.1 103.5,55.07 103.89,55.07 104.29,55.07 104.69,55.04 105.08,55 105.48,54.97 105.88,54.96 106.27,54.93 106.67,54.91 107.06,54.92 107.46,54.91 107.86,54.9 108.25,54.88 108.65,54.86 109.05,54.84 109.44,54.84 109.84,54.84 110.24,54.84 110.63,54.82 111.03,54.79 111.43,54.78 111.82,54.76 112.22,54.76 112.62,54.77 113.01,54.77 113.41,54.77 113.81,54.74 114.2,54.7 114.6,54.68 115,54.68 115.39,54.66 115.79,54.65 116.19,54.64 116.58,54.61 116.98,54.58 117.37,54.57 117.77,54.59 118.17,54.6 118.56,54.6 118.96,54.6 119.36,54.6 119.75,54.58 120.15,54.56 120.55,54.54 120.94,54.54 121.34,54.55 121.74,54.56 122.13,54.55 122.53,54.53 122.93,54.52 123.32,54.51 123.72,54.51 124.12,54.52 124.51,54.5 124.91,54.48 125.31,54.45 125.7,54.44 126.1,54.44 126.49,54.44 126.89,54.44 127.29,54.43 127.68,54.43 128.08,54.45 128.48,54.45 128.87,54.44 129.27,54.43 129.67,54.42 130.06,54.41 130.46,54.39 130.86,54.38 131.25,54.4 131.65,54.4 132.05,54.39 132.44,54.38 132.84,54.38 133.24,54.38 133.63,54.38 134.03,54.37 134.43,54.37 134.82,54.36 135.22,54.34 135.62,54.34 136.01,54.33 136.41,54.33 136.8,54.33 137.2,54.33 137.6,54.33 137.99,54.33 138.39,54.33 138.79,54.31 139.18,54.31 139.58,54.31 139.98,54.3 140.37,54.3 140.77,54.3 141.17,54.29 141.56,54.3 141.96,54.3 142.36,54.29 142.75,54.29 143.15,54.29 143.55,54.29 143.94,54.28 144.34,54.27 144.74,54.27 145.13,54.27 145.53,54.26 145.92,54.26 146.32,54.27 146.72,54.27 147.11,54.26 147.51,54.26 147.91,54.26 148.3,54.25 148.7,54.24 149.1,54.23 149.49,54.23 149.89,54.23 150.29,54.23 150.68,54.23 151.08,54.24 151.48,54.24 151.87,54.24 152.27,54.23 152.67,54.23 153.06,54.23 153.46,54.21 153.86,54.21 154.25,54.21 154.65,54.21 155.05,54.21 155.44,54.21 155.84,54.21 156.23,54.2 156.63,54.2 157.03,54.19 157.42,54.18 157.82,54.19 158.22,54.19 158.61,54.2 159.01,54.2 159.41,54.19 159.8,54.19 160.2,54.19 160.6,54.19 160.99,54.18 161.39,54.17 161.79,54.17 162.18,54.17 162.58,54.17 162.98,54.16 163.37,54.16 163.77,54.16 164.17,54.17 164.56,54.16 164.96,54.16 165.36,54.16 165.75,54.16 166.15,54.17 166.54,54.16 166.94,54.15 167.34,54.14 167.73,54.15 168.13,54.15 168.53,54.15 168.92,54.15 169.32,54.15 169.72,54.15 170.11,54.15 170.51,54.15 170.91,54.15 171.3,54.15 171.7,54.15 172.1,54.15 172.49,54.15 172.89,54.15 173.29,54.14 173.68,54.14 174.08,54.13 174.48,54.12 174.87,54.12 175.27,54.12 175.66,54.13 176.06,54.14 176.46,54.13 176.85,54.13 177.25,54.13 177.65,54.12 178.04,54.12 178.44,54.12 178.84,54.12 179.23,54.12 179.63,54.12 180.03,54.12 180.42,54.11 180.82,54.11 181.22,54.11 181.61,54.11 182.01,54.11 182.41,54.11 182.8,54.11 183.2,54.11 183.6,54.11 183.99,54.11 184.39,54.1 184.79,54.1 185.18,54.1 185.58,54.1 185.97,54.1 186.37,54.1 186.77,54.11 187.16,54.12 187.56,54.11 187.96,54.09 188.35,54.09 188.75,54.09 189.15,54.09 189.54,54.09 189.94,54.1 190.34,54.09 190.73,54.09 191.13,54.08 191.53,54.08 191.92,54.08 192.32,54.08 192.72,54.08 193.11,54.08 193.51,54.08 193.91,54.07 194.3,54.08 194.7,54.08 195.09,54.08 195.49,54.08 195.89,54.08 196.28,54.08 196.68,54.08 197.08,54.08 197.47,54.09 197.87,54.09 198.27,54.09 198.66,54.09 199.06,54.09 199.46,54.09 199.85,54.09 200.25,54.09 200.65,54.08 201.04,54.08 201.44,54.08 201.84,54.08 202.23,54.07 202.63,54.06 203.03,54.06 203.42,54.06 203.82,54.07 204.22,54.07 204.61,54.07 205.01,54.06 205.4,54.06 205.8,54.06 206.2,54.06 206.59,54.06 206.99,54.06 207.39,54.07 207.78,54.07 208.18,54.06 208.58,54.06 208.97,54.06 209.37,54.06 209.77,54.06 210.16,54.06 210.56,54.06 210.96,54.06 211.35,54.06 211.75,54.07 212.15,54.07 212.54,54.06 212.94,54.06 213.34,54.05 213.73,54.05 214.13,54.05 214.53,54.05 214.92,54.06 215.32,54.06 215.71,54.06 216.11,54.06 216.51,54.06 216.9,54.05 217.3,54.05 217.7,54.05 218.09,54.05 218.49,54.04 218.89,54.04 219.28,54.05 219.68,54.05 220.08,54.05 220.47,54.05 220.87,54.05 221.27,54.05 221.66,54.05 222.06,54.05 222.46,54.05 222.85,54.05 223.25,54.04 223.65,54.04 224.04,54.05 224.44,54.05 224.83,54.04 225.23,54.04 225.63,54.04 226.02,54.05 226.42,54.05 226.82,54.05 227.21,54.04 227.61,54.04 228.01,54.04 228.4,54.05 228.8,54.04 229.2,54.04 229.59,54.04 229.99,54.05 230.39,54.05 230.78,54.05 231.18,54.04 231.58,54.04 231.97,54.04 232.37,54.05 232.77,54.05 233.16,54.05 233.56,54.05 233.96,54.04 234.35,54.04 234.75,54.04 235.14,54.04 235.54,54.04 235.94,54.04 236.33,54.03 236.73,54.03 237.13,54.03 237.52,54.03 237.92,54.03 238.32,54.03 238.71,54.04 239.11,54.04 239.51,54.04 239.9,54.04 240.3,54.03 240.7,54.04 241.09,54.04 241.49,54.04 241.89,54.04 242.28,54.04 242.68,54.03 243.08,54.02 243.47,54.03 243.87,54.02 244.26,54.02 244.66,54.03 245.06,54.03 245.45,54.02 245.85,54.02 246.25,54.02 246.64,54.02 247.04,54.02 247.44,54.02 247.83,54.03 248.23,54.03 248.63,54.02 249.02,54.02 249.42,54.02 249.82,54.03 250.21,54.03 250.61,54.03 251.01,54.02 251.4,54.02 251.8,54.02 252.2,54.02 252.59,54.02 252.99,54.02 253.39,54.02 253.78,54.02 254.18,54.02 254.57,54.02 254.97,54.02 255.37,54.02 255.76,54.02 256.16,54.02 256.56,54.02 256.95,54.02 257.35,54.02 257.75,54.02 258.14,54.03 258.54,54.03 258.94,54.03 259.33,54.03 259.73,54.03 260.13,54.02 260.52,54 260.92,53.98 261.32,53.97 261.71,53.97" stroke-dasharray="none" stroke="rgb(31,120,180)" stroke-width="0.75" opacity="1" stroke-opacity="1" fill="none"/>
          </g>
          <g id="Fig:densplot_01.xyplot.lines.group.12.panel.1.1.1">
            <polyline id="Fig:densplot_01.xyplot.lines.group.12.panel.1.1.1.1" points="59.2,53.99 59.6,54.62 59.99,60.76 60.39,87.54 60.79,144.06 61.18,196.11 61.58,199.78 61.97,173.17 62.37,146.93 62.77,128.2 63.16,115.21 63.56,105.8 63.95,98.83 64.35,93.42 64.75,88.96 65.14,85.35 65.54,82.33 65.94,79.83 66.33,77.83 66.73,76.03 67.12,74.29 67.52,72.69 67.92,71.37 68.31,70.3 68.71,69.32 69.1,68.3 69.5,67.37 69.9,66.57 70.29,65.82 70.69,65.13 71.08,64.51 71.48,63.92 71.88,63.41 72.27,62.97 72.67,62.55 73.06,62.15 73.46,61.76 73.86,61.44 74.25,61.14 74.65,60.82 75.04,60.5 75.44,60.17 75.84,59.91 76.23,59.71 76.63,59.51 77.03,59.32 77.42,59.13 77.82,58.89 78.21,58.66 78.61,58.48 79.01,58.35 79.4,58.25 79.8,58.13 80.19,58 80.59,57.86 80.99,57.77 81.38,57.68 81.78,57.54 82.17,57.39 82.57,57.29 82.97,57.21 83.36,57.1 83.76,56.98 84.15,56.89 84.55,56.81 84.95,56.75 85.34,56.7 85.74,56.61 86.13,56.5 86.53,56.4 86.93,56.32 87.32,56.27 87.72,56.23 88.12,56.19 88.51,56.15 88.91,56.1 89.3,56.06 89.7,56.02 90.1,55.98 90.49,55.94 90.89,55.89 91.28,55.85 91.68,55.79 92.08,55.72 92.47,55.67 92.87,55.63 93.26,55.6 93.66,55.58 94.06,55.55 94.45,55.5 94.85,55.45 95.24,55.43 95.64,55.41 96.04,55.37 96.43,55.34 96.83,55.31 97.22,55.26 97.62,55.21 98.02,55.2 98.41,55.19 98.81,55.16 99.21,55.16 99.6,55.16 100,55.15 100.39,55.14 100.79,55.12 101.19,55.09 101.58,55.07 101.98,55.05 102.37,55.01 102.77,54.97 103.17,54.95 103.56,54.94 103.96,54.94 104.35,54.92 104.75,54.9 105.15,54.89 105.54,54.89 105.94,54.87 106.33,54.85 106.73,54.83 107.13,54.81 107.52,54.79 107.92,54.77 108.31,54.76 108.71,54.76 109.11,54.75 109.5,54.72 109.9,54.71 110.3,54.7 110.69,54.69 111.09,54.69 111.48,54.68 111.88,54.68 112.28,54.67 112.67,54.65 113.07,54.64 113.46,54.63 113.86,54.61 114.26,54.58 114.65,54.57 115.05,54.57 115.44,54.57 115.84,54.56 116.24,54.55 116.63,54.54 117.03,54.55 117.42,54.55 117.82,54.53 118.22,54.51 118.61,54.5 119.01,54.49 119.4,54.49 119.8,54.49 120.2,54.48 120.59,54.48 120.99,54.48 121.39,54.47 121.78,54.45 122.18,54.45 122.57,54.46 122.97,54.47 123.37,54.45 123.76,54.44 124.16,54.43 124.55,54.42 124.95,54.41 125.35,54.4 125.74,54.39 126.14,54.38 126.53,54.37 126.93,54.38 127.33,54.38 127.72,54.38 128.12,54.38 128.51,54.38 128.91,54.37 129.31,54.36 129.7,54.35 130.1,54.35 130.49,54.36 130.89,54.36 131.29,54.36 131.68,54.34 132.08,54.34 132.48,54.33 132.87,54.32 133.27,54.31 133.66,54.3 134.06,54.3 134.46,54.31 134.85,54.3 135.25,54.3 135.64,54.29 136.04,54.27 136.44,54.27 136.83,54.28 137.23,54.28 137.62,54.27 138.02,54.26 138.42,54.26 138.81,54.26 139.21,54.25 139.6,54.25 140,54.26 140.4,54.26 140.79,54.25 141.19,54.23 141.58,54.23 141.98,54.25 142.38,54.26 142.77,54.25 143.17,54.24 143.57,54.24 143.96,54.24 144.36,54.24 144.75,54.24 145.15,54.24 145.55,54.24 145.94,54.23 146.34,54.22 146.73,54.21 147.13,54.2 147.53,54.2 147.92,54.2 148.32,54.2 148.71,54.2 149.11,54.2 149.51,54.19 149.9,54.19 150.3,54.18 150.69,54.18 151.09,54.17 151.49,54.18 151.88,54.19 152.28,54.19 152.67,54.18 153.07,54.17 153.47,54.17 153.86,54.16 154.26,54.16 154.66,54.16 155.05,54.17 155.45,54.17 155.84,54.17 156.24,54.17 156.64,54.16 157.03,54.15 157.43,54.15 157.82,54.16 158.22,54.17 158.62,54.17 159.01,54.15 159.41,54.14 159.8,54.14 160.2,54.15 160.6,54.14 160.99,54.13 161.39,54.13 161.78,54.12 162.18,54.13 162.58,54.14 162.97,54.14 163.37,54.14 163.77,54.13 164.16,54.13 164.56,54.14 164.95,54.13 165.35,54.14 165.75,54.14 166.14,54.13 166.54,54.12 166.93,54.11 167.33,54.12 167.73,54.13 168.12,54.13 168.52,54.13 168.91,54.12 169.31,54.12 169.71,54.12 170.1,54.12 170.5,54.12 170.89,54.11 171.29,54.11 171.69,54.1 172.08,54.1 172.48,54.1 172.87,54.11 173.27,54.11 173.67,54.11 174.06,54.1 174.46,54.1 174.86,54.1 175.25,54.09 175.65,54.09 176.04,54.09 176.44,54.1 176.84,54.11 177.23,54.11 177.63,54.1 178.02,54.1 178.42,54.1 178.82,54.1 179.21,54.1 179.61,54.09 180,54.09 180.4,54.09 180.8,54.09 181.19,54.1 181.59,54.1 181.98,54.1 182.38,54.1 182.78,54.09 183.17,54.09 183.57,54.09 183.96,54.1 184.36,54.09 184.76,54.09 185.15,54.09 185.55,54.08 185.95,54.08 186.34,54.07 186.74,54.07 187.13,54.07 187.53,54.07 187.93,54.07 188.32,54.07 188.72,54.08 189.11,54.08 189.51,54.07 189.91,54.06 190.3,54.06 190.7,54.06 191.09,54.06 191.49,54.07 191.89,54.06 192.28,54.06 192.68,54.06 193.07,54.06 193.47,54.07 193.87,54.07 194.26,54.07 194.66,54.06 195.05,54.07 195.45,54.07 195.85,54.07 196.24,54.07 196.64,54.07 197.04,54.07 197.43,54.07 197.83,54.06 198.22,54.06 198.62,54.06 199.02,54.05 199.41,54.06 199.81,54.06 200.2,54.06 200.6,54.06 201,54.06 201.39,54.06 201.79,54.06 202.18,54.06 202.58,54.05 202.98,54.05 203.37,54.05 203.77,54.05 204.16,54.05 204.56,54.05 204.96,54.05 205.35,54.05 205.75,54.05 206.14,54.06 206.54,54.06 206.94,54.05 207.33,54.05 207.73,54.04 208.13,54.04 208.52,54.04 208.92,54.05 209.31,54.05 209.71,54.05 210.11,54.05 210.5,54.05 210.9,54.05 211.29,54.05 211.69,54.05 212.09,54.05 212.48,54.05 212.88,54.05 213.27,54.05 213.67,54.04 214.07,54.04 214.46,54.04 214.86,54.04 215.25,54.04 215.65,54.04 216.05,54.04 216.44,54.05 216.84,54.04 217.23,54.04 217.63,54.03 218.03,54.04 218.42,54.04 218.82,54.04 219.22,54.04 219.61,54.03 220.01,54.03 220.4,54.04 220.8,54.04 221.2,54.04 221.59,54.04 221.99,54.04 222.38,54.04 222.78,54.04 223.18,54.03 223.57,54.03 223.97,54.03 224.36,54.03 224.76,54.03 225.16,54.04 225.55,54.03 225.95,54.03 226.34,54.03 226.74,54.03 227.14,54.03 227.53,54.03 227.93,54.03 228.32,54.03 228.72,54.03 229.12,54.03 229.51,54.03 229.91,54.03 230.31,54.03 230.7,54.03 231.1,54.04 231.49,54.03 231.89,54.03 232.29,54.03 232.68,54.03 233.08,54.03 233.47,54.04 233.87,54.04 234.27,54.04 234.66,54.03 235.06,54.03 235.45,54.03 235.85,54.03 236.25,54.03 236.64,54.03 237.04,54.03 237.43,54.03 237.83,54.03 238.23,54.02 238.62,54.02 239.02,54.02 239.41,54.02 239.81,54.02 240.21,54.02 240.6,54.03 241,54.03 241.4,54.02 241.79,54.02 242.19,54.02 242.58,54.01 242.98,54.02 243.38,54.02 243.77,54.02 244.17,54.02 244.56,54.02 244.96,54.02 245.36,54.02 245.75,54.02 246.15,54.02 246.54,54.02 246.94,54.02 247.34,54.02 247.73,54.02 248.13,54.02 248.52,54.01 248.92,54.02 249.32,54.03 249.71,54.02 250.11,54.02 250.5,54.02 250.9,54.02 251.3,54.02 251.69,54.02 252.09,54.01 252.49,54.01 252.88,54.01 253.28,54.01 253.67,54.01 254.07,54.01 254.47,54.01 254.86,54.01 255.26,54.02 255.65,54.02 256.05,54.02 256.45,54.01 256.84,54.01 257.24,54.01 257.63,54.01 258.03,54.01 258.43,54.02 258.82,54.01 259.22,54.01 259.61,54.02 260.01,54.02 260.41,54 260.8,53.98 261.2,53.97 261.59,53.97" stroke-dasharray="none" stroke="rgb(31,120,180)" stroke-width="0.75" opacity="1" stroke-opacity="1" fill="none"/>
          </g>
        </g>
        <g id="Fig:densplot_01.panel.1.1.off.vp.2">
          <g id="Fig:densplot_01.border.panel.1.1.1">
            <rect id="Fig:densplot_01.border.panel.1.1.1.1" x="44.8" y="42.19" width="231.2" height="191.81" transform="" stroke="rgb(0,0,0)" stroke-dasharray="none" stroke-width="0.75" opacity="1" fill="none" stroke-opacity="1" fill-opacity="0"/>
          </g>
        </g>
        <g id="Fig:densplot_01..1"/>
      </g>
    </g>
  </g>
</svg>