<?xml version="1.0" encoding="ISO8859-1"?>
<svg xmlns="http://www.w3.org/2000/svg" xmlns:xlink="http://www.w3.org/1999/xlink" width="288px" height="252px" viewBox="0 0 288 252" version="1.1" id="Fig:dens">
  <metadata xmlns:gridsvg="http://www.stat.auckland.ac.nz/~paul/R/gridSVG/">
    <gridsvg:generator name="gridSVG" version="1.7-1" time="2020-04-27 18:59:15"/>
    <gridsvg:argument name="name" value="./results/QCDir.Norm/dens.svg"/>
    <gridsvg:argument name="exportCoords" value="none"/>
    <gridsvg:argument name="exportMappings" value="none"/>
    <gridsvg:argument name="exportJS" value="none"/>
    <gridsvg:argument name="res" value="72"/>
    <gridsvg:argument name="prefix" value="Fig:dens"/>
    <gridsvg:argument name="addClasses" value="FALSE"/>
    <gridsvg:argument name="indent" value="TRUE"/>
    <gridsvg:argument name="htmlWrapper" value="FALSE"/>
    <gridsvg:argument name="usePaths" value="none"/>
    <gridsvg:argument name="uniqueNames" value="TRUE"/>
    <gridsvg:separator name="id.sep" value="."/>
    <gridsvg:separator name="gPath.sep" value="::"/>
    <gridsvg:separator name="vpPath.sep" value="::"/>
  </metadata>
  <g transform="translate(0, 252) scale(1, -1)">
    <g id="Fig:densgridSVG" fill="none" stroke="rgb(0,0,0)" stroke-dasharray="none" stroke-width="0.75" font-size="12" font-family="Helvetica, Arial, FreeSans, Liberation Sans, Nimbus Sans L, sans-serif" opacity="1" stroke-linecap="round" stroke-linejoin="round" stroke-miterlimit="10" stroke-opacity="1" fill-opacity="0" font-weight="normal" font-style="normal">
      <g id="Fig:densplot_01.background.1">
        <rect id="Fig:densplot_01.background.1.1" x="0" y="0" width="288" height="252" transform="" fill="none" stroke="none" stroke-opacity="0" fill-opacity="0"/>
      </g>
      <g id="Fig:densplot_01.toplevel.vp.1" font-size="12">
        <g id="Fig:densplot_01.ylab.vp.1">
          <g id="Fig:densplot_01.ylab.1">
            <g id="Fig:densplot_01.ylab.1.1" transform="translate(10.31, 138.09)" stroke-width="0.1">
              <g id="Fig:densplot_01.ylab.1.1.scale" transform="scale(1, -1)">
                <text x="0" y="0" id="Fig:densplot_01.ylab.1.1.text" transform="rotate(-90)" text-anchor="middle" opacity="1" stroke="rgb(0,0,0)" fill="rgb(0,0,0)" stroke-opacity="1" fill-opacity="1" font-size="12" font-weight="normal" font-style="normal">
                  <tspan id="Fig:densplot_01.ylab.1.1.tspan.1" dy="4.31" x="0">Density</tspan>
                </text>
              </g>
            </g>
          </g>
        </g>
        <g id="Fig:densplot_01.figure.vp.1"/>
        <defs>
          <clipPath id="Fig:densplot_01.panel.1.1.vp.1.clipPath">
            <rect x="44.8" y="42.19" width="231.2" height="191.81" fill="none" stroke="none"/>
          </clipPath>
        </defs>
        <g id="Fig:densplot_01.panel.1.1.vp.1" clip-path="url(#Fig:densplot_01.panel.1.1.vp.1.clipPath)"/>
        <g id="Fig:densplot_01.strip.1.1.off.vp.1"/>
        <g id="Fig:densplot_01.strip.left.1.1.off.vp.1">
          <g id="Fig:densplot_01.ticks.left.panel.1.1.1">
            <polyline id="Fig:densplot_01.ticks.left.panel.1.1.1.1" points="44.8,53.95 39.13,53.95" stroke="rgb(0,0,0)" opacity="1" stroke-dasharray="none" stroke-width="0.75" stroke-opacity="1" fill="none"/>
            <polyline id="Fig:densplot_01.ticks.left.panel.1.1.1.2" points="44.8,102.94 39.13,102.94" stroke="rgb(0,0,0)" opacity="1" stroke-dasharray="none" stroke-width="0.75" stroke-opacity="1" fill="none"/>
            <polyline id="Fig:densplot_01.ticks.left.panel.1.1.1.3" points="44.8,151.93 39.13,151.93" stroke="rgb(0,0,0)" opacity="1" stroke-dasharray="none" stroke-width="0.75" stroke-opacity="1" fill="none"/>
            <polyline id="Fig:densplot_01.ticks.left.panel.1.1.1.4" points="44.8,200.91 39.13,200.91" stroke="rgb(0,0,0)" opacity="1" stroke-dasharray="none" stroke-width="0.75" stroke-opacity="1" fill="none"/>
          </g>
          <g id="Fig:densplot_01.ticklabels.left.panel.1.1.1">
            <g id="Fig:densplot_01.ticklabels.left.panel.1.1.1.1" transform="translate(33.47, 53.95)" stroke-width="0.1">
              <g id="Fig:densplot_01.ticklabels.left.panel.1.1.1.1.scale" transform="scale(1, -1)">
                <text x="0" y="0" id="Fig:densplot_01.ticklabels.left.panel.1.1.1.1.text" transform="rotate(-90)" text-anchor="middle" stroke="rgb(0,0,0)" opacity="1" fill="rgb(0,0,0)" stroke-opacity="1" fill-opacity="1" font-size="9.6" font-weight="normal" font-style="normal">
                  <tspan id="Fig:densplot_01.ticklabels.left.panel.1.1.1.1.tspan.1" dy="0" x="0">0.00</tspan>
                </text>
              </g>
            </g>
            <g id="Fig:densplot_01.ticklabels.left.panel.1.1.1.2" transform="translate(33.47, 102.94)" stroke-width="0.1">
              <g id="Fig:densplot_01.ticklabels.left.panel.1.1.1.2.scale" transform="scale(1, -1)">
                <text x="0" y="0" id="Fig:densplot_01.ticklabels.left.panel.1.1.1.2.text" transform="rotate(-90)" text-anchor="middle" stroke="rgb(0,0,0)" opacity="1" fill="rgb(0,0,0)" stroke-opacity="1" fill-opacity="1" font-size="9.6" font-weight="normal" font-style="normal">
                  <tspan id="Fig:densplot_01.ticklabels.left.panel.1.1.1.2.tspan.1" dy="0" x="0">0.05</tspan>
                </text>
              </g>
            </g>
            <g id="Fig:densplot_01.ticklabels.left.panel.1.1.1.3" transform="translate(33.47, 151.93)" stroke-width="0.1">
              <g id="Fig:densplot_01.ticklabels.left.panel.1.1.1.3.scale" transform="scale(1, -1)">
                <text x="0" y="0" id="Fig:densplot_01.ticklabels.left.panel.1.1.1.3.text" transform="rotate(-90)" text-anchor="middle" stroke="rgb(0,0,0)" opacity="1" fill="rgb(0,0,0)" stroke-opacity="1" fill-opacity="1" font-size="9.6" font-weight="normal" font-style="normal">
                  <tspan id="Fig:densplot_01.ticklabels.left.panel.1.1.1.3.tspan.1" dy="0" x="0">0.10</tspan>
                </text>
              </g>
            </g>
            <g id="Fig:densplot_01.ticklabels.left.panel.1.1.1.4" transform="translate(33.47, 200.91)" stroke-width="0.1">
              <g id="Fig:densplot_01.ticklabels.left.panel.1.1.1.4.scale" transform="scale(1, -1)">
                <text x="0" y="0" id="Fig:densplot_01.ticklabels.left.panel.1.1.1.4.text" transform="rotate(-90)" text-anchor="middle" stroke="rgb(0,0,0)" opacity="1" fill="rgb(0,0,0)" stroke-opacity="1" fill-opacity="1" font-size="9.6" font-weight="normal" font-style="normal">
                  <tspan id="Fig:densplot_01.ticklabels.left.panel.1.1.1.4.tspan.1" dy="0" x="0">0.15</tspan>
                </text>
              </g>
            </g>
          </g>
        </g>
        <g id="Fig:densplot_01.panel.1.1.off.vp.1">
          <g id="Fig:densplot_01.ticks.bottom.panel.1.1.1">
            <polyline id="Fig:densplot_01.ticks.bottom.panel.1.1.1.1" points="76.83,42.19 76.83,36.52" stroke="rgb(0,0,0)" opacity="1" stroke-dasharray="none" stroke-width="0.75" stroke-opacity="1" fill="none"/>
            <polyline id="Fig:densplot_01.ticks.bottom.panel.1.1.1.2" points="112.63,42.19 112.63,36.52" stroke="rgb(0,0,0)" opacity="1" stroke-dasharray="none" stroke-width="0.75" stroke-opacity="1" fill="none"/>
            <polyline id="Fig:densplot_01.ticks.bottom.panel.1.1.1.3" points="148.44,42.19 148.44,36.52" stroke="rgb(0,0,0)" opacity="1" stroke-dasharray="none" stroke-width="0.75" stroke-opacity="1" fill="none"/>
            <polyline id="Fig:densplot_01.ticks.bottom.panel.1.1.1.4" points="184.24,42.19 184.24,36.52" stroke="rgb(0,0,0)" opacity="1" stroke-dasharray="none" stroke-width="0.75" stroke-opacity="1" fill="none"/>
            <polyline id="Fig:densplot_01.ticks.bottom.panel.1.1.1.5" points="220.05,42.19 220.05,36.52" stroke="rgb(0,0,0)" opacity="1" stroke-dasharray="none" stroke-width="0.75" stroke-opacity="1" fill="none"/>
            <polyline id="Fig:densplot_01.ticks.bottom.panel.1.1.1.6" points="255.85,42.19 255.85,36.52" stroke="rgb(0,0,0)" opacity="1" stroke-dasharray="none" stroke-width="0.75" stroke-opacity="1" fill="none"/>
          </g>
          <g id="Fig:densplot_01.ticklabels.bottom.panel.1.1.1">
            <g id="Fig:densplot_01.ticklabels.bottom.panel.1.1.1.1" transform="translate(76.83, 30.85)" stroke-width="0.1">
              <g id="Fig:densplot_01.ticklabels.bottom.panel.1.1.1.1.scale" transform="scale(1, -1)">
                <text x="0" y="0" id="Fig:densplot_01.ticklabels.bottom.panel.1.1.1.1.text" text-anchor="middle" stroke="rgb(0,0,0)" opacity="1" fill="rgb(0,0,0)" stroke-opacity="1" fill-opacity="1" font-size="9.6" font-weight="normal" font-style="normal">
                  <tspan id="Fig:densplot_01.ticklabels.bottom.panel.1.1.1.1.tspan.1" dy="7.18" x="0">2</tspan>
                </text>
              </g>
            </g>
            <g id="Fig:densplot_01.ticklabels.bottom.panel.1.1.1.2" transform="translate(112.63, 30.85)" stroke-width="0.1">
              <g id="Fig:densplot_01.ticklabels.bottom.panel.1.1.1.2.scale" transform="scale(1, -1)">
                <text x="0" y="0" id="Fig:densplot_01.ticklabels.bottom.panel.1.1.1.2.text" text-anchor="middle" stroke="rgb(0,0,0)" opacity="1" fill="rgb(0,0,0)" stroke-opacity="1" fill-opacity="1" font-size="9.6" font-weight="normal" font-style="normal">
                  <tspan id="Fig:densplot_01.ticklabels.bottom.panel.1.1.1.2.tspan.1" dy="7.18" x="0">4</tspan>
                </text>
              </g>
            </g>
            <g id="Fig:densplot_01.ticklabels.bottom.panel.1.1.1.3" transform="translate(148.44, 30.85)" stroke-width="0.1">
              <g id="Fig:densplot_01.ticklabels.bottom.panel.1.1.1.3.scale" transform="scale(1, -1)">
                <text x="0" y="0" id="Fig:densplot_01.ticklabels.bottom.panel.1.1.1.3.text" text-anchor="middle" stroke="rgb(0,0,0)" opacity="1" fill="rgb(0,0,0)" stroke-opacity="1" fill-opacity="1" font-size="9.6" font-weight="normal" font-style="normal">
                  <tspan id="Fig:densplot_01.ticklabels.bottom.panel.1.1.1.3.tspan.1" dy="7.18" x="0">6</tspan>
                </text>
              </g>
            </g>
            <g id="Fig:densplot_01.ticklabels.bottom.panel.1.1.1.4" transform="translate(184.24, 30.85)" stroke-width="0.1">
              <g id="Fig:densplot_01.ticklabels.bottom.panel.1.1.1.4.scale" transform="scale(1, -1)">
                <text x="0" y="0" id="Fig:densplot_01.ticklabels.bottom.panel.1.1.1.4.text" text-anchor="middle" stroke="rgb(0,0,0)" opacity="1" fill="rgb(0,0,0)" stroke-opacity="1" fill-opacity="1" font-size="9.6" font-weight="normal" font-style="normal">
                  <tspan id="Fig:densplot_01.ticklabels.bottom.panel.1.1.1.4.tspan.1" dy="7.18" x="0">8</tspan>
                </text>
              </g>
            </g>
            <g id="Fig:densplot_01.ticklabels.bottom.panel.1.1.1.5" transform="translate(220.05, 30.85)" stroke-width="0.1">
              <g id="Fig:densplot_01.ticklabels.bottom.panel.1.1.1.5.scale" transform="scale(1, -1)">
                <text x="0" y="0" id="Fig:densplot_01.ticklabels.bottom.panel.1.1.1.5.text" text-anchor="middle" stroke="rgb(0,0,0)" opacity="1" fill="rgb(0,0,0)" stroke-opacity="1" fill-opacity="1" font-size="9.6" font-weight="normal" font-style="normal">
                  <tspan id="Fig:densplot_01.ticklabels.bottom.panel.1.1.1.5.tspan.1" dy="7.18" x="0">10</tspan>
                </text>
              </g>
            </g>
            <g id="Fig:densplot_01.ticklabels.bottom.panel.1.1.1.6" transform="translate(255.85, 30.85)" stroke-width="0.1">
              <g id="Fig:densplot_01.ticklabels.bottom.panel.1.1.1.6.scale" transform="scale(1, -1)">
                <text x="0" y="0" id="Fig:densplot_01.ticklabels.bottom.panel.1.1.1.6.text" text-anchor="middle" stroke="rgb(0,0,0)" opacity="1" fill="rgb(0,0,0)" stroke-opacity="1" fill-opacity="1" font-size="9.6" font-weight="normal" font-style="normal">
                  <tspan id="Fig:densplot_01.ticklabels.bottom.panel.1.1.1.6.tspan.1" dy="7.18" x="0">12</tspan>
                </text>
              </g>
            </g>
          </g>
        </g>
        <defs>
          <clipPath id="Fig:densplot_01.panel.1.1.vp.2.clipPath">
            <rect x="44.8" y="42.19" width="231.2" height="191.81" fill="none" stroke="none"/>
          </clipPath>
        </defs>
        <g id="Fig:densplot_01.panel.1.1.vp.2" clip-path="url(#Fig:densplot_01.panel.1.1.vp.2.clipPath)">
          <g id="Fig:densplot_01.xyplot.lines.group.1.panel.1.1.1">
            <polyline id="Fig:densplot_01.xyplot.lines.group.1.panel.1.1.1.1" points="59.07,53.98 59.47,53.99 59.87,54 60.26,54.02 60.66,54.04 61.06,54.07 61.45,54.1 61.85,54.15 62.25,54.2 62.64,54.27 63.04,54.36 63.44,54.47 63.83,54.61 64.23,54.78 64.63,54.99 65.02,55.24 65.42,55.54 65.82,55.9 66.21,56.32 66.61,56.82 67,57.43 67.4,58.13 67.8,58.94 68.19,59.88 68.59,60.94 68.99,62.15 69.38,63.54 69.78,65.12 70.18,66.88 70.57,68.84 70.97,71.01 71.37,73.38 71.76,75.98 72.16,78.85 72.56,81.95 72.95,85.27 73.35,88.83 73.75,92.6 74.14,96.59 74.54,100.8 74.94,105.22 75.33,109.81 75.73,114.55 76.13,119.42 76.52,124.4 76.92,129.46 77.32,134.58 77.71,139.72 78.11,144.86 78.51,149.95 78.9,154.99 79.3,159.94 79.7,164.76 80.09,169.42 80.49,173.91 80.88,178.21 81.28,182.3 81.68,186.18 82.07,189.82 82.47,193.18 82.87,196.28 83.26,199.13 83.66,201.72 84.06,204.05 84.45,206.14 84.85,207.98 85.25,209.54 85.64,210.87 86.04,212 86.44,212.93 86.83,213.67 87.23,214.23 87.63,214.62 88.02,214.85 88.42,214.96 88.82,214.95 89.21,214.85 89.61,214.66 90.01,214.39 90.4,214.04 90.8,213.65 91.2,213.21 91.59,212.75 91.99,212.25 92.39,211.73 92.78,211.2 93.18,210.66 93.58,210.12 93.97,209.57 94.37,209.02 94.77,208.48 95.16,207.94 95.56,207.42 95.95,206.89 96.35,206.38 96.75,205.88 97.14,205.38 97.54,204.89 97.94,204.41 98.33,203.93 98.73,203.46 99.13,203 99.52,202.53 99.92,202.07 100.32,201.61 100.71,201.14 101.11,200.67 101.51,200.19 101.9,199.71 102.3,199.22 102.7,198.71 103.09,198.2 103.49,197.68 103.89,197.14 104.28,196.6 104.68,196.05 105.08,195.48 105.47,194.91 105.87,194.34 106.27,193.76 106.66,193.18 107.06,192.6 107.46,192.03 107.85,191.46 108.25,190.9 108.65,190.35 109.04,189.82 109.44,189.31 109.83,188.81 110.23,188.34 110.63,187.89 111.02,187.47 111.42,187.08 111.82,186.72 112.21,186.39 112.61,186.09 113.01,185.82 113.4,185.59 113.8,185.4 114.2,185.24 114.59,185.11 114.99,185.02 115.39,184.96 115.78,184.92 116.18,184.92 116.58,184.95 116.97,185.01 117.37,185.09 117.77,185.18 118.16,185.3 118.56,185.44 118.96,185.59 119.35,185.75 119.75,185.93 120.15,186.11 120.54,186.3 120.94,186.5 121.34,186.71 121.73,186.92 122.13,187.13 122.53,187.35 122.92,187.58 123.32,187.81 123.72,188.04 124.11,188.28 124.51,188.53 124.9,188.79 125.3,189.06 125.7,189.33 126.09,189.62 126.49,189.91 126.89,190.22 127.28,190.53 127.68,190.85 128.08,191.17 128.47,191.5 128.87,191.82 129.27,192.15 129.66,192.47 130.06,192.78 130.46,193.07 130.85,193.36 131.25,193.62 131.65,193.86 132.04,194.08 132.44,194.26 132.84,194.41 133.23,194.53 133.63,194.62 134.03,194.67 134.42,194.69 134.82,194.67 135.22,194.62 135.61,194.54 136.01,194.43 136.41,194.29 136.8,194.13 137.2,193.96 137.6,193.76 137.99,193.56 138.39,193.35 138.79,193.13 139.18,192.92 139.58,192.71 139.97,192.51 140.37,192.32 140.77,192.14 141.16,191.97 141.56,191.81 141.96,191.67 142.35,191.54 142.75,191.43 143.15,191.32 143.54,191.23 143.94,191.14 144.34,191.06 144.73,190.98 145.13,190.9 145.53,190.82 145.92,190.73 146.32,190.64 146.72,190.55 147.11,190.44 147.51,190.33 147.91,190.21 148.3,190.08 148.7,189.95 149.1,189.81 149.49,189.67 149.89,189.52 150.29,189.37 150.68,189.22 151.08,189.07 151.48,188.92 151.87,188.78 152.27,188.64 152.67,188.49 153.06,188.35 153.46,188.21 153.85,188.07 154.25,187.93 154.65,187.78 155.04,187.63 155.44,187.46 155.84,187.29 156.23,187.11 156.63,186.91 157.03,186.7 157.42,186.48 157.82,186.24 158.22,185.99 158.61,185.72 159.01,185.45 159.41,185.16 159.8,184.86 160.2,184.55 160.6,184.23 160.99,183.92 161.39,183.6 161.79,183.28 162.18,182.97 162.58,182.67 162.98,182.37 163.37,182.09 163.77,181.83 164.17,181.58 164.56,181.34 164.96,181.13 165.36,180.93 165.75,180.76 166.15,180.61 166.55,180.47 166.94,180.35 167.34,180.25 167.74,180.16 168.13,180.08 168.53,180.01 168.92,179.94 169.32,179.88 169.72,179.81 170.11,179.74 170.51,179.65 170.91,179.56 171.3,179.44 171.7,179.3 172.1,179.14 172.49,178.95 172.89,178.74 173.29,178.49 173.68,178.2 174.08,177.87 174.48,177.51 174.87,177.11 175.27,176.67 175.67,176.19 176.06,175.67 176.46,175.1 176.86,174.49 177.25,173.85 177.65,173.17 178.05,172.46 178.44,171.71 178.84,170.94 179.24,170.13 179.63,169.3 180.03,168.45 180.43,167.59 180.82,166.71 181.22,165.82 181.62,164.92 182.01,164.01 182.41,163.11 182.81,162.2 183.2,161.3 183.6,160.4 183.99,159.5 184.39,158.61 184.79,157.73 185.18,156.85 185.58,155.98 185.98,155.11 186.37,154.25 186.77,153.38 187.17,152.52 187.56,151.66 187.96,150.78 188.36,149.91 188.75,149.02 189.15,148.12 189.55,147.2 189.94,146.27 190.34,145.31 190.74,144.34 191.13,143.34 191.53,142.33 191.93,141.28 192.32,140.22 192.72,139.13 193.12,138.02 193.51,136.89 193.91,135.75 194.31,134.59 194.7,133.41 195.1,132.23 195.5,131.04 195.89,129.84 196.29,128.64 196.69,127.45 197.08,126.26 197.48,125.08 197.87,123.91 198.27,122.75 198.67,121.61 199.06,120.47 199.46,119.36 199.86,118.27 200.25,117.19 200.65,116.14 201.05,115.1 201.44,114.08 201.84,113.09 202.24,112.11 202.63,111.15 203.03,110.21 203.43,109.29 203.82,108.39 204.22,107.51 204.62,106.64 205.01,105.79 205.41,104.95 205.81,104.13 206.2,103.32 206.6,102.53 207,101.75 207.39,100.99 207.79,100.24 208.19,99.51 208.58,98.79 208.98,98.08 209.38,97.39 209.77,96.72 210.17,96.06 210.57,95.42 210.96,94.8 211.36,94.19 211.76,93.61 212.15,93.04 212.55,92.49 212.94,91.97 213.34,91.46 213.74,90.98 214.13,90.51 214.53,90.07 214.93,89.64 215.32,89.23 215.72,88.84 216.12,88.46 216.51,88.1 216.91,87.75 217.31,87.4 217.7,87.06 218.1,86.73 218.5,86.4 218.89,86.06 219.29,85.72 219.69,85.38 220.08,85.02 220.48,84.66 220.88,84.29 221.27,83.9 221.67,83.5 222.07,83.09 222.46,82.67 222.86,82.24 223.26,81.8 223.65,81.34 224.05,80.89 224.45,80.42 224.84,79.96 225.24,79.5 225.64,79.03 226.03,78.58 226.43,78.13 226.83,77.69 227.22,77.27 227.62,76.85 228.01,76.46 228.41,76.08 228.81,75.71 229.2,75.37 229.6,75.04 230,74.73 230.39,74.44 230.79,74.16 231.19,73.9 231.58,73.65 231.98,73.42 232.38,73.19 232.77,72.98 233.17,72.77 233.57,72.57 233.96,72.38 234.36,72.19 234.76,72 235.15,71.81 235.55,71.62 235.95,71.43 236.34,71.24 236.74,71.04 237.14,70.84 237.53,70.63 237.93,70.42 238.33,70.2 238.72,69.97 239.12,69.73 239.52,69.47 239.91,69.21 240.31,68.94 240.71,68.65 241.1,68.34 241.5,68.02 241.89,67.69 242.29,67.33 242.69,66.96 243.08,66.57 243.48,66.17 243.88,65.75 244.27,65.3 244.67,64.85 245.07,64.37 245.46,63.89 245.86,63.39 246.26,62.89 246.65,62.38 247.05,61.87 247.45,61.36 247.84,60.85 248.24,60.34 248.64,59.85 249.03,59.36 249.43,58.9 249.83,58.45 250.22,58.02 250.62,57.61 251.02,57.23 251.41,56.86 251.81,56.53 252.21,56.22 252.6,55.94 253,55.68 253.4,55.45 253.79,55.24 254.19,55.05 254.59,54.88 254.98,54.74 255.38,54.61 255.78,54.5 256.17,54.41 256.57,54.33 256.96,54.26 257.36,54.2 257.76,54.15 258.15,54.11 258.55,54.08 258.95,54.05 259.34,54.03 259.74,54.01 260.14,54 260.53,53.99 260.93,53.98 261.33,53.97 261.72,53.97" stroke-dasharray="none" stroke="rgb(31,120,180)" stroke-width="0.75" opacity="1" stroke-opacity="1" fill="none"/>
          </g>
          <g id="Fig:densplot_01.xyplot.lines.group.2.panel.1.1.1">
            <polyline id="Fig:densplot_01.xyplot.lines.group.2.panel.1.1.1.1" points="59.15,53.98 59.55,53.99 59.94,54 60.34,54.01 60.74,54.03 61.13,54.05 61.53,54.09 61.93,54.13 62.32,54.18 62.72,54.24 63.11,54.32 63.51,54.41 63.91,54.53 64.3,54.68 64.7,54.86 65.1,55.07 65.49,55.33 65.89,55.64 66.29,56 66.68,56.43 67.08,56.95 67.48,57.54 67.87,58.24 68.27,59.03 68.66,59.94 69.06,60.98 69.46,62.19 69.85,63.54 70.25,65.07 70.65,66.76 71.04,68.64 71.44,70.72 71.84,73.01 72.23,75.54 72.63,78.29 73.03,81.25 73.42,84.44 73.82,87.84 74.21,91.47 74.61,95.33 75.01,99.41 75.4,103.67 75.8,108.1 76.2,112.69 76.59,117.42 76.99,122.27 77.39,127.23 77.78,132.25 78.18,137.31 78.58,142.37 78.97,147.43 79.37,152.45 79.76,157.4 80.16,162.24 80.56,166.96 80.95,171.54 81.35,175.96 81.75,180.21 82.14,184.27 82.54,188.07 82.94,191.66 83.33,195.03 83.73,198.16 84.13,201.06 84.52,203.73 84.92,206.15 85.31,208.3 85.71,210.24 86.11,211.96 86.5,213.46 86.9,214.77 87.3,215.88 87.69,216.77 88.09,217.5 88.49,218.06 88.88,218.48 89.28,218.76 89.68,218.91 90.07,218.94 90.47,218.86 90.86,218.69 91.26,218.44 91.66,218.12 92.05,217.73 92.45,217.29 92.85,216.8 93.24,216.27 93.64,215.7 94.04,215.1 94.43,214.48 94.83,213.84 95.23,213.17 95.62,212.49 96.02,211.78 96.42,211.07 96.81,210.34 97.21,209.59 97.6,208.83 98,208.06 98.4,207.27 98.79,206.48 99.19,205.68 99.59,204.87 99.98,204.07 100.38,203.26 100.78,202.46 101.17,201.67 101.57,200.89 101.97,200.13 102.36,199.38 102.76,198.67 103.15,197.98 103.55,197.32 103.95,196.69 104.34,196.1 104.74,195.55 105.14,195.02 105.53,194.53 105.93,194.08 106.33,193.66 106.72,193.27 107.12,192.91 107.52,192.57 107.91,192.25 108.31,191.95 108.7,191.67 109.1,191.4 109.5,191.15 109.89,190.9 110.29,190.66 110.69,190.43 111.08,190.2 111.48,189.98 111.88,189.77 112.27,189.57 112.67,189.37 113.07,189.19 113.46,189.01 113.86,188.85 114.25,188.7 114.65,188.57 115.05,188.45 115.44,188.34 115.84,188.26 116.24,188.19 116.63,188.14 117.03,188.11 117.43,188.1 117.82,188.1 118.22,188.12 118.62,188.15 119.01,188.2 119.41,188.26 119.8,188.34 120.2,188.42 120.6,188.51 120.99,188.6 121.39,188.7 121.79,188.81 122.18,188.92 122.58,189.04 122.98,189.16 123.37,189.28 123.77,189.4 124.17,189.52 124.56,189.65 124.96,189.78 125.35,189.91 125.75,190.05 126.15,190.2 126.54,190.34 126.94,190.5 127.34,190.66 127.73,190.83 128.13,191.01 128.53,191.2 128.92,191.39 129.32,191.59 129.72,191.8 130.11,192.01 130.51,192.23 130.91,192.44 131.3,192.66 131.7,192.87 132.09,193.08 132.49,193.27 132.89,193.46 133.28,193.63 133.68,193.78 134.08,193.91 134.47,194.02 134.87,194.1 135.27,194.16 135.66,194.19 136.06,194.19 136.46,194.17 136.85,194.11 137.25,194.03 137.64,193.92 138.04,193.78 138.44,193.62 138.83,193.44 139.23,193.24 139.63,193.01 140.02,192.77 140.42,192.51 140.82,192.23 141.21,191.94 141.61,191.64 142.01,191.32 142.4,190.99 142.8,190.64 143.19,190.28 143.59,189.91 143.99,189.54 144.38,189.15 144.78,188.76 145.18,188.36 145.57,187.96 145.97,187.56 146.37,187.16 146.76,186.77 147.16,186.4 147.56,186.04 147.95,185.7 148.35,185.39 148.74,185.11 149.14,184.86 149.54,184.65 149.93,184.47 150.33,184.34 150.73,184.25 151.12,184.2 151.52,184.18 151.92,184.2 152.31,184.25 152.71,184.33 153.11,184.43 153.5,184.54 153.9,184.66 154.29,184.79 154.69,184.91 155.09,185.03 155.48,185.12 155.88,185.2 156.28,185.24 156.67,185.27 157.07,185.26 157.47,185.21 157.86,185.14 158.26,185.02 158.66,184.88 159.05,184.7 159.45,184.5 159.84,184.27 160.24,184.02 160.64,183.76 161.03,183.48 161.43,183.19 161.83,182.9 162.22,182.61 162.62,182.32 163.02,182.04 163.41,181.77 163.81,181.52 164.21,181.29 164.6,181.07 165,180.87 165.4,180.68 165.79,180.52 166.19,180.39 166.58,180.27 166.98,180.16 167.38,180.07 167.77,180 168.17,179.94 168.57,179.88 168.96,179.84 169.36,179.79 169.76,179.75 170.15,179.71 170.55,179.66 170.95,179.61 171.34,179.55 171.74,179.48 172.13,179.39 172.53,179.3 172.93,179.18 173.32,179.06 173.72,178.91 174.12,178.74 174.51,178.55 174.91,178.33 175.31,178.09 175.7,177.83 176.1,177.54 176.5,177.21 176.89,176.84 177.29,176.44 177.68,176 178.08,175.53 178.48,175.01 178.87,174.45 179.27,173.83 179.67,173.17 180.06,172.47 180.46,171.72 180.86,170.92 181.25,170.08 181.65,169.19 182.05,168.26 182.44,167.29 182.84,166.29 183.23,165.25 183.63,164.2 184.03,163.11 184.42,162.01 184.82,160.9 185.22,159.78 185.61,158.65 186.01,157.52 186.41,156.39 186.8,155.26 187.2,154.14 187.6,153.03 187.99,151.92 188.39,150.83 188.78,149.74 189.18,148.65 189.58,147.58 189.97,146.51 190.37,145.45 190.77,144.38 191.16,143.32 191.56,142.26 191.96,141.2 192.35,140.14 192.75,139.07 193.15,138 193.54,136.93 193.94,135.85 194.33,134.76 194.73,133.66 195.13,132.56 195.52,131.46 195.92,130.35 196.32,129.23 196.71,128.11 197.11,126.99 197.51,125.86 197.9,124.73 198.3,123.6 198.7,122.48 199.09,121.35 199.49,120.23 199.89,119.12 200.28,118.01 200.68,116.92 201.07,115.84 201.47,114.77 201.87,113.72 202.26,112.68 202.66,111.67 203.06,110.68 203.45,109.71 203.85,108.77 204.25,107.85 204.64,106.95 205.04,106.07 205.44,105.23 205.83,104.4 206.23,103.6 206.62,102.82 207.02,102.06 207.42,101.32 207.81,100.6 208.21,99.9 208.61,99.22 209,98.54 209.4,97.89 209.8,97.24 210.19,96.61 210.59,95.99 210.99,95.38 211.38,94.79 211.78,94.21 212.17,93.63 212.57,93.08 212.97,92.53 213.36,92 213.76,91.49 214.16,90.98 214.55,90.5 214.95,90.02 215.35,89.56 215.74,89.12 216.14,88.69 216.54,88.28 216.93,87.87 217.33,87.48 217.72,87.09 218.12,86.71 218.52,86.34 218.91,85.97 219.31,85.61 219.71,85.24 220.1,84.87 220.5,84.49 220.9,84.11 221.29,83.72 221.69,83.32 222.09,82.9 222.48,82.48 222.88,82.05 223.27,81.6 223.67,81.14 224.07,80.68 224.46,80.2 224.86,79.72 225.26,79.24 225.65,78.76 226.05,78.28 226.45,77.8 226.84,77.33 227.24,76.87 227.64,76.43 228.03,76 228.43,75.59 228.82,75.2 229.22,74.83 229.62,74.48 230.01,74.15 230.41,73.85 230.81,73.56 231.2,73.3 231.6,73.06 232,72.84 232.39,72.63 232.79,72.44 233.19,72.25 233.58,72.08 233.98,71.92 234.38,71.76 234.77,71.61 235.17,71.46 235.56,71.3 235.96,71.14 236.36,70.98 236.75,70.82 237.15,70.64 237.55,70.46 237.94,70.27 238.34,70.07 238.74,69.85 239.13,69.63 239.53,69.39 239.93,69.13 240.32,68.86 240.72,68.58 241.11,68.28 241.51,67.97 241.91,67.63 242.3,67.28 242.7,66.91 243.1,66.52 243.49,66.12 243.89,65.7 244.29,65.26 244.68,64.81 245.08,64.35 245.48,63.87 245.87,63.38 246.27,62.89 246.66,62.39 247.06,61.88 247.46,61.38 247.85,60.88 248.25,60.39 248.65,59.9 249.04,59.42 249.44,58.96 249.84,58.52 250.23,58.09 250.63,57.69 251.03,57.3 251.42,56.94 251.82,56.6 252.21,56.29 252.61,56.01 253.01,55.75 253.4,55.51 253.8,55.29 254.2,55.1 254.59,54.93 254.99,54.78 255.39,54.65 255.78,54.53 256.18,54.44 256.58,54.35 256.97,54.28 257.37,54.22 257.76,54.17 258.16,54.13 258.56,54.09 258.95,54.06 259.35,54.04 259.75,54.02 260.14,54 260.54,53.99 260.94,53.98 261.33,53.98 261.73,53.97" stroke-dasharray="none" stroke="rgb(31,120,180)" stroke-width="0.75" opacity="1" stroke-opacity="1" fill="none"/>
          </g>
          <g id="Fig:densplot_01.xyplot.lines.group.3.panel.1.1.1">
            <polyline id="Fig:densplot_01.xyplot.lines.group.3.panel.1.1.1.1" points="59.08,53.98 59.48,53.99 59.87,54 60.27,54.02 60.67,54.04 61.06,54.07 61.46,54.11 61.86,54.16 62.25,54.22 62.65,54.29 63.05,54.38 63.44,54.49 63.84,54.63 64.24,54.8 64.63,55.01 65.03,55.26 65.43,55.56 65.82,55.92 66.22,56.34 66.62,56.83 67.01,57.41 67.41,58.1 67.81,58.89 68.2,59.8 68.6,60.84 69,62.01 69.39,63.34 69.79,64.86 70.19,66.56 70.58,68.45 70.98,70.53 71.38,72.82 71.77,75.32 72.17,78.06 72.57,81.05 72.96,84.27 73.36,87.7 73.76,91.36 74.15,95.22 74.55,99.3 74.95,103.61 75.34,108.1 75.74,112.75 76.14,117.54 76.53,122.45 76.93,127.46 77.33,132.56 77.72,137.71 78.12,142.87 78.52,148.02 78.91,153.14 79.31,158.2 79.71,163.17 80.1,168.02 80.5,172.73 80.9,177.28 81.29,181.65 81.69,185.85 82.09,189.84 82.48,193.6 82.88,197.11 83.28,200.39 83.67,203.44 84.07,206.25 84.47,208.82 84.86,211.16 85.26,213.23 85.66,215.06 86.05,216.67 86.45,218.06 86.85,219.24 87.24,220.22 87.64,220.99 88.04,221.55 88.43,221.94 88.83,222.16 89.23,222.22 89.62,222.14 90.02,221.93 90.42,221.57 90.81,221.1 91.21,220.53 91.61,219.87 92,219.13 92.4,218.32 92.8,217.46 93.19,216.54 93.59,215.59 93.99,214.61 94.38,213.61 94.78,212.6 95.18,211.59 95.57,210.59 95.97,209.59 96.37,208.61 96.76,207.64 97.16,206.69 97.56,205.77 97.95,204.87 98.35,204.01 98.75,203.17 99.14,202.35 99.54,201.57 99.94,200.81 100.33,200.08 100.73,199.38 101.13,198.71 101.52,198.06 101.92,197.44 102.32,196.85 102.71,196.29 103.11,195.74 103.51,195.23 103.9,194.74 104.3,194.28 104.7,193.83 105.09,193.41 105.49,193.01 105.89,192.62 106.28,192.25 106.68,191.9 107.08,191.56 107.47,191.24 107.87,190.92 108.27,190.61 108.66,190.31 109.06,190.02 109.46,189.73 109.85,189.45 110.25,189.17 110.65,188.9 111.04,188.64 111.44,188.38 111.84,188.12 112.23,187.88 112.63,187.64 113.03,187.42 113.42,187.2 113.82,187 114.22,186.81 114.61,186.64 115.01,186.48 115.41,186.33 115.8,186.2 116.2,186.09 116.6,185.99 116.99,185.91 117.39,185.84 117.79,185.78 118.18,185.74 118.58,185.7 118.98,185.68 119.37,185.67 119.77,185.67 120.17,185.68 120.56,185.7 120.96,185.72 121.36,185.75 121.75,185.79 122.15,185.85 122.55,185.91 122.94,185.98 123.34,186.07 123.74,186.17 124.13,186.29 124.53,186.43 124.93,186.59 125.32,186.77 125.72,186.97 126.12,187.19 126.51,187.43 126.91,187.69 127.31,187.98 127.7,188.27 128.1,188.58 128.5,188.9 128.89,189.23 129.29,189.56 129.69,189.89 130.08,190.21 130.48,190.52 130.88,190.82 131.27,191.1 131.67,191.36 132.07,191.59 132.46,191.78 132.86,191.95 133.26,192.08 133.65,192.18 134.05,192.24 134.45,192.27 134.84,192.25 135.24,192.2 135.64,192.12 136.03,192.01 136.43,191.88 136.83,191.71 137.22,191.53 137.62,191.32 138.02,191.11 138.41,190.88 138.81,190.65 139.21,190.41 139.6,190.18 140,189.95 140.4,189.73 140.79,189.52 141.19,189.33 141.59,189.15 141.98,189 142.38,188.86 142.78,188.74 143.17,188.65 143.57,188.58 143.97,188.52 144.36,188.49 144.76,188.48 145.16,188.48 145.55,188.5 145.95,188.54 146.35,188.58 146.74,188.62 147.14,188.67 147.54,188.72 147.93,188.77 148.33,188.8 148.73,188.82 149.12,188.83 149.52,188.82 149.92,188.78 150.31,188.72 150.71,188.62 151.11,188.5 151.5,188.35 151.9,188.17 152.3,187.96 152.69,187.72 153.09,187.45 153.49,187.16 153.88,186.85 154.28,186.51 154.68,186.16 155.07,185.81 155.47,185.44 155.87,185.07 156.26,184.7 156.66,184.34 157.06,183.99 157.45,183.66 157.85,183.33 158.25,183.04 158.64,182.76 159.04,182.5 159.44,182.27 159.83,182.06 160.23,181.88 160.63,181.71 161.02,181.58 161.42,181.46 161.82,181.36 162.21,181.27 162.61,181.2 163.01,181.14 163.4,181.09 163.8,181.04 164.2,181 164.59,180.96 164.99,180.92 165.39,180.88 165.78,180.84 166.18,180.79 166.58,180.74 166.97,180.69 167.37,180.64 167.77,180.58 168.16,180.52 168.56,180.45 168.96,180.39 169.35,180.31 169.75,180.24 170.15,180.16 170.54,180.08 170.94,179.99 171.34,179.89 171.73,179.78 172.13,179.66 172.53,179.52 172.92,179.36 173.32,179.17 173.72,178.96 174.11,178.72 174.51,178.44 174.91,178.13 175.3,177.78 175.7,177.38 176.1,176.94 176.49,176.45 176.89,175.91 177.28,175.33 177.68,174.7 178.08,174.02 178.47,173.3 178.87,172.53 179.27,171.72 179.66,170.87 180.06,170 180.46,169.09 180.85,168.16 181.25,167.22 181.65,166.25 182.04,165.28 182.44,164.31 182.84,163.34 183.23,162.37 183.63,161.42 184.03,160.47 184.42,159.54 184.82,158.63 185.22,157.73 185.61,156.85 186.01,155.99 186.41,155.14 186.8,154.3 187.2,153.47 187.6,152.64 187.99,151.82 188.39,150.99 188.79,150.16 189.18,149.31 189.58,148.45 189.98,147.57 190.37,146.66 190.77,145.74 191.17,144.78 191.56,143.8 191.96,142.79 192.36,141.74 192.75,140.67 193.15,139.57 193.55,138.44 193.94,137.3 194.34,136.12 194.74,134.93 195.13,133.72 195.53,132.49 195.93,131.26 196.32,130.01 196.72,128.75 197.12,127.49 197.51,126.23 197.91,124.97 198.31,123.7 198.7,122.44 199.1,121.19 199.5,119.94 199.89,118.71 200.29,117.48 200.69,116.27 201.08,115.08 201.48,113.91 201.88,112.76 202.27,111.63 202.67,110.53 203.07,109.47 203.46,108.43 203.86,107.42 204.26,106.45 204.65,105.51 205.05,104.62 205.45,103.76 205.84,102.94 206.24,102.15 206.64,101.4 207.03,100.68 207.43,100 207.83,99.36 208.22,98.74 208.62,98.15 209.02,97.59 209.41,97.05 209.81,96.53 210.21,96.03 210.6,95.55 211,95.08 211.4,94.62 211.79,94.17 212.19,93.74 212.59,93.3 212.98,92.88 213.38,92.46 213.78,92.04 214.17,91.63 214.57,91.22 214.97,90.82 215.36,90.42 215.76,90.01 216.16,89.62 216.55,89.22 216.95,88.82 217.35,88.43 217.74,88.04 218.14,87.64 218.54,87.25 218.93,86.85 219.33,86.45 219.73,86.05 220.12,85.64 220.52,85.23 220.92,84.81 221.31,84.39 221.71,83.95 222.11,83.51 222.5,83.07 222.9,82.61 223.3,82.15 223.69,81.69 224.09,81.22 224.49,80.75 224.88,80.27 225.28,79.8 225.68,79.34 226.07,78.87 226.47,78.42 226.87,77.97 227.26,77.54 227.66,77.12 228.06,76.71 228.45,76.32 228.85,75.95 229.25,75.59 229.64,75.26 230.04,74.94 230.44,74.63 230.83,74.35 231.23,74.08 231.63,73.83 232.02,73.59 232.42,73.36 232.82,73.14 233.21,72.92 233.61,72.71 234.01,72.51 234.4,72.31 234.8,72.1 235.2,71.9 235.59,71.69 235.99,71.48 236.39,71.26 236.78,71.03 237.18,70.79 237.58,70.55 237.97,70.29 238.37,70.03 238.77,69.75 239.16,69.47 239.56,69.17 239.96,68.86 240.35,68.54 240.75,68.21 241.15,67.86 241.54,67.51 241.94,67.14 242.34,66.76 242.73,66.37 243.13,65.96 243.53,65.55 243.92,65.12 244.32,64.69 244.72,64.24 245.11,63.78 245.51,63.32 245.91,62.85 246.3,62.38 246.7,61.9 247.1,61.42 247.49,60.95 247.89,60.48 248.29,60.01 248.68,59.55 249.08,59.11 249.48,58.67 249.87,58.26 250.27,57.86 250.67,57.47 251.06,57.11 251.46,56.77 251.86,56.46 252.25,56.16 252.65,55.89 253.05,55.65 253.44,55.42 253.84,55.22 254.24,55.03 254.63,54.88 255.03,54.73 255.43,54.61 255.82,54.5 256.22,54.41 256.62,54.33 257.01,54.26 257.41,54.2 257.81,54.16 258.2,54.12 258.6,54.08 259,54.05 259.39,54.03 259.79,54.02 260.19,54 260.58,53.99 260.98,53.98 261.38,53.97 261.77,53.97" stroke-dasharray="none" stroke="rgb(31,120,180)" stroke-width="0.75" opacity="1" stroke-opacity="1" fill="none"/>
          </g>
          <g id="Fig:densplot_01.xyplot.lines.group.4.panel.1.1.1">
            <polyline id="Fig:densplot_01.xyplot.lines.group.4.panel.1.1.1.1" points="59.15,53.98 59.55,53.98 59.95,54 60.34,54.01 60.74,54.03 61.14,54.05 61.53,54.09 61.93,54.13 62.33,54.18 62.72,54.24 63.12,54.32 63.51,54.42 63.91,54.54 64.31,54.7 64.7,54.88 65.1,55.11 65.5,55.37 65.89,55.69 66.29,56.07 66.68,56.53 67.08,57.07 67.48,57.7 67.87,58.42 68.27,59.26 68.67,60.21 69.06,61.33 69.46,62.59 69.85,64.02 70.25,65.62 70.65,67.4 71.04,69.37 71.44,71.57 71.84,74.01 72.23,76.67 72.63,79.55 73.03,82.67 73.42,86.01 73.82,89.58 74.21,93.41 74.61,97.47 75.01,101.72 75.4,106.17 75.8,110.79 76.2,115.56 76.59,120.48 76.99,125.51 77.38,130.63 77.78,135.79 78.18,140.97 78.57,146.14 78.97,151.28 79.37,156.35 79.76,161.32 80.16,166.15 80.56,170.85 80.95,175.37 81.35,179.71 81.74,183.85 82.14,187.73 82.54,191.38 82.93,194.79 83.33,197.96 83.73,200.89 84.12,203.58 84.52,206.02 84.91,208.19 85.31,210.13 85.71,211.86 86.1,213.38 86.5,214.7 86.9,215.83 87.29,216.75 87.69,217.5 88.08,218.1 88.48,218.55 88.88,218.87 89.27,219.06 89.67,219.14 90.07,219.1 90.46,218.96 90.86,218.75 91.26,218.45 91.65,218.08 92.05,217.66 92.44,217.17 92.84,216.63 93.24,216.04 93.63,215.42 94.03,214.77 94.43,214.08 94.82,213.38 95.22,212.65 95.61,211.9 96.01,211.13 96.41,210.36 96.8,209.57 97.2,208.78 97.6,207.99 97.99,207.19 98.39,206.39 98.79,205.59 99.18,204.79 99.58,204 99.97,203.22 100.37,202.44 100.77,201.68 101.16,200.92 101.56,200.18 101.96,199.45 102.35,198.73 102.75,198.03 103.14,197.35 103.54,196.68 103.94,196.03 104.33,195.4 104.73,194.79 105.13,194.2 105.52,193.63 105.92,193.09 106.31,192.57 106.71,192.07 107.11,191.59 107.5,191.14 107.9,190.71 108.3,190.3 108.69,189.92 109.09,189.56 109.49,189.23 109.88,188.91 110.28,188.61 110.67,188.32 111.07,188.05 111.47,187.79 111.86,187.54 112.26,187.29 112.66,187.05 113.05,186.8 113.45,186.55 113.84,186.3 114.24,186.05 114.64,185.79 115.03,185.53 115.43,185.26 115.83,185 116.22,184.73 116.62,184.48 117.02,184.24 117.41,184 117.81,183.79 118.2,183.6 118.6,183.44 119,183.31 119.39,183.21 119.79,183.15 120.19,183.12 120.58,183.14 120.98,183.18 121.37,183.27 121.77,183.4 122.17,183.56 122.56,183.75 122.96,183.96 123.36,184.19 123.75,184.44 124.15,184.71 124.54,184.99 124.94,185.27 125.34,185.55 125.73,185.83 126.13,186.1 126.53,186.37 126.92,186.63 127.32,186.87 127.72,187.1 128.11,187.33 128.51,187.54 128.9,187.73 129.3,187.92 129.7,188.1 130.09,188.27 130.49,188.43 130.89,188.59 131.28,188.75 131.68,188.9 132.07,189.05 132.47,189.2 132.87,189.36 133.26,189.51 133.66,189.67 134.06,189.83 134.45,189.99 134.85,190.15 135.25,190.32 135.64,190.49 136.04,190.65 136.43,190.82 136.83,190.99 137.23,191.15 137.62,191.32 138.02,191.48 138.42,191.64 138.81,191.8 139.21,191.95 139.6,192.1 140,192.25 140.4,192.4 140.79,192.54 141.19,192.68 141.59,192.81 141.98,192.94 142.38,193.07 142.77,193.18 143.17,193.3 143.57,193.4 143.96,193.49 144.36,193.58 144.76,193.65 145.15,193.71 145.55,193.75 145.95,193.78 146.34,193.79 146.74,193.79 147.13,193.78 147.53,193.74 147.93,193.7 148.32,193.63 148.72,193.56 149.12,193.48 149.51,193.39 149.91,193.29 150.3,193.19 150.7,193.09 151.1,192.99 151.49,192.88 151.89,192.78 152.29,192.68 152.68,192.58 153.08,192.49 153.48,192.39 153.87,192.3 154.27,192.2 154.66,192.1 155.06,192 155.46,191.88 155.85,191.76 156.25,191.62 156.65,191.48 157.04,191.31 157.44,191.14 157.83,190.94 158.23,190.72 158.63,190.49 159.02,190.24 159.42,189.98 159.82,189.7 160.21,189.41 160.61,189.11 161,188.8 161.4,188.48 161.8,188.16 162.19,187.84 162.59,187.51 162.99,187.19 163.38,186.88 163.78,186.58 164.18,186.28 164.57,186 164.97,185.73 165.36,185.47 165.76,185.23 166.16,185 166.55,184.79 166.95,184.6 167.35,184.42 167.74,184.26 168.14,184.11 168.53,183.98 168.93,183.85 169.33,183.74 169.72,183.64 170.12,183.54 170.52,183.44 170.91,183.34 171.31,183.23 171.71,183.11 172.1,182.98 172.5,182.83 172.89,182.65 173.29,182.45 173.69,182.22 174.08,181.94 174.48,181.62 174.88,181.26 175.27,180.85 175.67,180.39 176.06,179.88 176.46,179.31 176.86,178.68 177.25,178 177.65,177.26 178.05,176.47 178.44,175.63 178.84,174.74 179.23,173.8 179.63,172.82 180.03,171.8 180.42,170.74 180.82,169.66 181.22,168.56 181.61,167.44 182.01,166.3 182.41,165.15 182.8,164 183.2,162.84 183.59,161.69 183.99,160.54 184.39,159.41 184.78,158.28 185.18,157.16 185.58,156.05 185.97,154.96 186.37,153.88 186.76,152.81 187.16,151.75 187.56,150.7 187.95,149.66 188.35,148.62 188.75,147.59 189.14,146.56 189.54,145.53 189.94,144.5 190.33,143.46 190.73,142.42 191.12,141.37 191.52,140.31 191.92,139.25 192.31,138.17 192.71,137.09 193.11,135.99 193.5,134.89 193.9,133.77 194.29,132.65 194.69,131.52 195.09,130.37 195.48,129.23 195.88,128.07 196.28,126.91 196.67,125.74 197.07,124.57 197.46,123.4 197.86,122.23 198.26,121.05 198.65,119.88 199.05,118.71 199.45,117.55 199.84,116.39 200.24,115.24 200.64,114.1 201.03,112.97 201.43,111.86 201.82,110.76 202.22,109.68 202.62,108.62 203.01,107.58 203.41,106.57 203.81,105.58 204.2,104.62 204.6,103.69 204.99,102.79 205.39,101.93 205.79,101.1 206.18,100.31 206.58,99.55 206.98,98.82 207.37,98.13 207.77,97.47 208.17,96.85 208.56,96.25 208.96,95.69 209.35,95.15 209.75,94.63 210.15,94.14 210.54,93.66 210.94,93.2 211.34,92.76 211.73,92.32 212.13,91.9 212.52,91.48 212.92,91.06 213.32,90.65 213.71,90.24 214.11,89.83 214.51,89.41 214.9,89 215.3,88.58 215.7,88.16 216.09,87.74 216.49,87.32 216.88,86.89 217.28,86.47 217.68,86.04 218.07,85.61 218.47,85.18 218.87,84.75 219.26,84.32 219.66,83.89 220.05,83.46 220.45,83.04 220.85,82.61 221.24,82.18 221.64,81.76 222.04,81.33 222.43,80.91 222.83,80.48 223.22,80.06 223.62,79.64 224.02,79.22 224.41,78.8 224.81,78.39 225.21,77.98 225.6,77.57 226,77.18 226.4,76.79 226.79,76.41 227.19,76.04 227.58,75.68 227.98,75.33 228.38,75 228.77,74.68 229.17,74.38 229.57,74.09 229.96,73.81 230.36,73.55 230.75,73.3 231.15,73.06 231.55,72.84 231.94,72.63 232.34,72.43 232.74,72.23 233.13,72.04 233.53,71.86 233.93,71.68 234.32,71.5 234.72,71.33 235.11,71.15 235.51,70.97 235.91,70.8 236.3,70.61 236.7,70.43 237.1,70.24 237.49,70.04 237.89,69.84 238.28,69.64 238.68,69.42 239.08,69.2 239.47,68.97 239.87,68.72 240.27,68.47 240.66,68.2 241.06,67.93 241.45,67.64 241.85,67.33 242.25,67 242.64,66.66 243.04,66.31 243.44,65.93 243.83,65.54 244.23,65.13 244.63,64.71 245.02,64.26 245.42,63.81 245.81,63.34 246.21,62.86 246.61,62.38 247,61.89 247.4,61.39 247.8,60.9 248.19,60.41 248.59,59.93 248.98,59.45 249.38,58.99 249.78,58.54 250.17,58.12 250.57,57.71 250.97,57.32 251.36,56.96 251.76,56.62 252.16,56.3 252.55,56.01 252.95,55.75 253.34,55.51 253.74,55.29 254.14,55.1 254.53,54.92 254.93,54.77 255.33,54.64 255.72,54.53 256.12,54.43 256.51,54.34 256.91,54.27 257.31,54.21 257.7,54.16 258.1,54.12 258.5,54.09 258.89,54.06 259.29,54.03 259.68,54.02 260.08,54 260.48,53.99 260.87,53.98 261.27,53.97 261.67,53.97" stroke-dasharray="none" stroke="rgb(31,120,180)" stroke-width="0.75" opacity="1" stroke-opacity="1" fill="none"/>
          </g>
          <g id="Fig:densplot_01.xyplot.lines.group.5.panel.1.1.1">
            <polyline id="Fig:densplot_01.xyplot.lines.group.5.panel.1.1.1.1" points="59.18,53.98 59.57,53.99 59.97,54 60.36,54.01 60.76,54.03 61.16,54.06 61.55,54.09 61.95,54.14 62.35,54.19 62.74,54.26 63.14,54.34 63.53,54.45 63.93,54.58 64.33,54.75 64.72,54.95 65.12,55.2 65.52,55.49 65.91,55.84 66.31,56.25 66.71,56.76 67.1,57.35 67.5,58.04 67.89,58.83 68.29,59.75 68.69,60.8 69.08,62.02 69.48,63.41 69.88,64.97 70.27,66.72 70.67,68.66 71.06,70.8 71.46,73.17 71.86,75.79 72.25,78.65 72.65,81.73 73.05,85.04 73.44,88.57 73.84,92.33 74.24,96.32 74.63,100.53 75.03,104.92 75.42,109.48 75.82,114.19 76.22,119.02 76.61,123.97 77.01,129 77.41,134.07 77.8,139.16 78.2,144.24 78.59,149.28 78.99,154.27 79.39,159.15 79.78,163.9 80.18,168.5 80.58,172.94 80.97,177.2 81.37,181.26 81.77,185.11 82.16,188.71 82.56,192.05 82.95,195.17 83.35,198.04 83.75,200.68 84.14,203.08 84.54,205.25 84.94,207.14 85.33,208.82 85.73,210.29 86.12,211.56 86.52,212.64 86.92,213.54 87.31,214.26 87.71,214.81 88.11,215.21 88.5,215.49 88.9,215.64 89.29,215.69 89.69,215.63 90.09,215.48 90.48,215.24 90.88,214.94 91.28,214.57 91.67,214.16 92.07,213.7 92.47,213.2 92.86,212.67 93.26,212.1 93.65,211.52 94.05,210.92 94.45,210.3 94.84,209.67 95.24,209.02 95.64,208.37 96.03,207.7 96.43,207.03 96.82,206.35 97.22,205.67 97.62,204.98 98.01,204.28 98.41,203.58 98.81,202.87 99.2,202.16 99.6,201.45 100,200.74 100.39,200.03 100.79,199.32 101.18,198.62 101.58,197.94 101.98,197.26 102.37,196.6 102.77,195.96 103.17,195.34 103.56,194.75 103.96,194.18 104.35,193.65 104.75,193.14 105.15,192.66 105.54,192.21 105.94,191.8 106.34,191.43 106.73,191.09 107.13,190.78 107.52,190.5 107.92,190.25 108.32,190.03 108.71,189.85 109.11,189.69 109.51,189.56 109.9,189.44 110.3,189.35 110.7,189.28 111.09,189.22 111.49,189.18 111.88,189.15 112.28,189.13 112.68,189.11 113.07,189.1 113.47,189.09 113.87,189.08 114.26,189.07 114.66,189.06 115.05,189.05 115.45,189.03 115.85,189 116.24,188.97 116.64,188.93 117.04,188.89 117.43,188.83 117.83,188.78 118.23,188.72 118.62,188.65 119.02,188.59 119.41,188.52 119.81,188.45 120.21,188.38 120.6,188.32 121,188.26 121.4,188.21 121.79,188.16 122.19,188.12 122.58,188.09 122.98,188.06 123.38,188.03 123.77,188.01 124.17,188 124.57,187.99 124.96,187.98 125.36,187.97 125.75,187.96 126.15,187.96 126.55,187.95 126.94,187.95 127.34,187.95 127.74,187.95 128.13,187.95 128.53,187.96 128.93,187.98 129.32,188.01 129.72,188.05 130.11,188.11 130.51,188.18 130.91,188.27 131.3,188.38 131.7,188.52 132.1,188.68 132.49,188.86 132.89,189.07 133.28,189.3 133.68,189.55 134.08,189.82 134.47,190.11 134.87,190.42 135.27,190.74 135.66,191.06 136.06,191.4 136.46,191.74 136.85,192.08 137.25,192.41 137.64,192.73 138.04,193.04 138.44,193.34 138.83,193.62 139.23,193.88 139.63,194.11 140.02,194.32 140.42,194.5 140.81,194.65 141.21,194.78 141.61,194.88 142,194.94 142.4,194.98 142.8,194.99 143.19,194.97 143.59,194.92 143.98,194.85 144.38,194.75 144.78,194.63 145.17,194.49 145.57,194.32 145.97,194.14 146.36,193.94 146.76,193.73 147.16,193.51 147.55,193.27 147.95,193.02 148.34,192.77 148.74,192.51 149.14,192.25 149.53,191.99 149.93,191.72 150.33,191.46 150.72,191.21 151.12,190.95 151.51,190.71 151.91,190.47 152.31,190.23 152.7,190.01 153.1,189.79 153.5,189.59 153.89,189.39 154.29,189.19 154.69,189.01 155.08,188.82 155.48,188.65 155.87,188.48 156.27,188.31 156.67,188.15 157.06,187.99 157.46,187.83 157.86,187.67 158.25,187.52 158.65,187.37 159.04,187.22 159.44,187.07 159.84,186.93 160.23,186.8 160.63,186.67 161.03,186.55 161.42,186.43 161.82,186.33 162.21,186.23 162.61,186.15 163.01,186.07 163.4,186 163.8,185.94 164.2,185.89 164.59,185.84 164.99,185.8 165.39,185.76 165.78,185.72 166.18,185.68 166.57,185.63 166.97,185.57 167.37,185.5 167.76,185.42 168.16,185.33 168.56,185.2 168.95,185.06 169.35,184.89 169.74,184.69 170.14,184.46 170.54,184.21 170.93,183.91 171.33,183.58 171.73,183.21 172.12,182.81 172.52,182.37 172.92,181.89 173.31,181.38 173.71,180.83 174.1,180.24 174.5,179.62 174.9,178.97 175.29,178.29 175.69,177.59 176.09,176.85 176.48,176.1 176.88,175.32 177.27,174.52 177.67,173.71 178.07,172.88 178.46,172.04 178.86,171.19 179.26,170.32 179.65,169.45 180.05,168.57 180.44,167.69 180.84,166.8 181.24,165.91 181.63,165.01 182.03,164.12 182.43,163.22 182.82,162.31 183.22,161.41 183.62,160.51 184.01,159.6 184.41,158.69 184.8,157.77 185.2,156.86 185.6,155.94 185.99,155.01 186.39,154.07 186.79,153.13 187.18,152.17 187.58,151.21 187.97,150.23 188.37,149.24 188.77,148.23 189.16,147.21 189.56,146.17 189.96,145.11 190.35,144.04 190.75,142.95 191.15,141.84 191.54,140.71 191.94,139.57 192.33,138.41 192.73,137.24 193.13,136.06 193.52,134.87 193.92,133.67 194.32,132.46 194.71,131.25 195.11,130.04 195.5,128.83 195.9,127.62 196.3,126.42 196.69,125.23 197.09,124.04 197.49,122.86 197.88,121.69 198.28,120.54 198.67,119.4 199.07,118.28 199.47,117.17 199.86,116.09 200.26,115.02 200.66,113.97 201.05,112.94 201.45,111.93 201.85,110.95 202.24,109.98 202.64,109.04 203.03,108.11 203.43,107.21 203.83,106.33 204.22,105.46 204.62,104.62 205.02,103.79 205.41,102.98 205.81,102.19 206.2,101.41 206.6,100.65 207,99.9 207.39,99.17 207.79,98.45 208.19,97.75 208.58,97.07 208.98,96.39 209.38,95.74 209.77,95.1 210.17,94.48 210.56,93.88 210.96,93.3 211.36,92.75 211.75,92.21 212.15,91.7 212.55,91.2 212.94,90.73 213.34,90.29 213.73,89.86 214.13,89.45 214.53,89.06 214.92,88.69 215.32,88.33 215.72,87.99 216.11,87.65 216.51,87.32 216.9,87 217.3,86.68 217.7,86.35 218.09,86.03 218.49,85.7 218.89,85.36 219.28,85.02 219.68,84.67 220.08,84.31 220.47,83.94 220.87,83.56 221.26,83.18 221.66,82.78 222.06,82.38 222.45,81.97 222.85,81.56 223.25,81.14 223.64,80.73 224.04,80.31 224.43,79.89 224.83,79.47 225.23,79.06 225.62,78.64 226.02,78.24 226.42,77.84 226.81,77.44 227.21,77.05 227.61,76.67 228,76.29 228.4,75.92 228.79,75.56 229.19,75.21 229.59,74.87 229.98,74.53 230.38,74.21 230.78,73.89 231.17,73.58 231.57,73.28 231.96,72.99 232.36,72.71 232.76,72.43 233.15,72.17 233.55,71.91 233.95,71.67 234.34,71.43 234.74,71.19 235.13,70.97 235.53,70.75 235.93,70.53 236.32,70.32 236.72,70.11 237.12,69.9 237.51,69.7 237.91,69.49 238.31,69.28 238.7,69.07 239.1,68.85 239.49,68.63 239.89,68.4 240.29,68.15 240.68,67.9 241.08,67.64 241.48,67.36 241.87,67.07 242.27,66.76 242.66,66.43 243.06,66.09 243.46,65.72 243.85,65.35 244.25,64.95 244.65,64.53 245.04,64.1 245.44,63.65 245.84,63.19 246.23,62.72 246.63,62.24 247.02,61.76 247.42,61.27 247.82,60.78 248.21,60.3 248.61,59.82 249.01,59.35 249.4,58.89 249.8,58.45 250.19,58.03 250.59,57.63 250.99,57.25 251.38,56.89 251.78,56.55 252.18,56.24 252.57,55.96 252.97,55.7 253.36,55.46 253.76,55.25 254.16,55.06 254.55,54.89 254.95,54.75 255.35,54.62 255.74,54.51 256.14,54.41 256.54,54.33 256.93,54.26 257.33,54.2 257.72,54.15 258.12,54.11 258.52,54.08 258.91,54.05 259.31,54.03 259.71,54.01 260.1,54 260.5,53.99 260.89,53.98 261.29,53.97 261.69,53.97" stroke-dasharray="none" stroke="rgb(31,120,180)" stroke-width="0.75" opacity="1" stroke-opacity="1" fill="none"/>
          </g>
          <g id="Fig:densplot_01.xyplot.lines.group.6.panel.1.1.1">
            <polyline id="Fig:densplot_01.xyplot.lines.group.6.panel.1.1.1.1" points="59.04,53.98 59.43,53.99 59.83,54.01 60.23,54.02 60.62,54.05 61.02,54.07 61.42,54.11 61.81,54.16 62.21,54.22 62.61,54.29 63,54.38 63.4,54.5 63.8,54.64 64.19,54.8 64.59,55.01 64.99,55.27 65.38,55.57 65.78,55.93 66.18,56.35 66.57,56.85 66.97,57.43 67.37,58.13 67.76,58.93 68.16,59.85 68.56,60.91 68.95,62.1 69.35,63.45 69.75,64.98 70.14,66.71 70.54,68.64 70.94,70.76 71.34,73.09 71.73,75.64 72.13,78.42 72.53,81.47 72.92,84.75 73.32,88.25 73.72,91.98 74.11,95.92 74.51,100.07 74.91,104.44 75.3,109.01 75.7,113.73 76.1,118.59 76.49,123.56 76.89,128.63 77.29,133.77 77.68,138.95 78.08,144.13 78.48,149.29 78.87,154.4 79.27,159.44 79.67,164.37 80.06,169.17 80.46,173.79 80.86,178.24 81.25,182.49 81.65,186.53 82.05,190.36 82.45,193.95 82.84,197.26 83.24,200.32 83.64,203.13 84.03,205.69 84.43,208.01 84.83,210.1 85.22,211.93 85.62,213.5 86.02,214.86 86.41,216.03 86.81,216.99 87.21,217.79 87.6,218.41 88,218.85 88.4,219.15 88.79,219.33 89.19,219.4 89.59,219.37 89.98,219.24 90.38,219.04 90.78,218.76 91.17,218.43 91.57,218.05 91.97,217.64 92.36,217.18 92.76,216.7 93.16,216.19 93.55,215.65 93.95,215.1 94.35,214.53 94.75,213.94 95.14,213.34 95.54,212.72 95.94,212.08 96.33,211.42 96.73,210.75 97.13,210.06 97.52,209.35 97.92,208.63 98.32,207.9 98.71,207.15 99.11,206.39 99.51,205.63 99.9,204.86 100.3,204.1 100.7,203.33 101.09,202.58 101.49,201.84 101.89,201.11 102.28,200.4 102.68,199.72 103.08,199.06 103.47,198.43 103.87,197.84 104.27,197.27 104.66,196.74 105.06,196.25 105.46,195.78 105.85,195.35 106.25,194.96 106.65,194.59 107.05,194.25 107.44,193.94 107.84,193.64 108.24,193.36 108.63,193.09 109.03,192.84 109.43,192.59 109.82,192.35 110.22,192.11 110.62,191.86 111.01,191.61 111.41,191.35 111.81,191.09 112.2,190.82 112.6,190.54 113,190.25 113.39,189.96 113.79,189.66 114.19,189.36 114.58,189.06 114.98,188.76 115.38,188.46 115.77,188.18 116.17,187.9 116.57,187.64 116.96,187.39 117.36,187.17 117.76,186.96 118.15,186.78 118.55,186.63 118.95,186.5 119.35,186.41 119.74,186.34 120.14,186.31 120.54,186.31 120.93,186.34 121.33,186.4 121.73,186.49 122.12,186.61 122.52,186.75 122.92,186.92 123.31,187.11 123.71,187.33 124.11,187.56 124.5,187.8 124.9,188.06 125.3,188.32 125.69,188.59 126.09,188.86 126.49,189.13 126.88,189.39 127.28,189.64 127.68,189.88 128.07,190.11 128.47,190.32 128.87,190.51 129.26,190.68 129.66,190.83 130.06,190.95 130.45,191.05 130.85,191.12 131.25,191.18 131.65,191.21 132.04,191.21 132.44,191.2 132.84,191.17 133.23,191.13 133.63,191.07 134.03,191.01 134.42,190.93 134.82,190.85 135.22,190.77 135.61,190.68 136.01,190.59 136.41,190.5 136.8,190.41 137.2,190.32 137.6,190.23 137.99,190.13 138.39,190.03 138.79,189.92 139.18,189.8 139.58,189.67 139.98,189.53 140.37,189.36 140.77,189.18 141.17,188.97 141.56,188.74 141.96,188.49 142.36,188.21 142.76,187.91 143.15,187.58 143.55,187.24 143.95,186.88 144.34,186.51 144.74,186.13 145.14,185.74 145.53,185.36 145.93,184.97 146.33,184.6 146.72,184.23 147.12,183.88 147.52,183.55 147.91,183.25 148.31,182.96 148.71,182.71 149.1,182.47 149.5,182.26 149.9,182.08 150.29,181.92 150.69,181.78 151.09,181.66 151.48,181.56 151.88,181.47 152.28,181.39 152.67,181.32 153.07,181.25 153.47,181.19 153.86,181.12 154.26,181.06 154.66,180.99 155.06,180.92 155.45,180.84 155.85,180.76 156.25,180.68 156.64,180.6 157.04,180.52 157.44,180.44 157.83,180.36 158.23,180.29 158.63,180.23 159.02,180.18 159.42,180.13 159.82,180.1 160.21,180.08 160.61,180.07 161.01,180.08 161.4,180.1 161.8,180.13 162.2,180.17 162.59,180.22 162.99,180.27 163.39,180.34 163.78,180.41 164.18,180.48 164.58,180.55 164.97,180.62 165.37,180.68 165.77,180.74 166.16,180.79 166.56,180.83 166.96,180.86 167.36,180.87 167.75,180.88 168.15,180.86 168.55,180.83 168.94,180.78 169.34,180.71 169.74,180.62 170.13,180.51 170.53,180.39 170.93,180.23 171.32,180.06 171.72,179.86 172.12,179.64 172.51,179.4 172.91,179.14 173.31,178.85 173.7,178.54 174.1,178.21 174.5,177.86 174.89,177.48 175.29,177.09 175.69,176.67 176.08,176.23 176.48,175.76 176.88,175.27 177.27,174.76 177.67,174.22 178.07,173.65 178.46,173.06 178.86,172.44 179.26,171.79 179.66,171.1 180.05,170.39 180.45,169.65 180.85,168.88 181.24,168.07 181.64,167.24 182.04,166.37 182.43,165.48 182.83,164.57 183.23,163.63 183.62,162.68 184.02,161.7 184.42,160.71 184.81,159.71 185.21,158.7 185.61,157.68 186,156.66 186.4,155.64 186.8,154.61 187.19,153.59 187.59,152.58 187.99,151.56 188.38,150.55 188.78,149.55 189.18,148.55 189.57,147.55 189.97,146.55 190.37,145.56 190.76,144.57 191.16,143.57 191.56,142.58 191.96,141.58 192.35,140.58 192.75,139.57 193.15,138.56 193.54,137.54 193.94,136.52 194.34,135.5 194.73,134.46 195.13,133.43 195.53,132.39 195.92,131.34 196.32,130.29 196.72,129.24 197.11,128.19 197.51,127.13 197.91,126.06 198.3,125 198.7,123.93 199.1,122.86 199.49,121.78 199.89,120.7 200.29,119.63 200.68,118.55 201.08,117.47 201.48,116.39 201.87,115.32 202.27,114.25 202.67,113.18 203.07,112.13 203.46,111.08 203.86,110.05 204.26,109.02 204.65,108.01 205.05,107.02 205.45,106.05 205.84,105.09 206.24,104.15 206.64,103.23 207.03,102.33 207.43,101.46 207.83,100.6 208.22,99.77 208.62,98.96 209.02,98.16 209.41,97.39 209.81,96.65 210.21,95.92 210.6,95.22 211,94.54 211.4,93.89 211.79,93.25 212.19,92.64 212.59,92.05 212.98,91.48 213.38,90.94 213.78,90.42 214.17,89.92 214.57,89.45 214.97,88.99 215.37,88.56 215.76,88.14 216.16,87.75 216.56,87.37 216.95,87 217.35,86.65 217.75,86.3 218.14,85.97 218.54,85.65 218.94,85.34 219.33,85.02 219.73,84.71 220.13,84.41 220.52,84.1 220.92,83.79 221.32,83.48 221.71,83.16 222.11,82.84 222.51,82.52 222.9,82.19 223.3,81.85 223.7,81.5 224.09,81.15 224.49,80.79 224.89,80.43 225.28,80.06 225.68,79.68 226.08,79.3 226.47,78.92 226.87,78.54 227.27,78.15 227.67,77.76 228.06,77.38 228.46,77 228.86,76.62 229.25,76.25 229.65,75.88 230.05,75.52 230.44,75.16 230.84,74.82 231.24,74.48 231.63,74.15 232.03,73.83 232.43,73.52 232.82,73.22 233.22,72.92 233.62,72.64 234.01,72.36 234.41,72.09 234.81,71.82 235.2,71.56 235.6,71.31 236,71.06 236.39,70.81 236.79,70.57 237.19,70.33 237.58,70.09 237.98,69.85 238.38,69.61 238.77,69.37 239.17,69.12 239.57,68.88 239.97,68.62 240.36,68.36 240.76,68.09 241.16,67.82 241.55,67.53 241.95,67.22 242.35,66.91 242.74,66.58 243.14,66.23 243.54,65.87 243.93,65.49 244.33,65.1 244.73,64.69 245.12,64.26 245.52,63.82 245.92,63.37 246.31,62.91 246.71,62.43 247.11,61.95 247.5,61.47 247.9,60.99 248.3,60.51 248.69,60.03 249.09,59.57 249.49,59.11 249.88,58.67 250.28,58.24 250.68,57.83 251.07,57.44 251.47,57.08 251.87,56.73 252.27,56.42 252.66,56.12 253.06,55.85 253.46,55.6 253.85,55.38 254.25,55.18 254.65,55 255.04,54.84 255.44,54.7 255.84,54.58 256.23,54.47 256.63,54.38 257.03,54.31 257.42,54.24 257.82,54.19 258.22,54.14 258.61,54.1 259.01,54.07 259.41,54.05 259.8,54.03 260.2,54.01 260.6,54 260.99,53.99 261.39,53.98 261.79,53.97" stroke-dasharray="none" stroke="rgb(31,120,180)" stroke-width="0.75" opacity="1" stroke-opacity="1" fill="none"/>
          </g>
          <g id="Fig:densplot_01.xyplot.lines.group.7.panel.1.1.1">
            <polyline id="Fig:densplot_01.xyplot.lines.group.7.panel.1.1.1.1" points="59.3,53.99 59.7,54.01 60.09,54.02 60.49,54.05 60.89,54.08 61.28,54.12 61.68,54.17 62.07,54.23 62.47,54.31 62.87,54.42 63.26,54.54 63.66,54.69 64.05,54.89 64.45,55.12 64.85,55.41 65.24,55.75 65.64,56.15 66.03,56.63 66.43,57.2 66.83,57.88 67.22,58.66 67.62,59.57 68.01,60.61 68.41,61.8 68.81,63.14 69.2,64.67 69.6,66.4 69.99,68.33 70.39,70.46 70.79,72.8 71.18,75.36 71.58,78.14 71.97,81.2 72.37,84.48 72.77,87.98 73.16,91.69 73.56,95.62 73.95,99.74 74.35,104.05 74.75,108.55 75.14,113.19 75.54,117.94 75.94,122.79 76.33,127.7 76.73,132.66 77.12,137.64 77.52,142.59 77.92,147.49 78.31,152.32 78.71,157.05 79.1,161.65 79.5,166.1 79.9,170.36 80.29,174.42 80.69,178.28 81.08,181.93 81.48,185.36 81.88,188.56 82.27,191.51 82.67,194.21 83.06,196.68 83.46,198.93 83.86,200.96 84.25,202.8 84.65,204.43 85.04,205.85 85.44,207.1 85.84,208.18 86.23,209.12 86.63,209.92 87.02,210.6 87.42,211.16 87.82,211.59 88.21,211.94 88.61,212.19 89,212.37 89.4,212.48 89.8,212.52 90.19,212.49 90.59,212.4 90.98,212.26 91.38,212.07 91.78,211.83 92.17,211.55 92.57,211.22 92.97,210.85 93.36,210.44 93.76,209.99 94.15,209.5 94.55,208.98 94.95,208.43 95.34,207.84 95.74,207.22 96.13,206.58 96.53,205.91 96.93,205.22 97.32,204.51 97.72,203.79 98.11,203.05 98.51,202.31 98.91,201.56 99.3,200.8 99.7,200.06 100.09,199.31 100.49,198.58 100.89,197.86 101.28,197.15 101.68,196.46 102.07,195.79 102.47,195.14 102.87,194.51 103.26,193.91 103.66,193.34 104.05,192.79 104.45,192.26 104.85,191.75 105.24,191.27 105.64,190.8 106.03,190.36 106.43,189.94 106.83,189.54 107.22,189.15 107.62,188.77 108.01,188.41 108.41,188.06 108.81,187.72 109.2,187.39 109.6,187.07 110,186.75 110.39,186.44 110.79,186.14 111.18,185.84 111.58,185.55 111.98,185.27 112.37,184.99 112.77,184.72 113.16,184.47 113.56,184.22 113.96,183.99 114.35,183.77 114.75,183.58 115.14,183.4 115.54,183.24 115.94,183.11 116.33,183 116.73,182.92 117.12,182.88 117.52,182.86 117.92,182.87 118.31,182.91 118.71,182.98 119.1,183.09 119.5,183.23 119.9,183.39 120.29,183.58 120.69,183.79 121.08,184.03 121.48,184.29 121.88,184.56 122.27,184.86 122.67,185.16 123.06,185.47 123.46,185.79 123.86,186.11 124.25,186.44 124.65,186.76 125.04,187.09 125.44,187.41 125.84,187.73 126.23,188.05 126.63,188.36 127.03,188.67 127.42,188.97 127.82,189.26 128.21,189.55 128.61,189.82 129.01,190.09 129.4,190.34 129.8,190.59 130.19,190.82 130.59,191.04 130.99,191.25 131.38,191.45 131.78,191.63 132.17,191.79 132.57,191.94 132.97,192.08 133.36,192.2 133.76,192.32 134.15,192.42 134.55,192.51 134.95,192.59 135.34,192.66 135.74,192.73 136.13,192.79 136.53,192.85 136.93,192.9 137.32,192.96 137.72,193.02 138.11,193.08 138.51,193.14 138.91,193.2 139.3,193.26 139.7,193.33 140.09,193.39 140.49,193.46 140.89,193.52 141.28,193.58 141.68,193.64 142.07,193.69 142.47,193.73 142.87,193.77 143.26,193.79 143.66,193.8 144.06,193.8 144.45,193.79 144.85,193.76 145.24,193.71 145.64,193.64 146.04,193.55 146.43,193.45 146.83,193.34 147.22,193.21 147.62,193.06 148.02,192.9 148.41,192.74 148.81,192.56 149.2,192.38 149.6,192.2 150,192.02 150.39,191.84 150.79,191.66 151.18,191.49 151.58,191.32 151.98,191.16 152.37,191.01 152.77,190.86 153.16,190.72 153.56,190.59 153.96,190.46 154.35,190.33 154.75,190.2 155.14,190.07 155.54,189.94 155.94,189.8 156.33,189.65 156.73,189.5 157.12,189.34 157.52,189.17 157.92,188.99 158.31,188.8 158.71,188.62 159.1,188.43 159.5,188.24 159.9,188.05 160.29,187.86 160.69,187.69 161.09,187.52 161.48,187.37 161.88,187.23 162.27,187.11 162.67,187 163.07,186.9 163.46,186.83 163.86,186.77 164.25,186.72 164.65,186.68 165.05,186.65 165.44,186.62 165.84,186.6 166.23,186.58 166.63,186.55 167.03,186.52 167.42,186.47 167.82,186.41 168.21,186.34 168.61,186.24 169.01,186.11 169.4,185.96 169.8,185.79 170.19,185.58 170.59,185.34 170.99,185.06 171.38,184.75 171.78,184.4 172.17,184.01 172.57,183.59 172.97,183.13 173.36,182.64 173.76,182.11 174.15,181.55 174.55,180.96 174.95,180.34 175.34,179.69 175.74,179.01 176.13,178.32 176.53,177.6 176.93,176.85 177.32,176.09 177.72,175.31 178.12,174.51 178.51,173.7 178.91,172.87 179.3,172.02 179.7,171.16 180.1,170.29 180.49,169.4 180.89,168.49 181.28,167.57 181.68,166.64 182.08,165.7 182.47,164.74 182.87,163.77 183.26,162.79 183.66,161.8 184.06,160.81 184.45,159.81 184.85,158.8 185.24,157.79 185.64,156.78 186.04,155.76 186.43,154.75 186.83,153.73 187.22,152.71 187.62,151.69 188.02,150.66 188.41,149.64 188.81,148.6 189.2,147.57 189.6,146.52 190,145.47 190.39,144.41 190.79,143.33 191.18,142.24 191.58,141.14 191.98,140.03 192.37,138.89 192.77,137.74 193.16,136.58 193.56,135.4 193.96,134.2 194.35,133 194.75,131.78 195.15,130.56 195.54,129.33 195.94,128.09 196.33,126.86 196.73,125.63 197.13,124.41 197.52,123.2 197.92,122 198.31,120.81 198.71,119.64 199.11,118.49 199.5,117.36 199.9,116.26 200.29,115.18 200.69,114.13 201.09,113.1 201.48,112.1 201.88,111.12 202.27,110.16 202.67,109.24 203.07,108.33 203.46,107.45 203.86,106.59 204.25,105.75 204.65,104.92 205.05,104.11 205.44,103.33 205.84,102.55 206.23,101.79 206.63,101.05 207.03,100.31 207.42,99.59 207.82,98.87 208.21,98.17 208.61,97.48 209.01,96.79 209.4,96.12 209.8,95.45 210.19,94.8 210.59,94.15 210.99,93.52 211.38,92.89 211.78,92.28 212.18,91.67 212.57,91.08 212.97,90.51 213.36,89.95 213.76,89.4 214.16,88.86 214.55,88.35 214.95,87.84 215.34,87.35 215.74,86.88 216.14,86.42 216.53,85.97 216.93,85.54 217.32,85.12 217.72,84.7 218.12,84.3 218.51,83.91 218.91,83.52 219.3,83.14 219.7,82.77 220.1,82.39 220.49,82.02 220.89,81.66 221.28,81.29 221.68,80.92 222.08,80.55 222.47,80.18 222.87,79.81 223.26,79.44 223.66,79.06 224.06,78.69 224.45,78.31 224.85,77.94 225.24,77.56 225.64,77.19 226.04,76.82 226.43,76.45 226.83,76.09 227.22,75.74 227.62,75.39 228.02,75.05 228.41,74.71 228.81,74.39 229.21,74.08 229.6,73.79 230,73.5 230.39,73.22 230.79,72.95 231.19,72.7 231.58,72.45 231.98,72.22 232.37,71.99 232.77,71.77 233.17,71.55 233.56,71.34 233.96,71.13 234.35,70.93 234.75,70.73 235.15,70.52 235.54,70.32 235.94,70.12 236.33,69.92 236.73,69.71 237.13,69.5 237.52,69.29 237.92,69.08 238.31,68.86 238.71,68.64 239.11,68.41 239.5,68.18 239.9,67.94 240.29,67.69 240.69,67.44 241.09,67.17 241.48,66.89 241.88,66.6 242.27,66.3 242.67,65.98 243.07,65.64 243.46,65.29 243.86,64.92 244.25,64.53 244.65,64.12 245.05,63.7 245.44,63.27 245.84,62.82 246.24,62.36 246.63,61.89 247.03,61.42 247.42,60.94 247.82,60.47 248.22,60 248.61,59.53 249.01,59.07 249.4,58.63 249.8,58.2 250.2,57.8 250.59,57.41 250.99,57.04 251.38,56.7 251.78,56.37 252.18,56.08 252.57,55.81 252.97,55.57 253.36,55.34 253.76,55.15 254.16,54.97 254.55,54.81 254.95,54.67 255.34,54.56 255.74,54.45 256.14,54.37 256.53,54.29 256.93,54.23 257.32,54.17 257.72,54.13 258.12,54.1 258.51,54.07 258.91,54.04 259.3,54.02 259.7,54.01 260.1,53.99 260.49,53.98 260.89,53.98 261.28,53.97 261.68,53.97" stroke-dasharray="none" stroke="rgb(31,120,180)" stroke-width="0.75" opacity="1" stroke-opacity="1" fill="none"/>
          </g>
          <g id="Fig:densplot_01.xyplot.lines.group.8.panel.1.1.1">
            <polyline id="Fig:densplot_01.xyplot.lines.group.8.panel.1.1.1.1" points="59,53.99 59.4,54 59.79,54.01 60.19,54.03 60.59,54.06 60.98,54.09 61.38,54.13 61.78,54.18 62.18,54.25 62.57,54.33 62.97,54.43 63.37,54.56 63.76,54.71 64.16,54.89 64.56,55.12 64.95,55.4 65.35,55.73 65.75,56.12 66.14,56.57 66.54,57.1 66.94,57.73 67.33,58.47 67.73,59.32 68.13,60.3 68.53,61.4 68.92,62.65 69.32,64.05 69.72,65.66 70.11,67.46 70.51,69.44 70.91,71.62 71.3,74.02 71.7,76.62 72.1,79.47 72.49,82.57 72.89,85.89 73.29,89.44 73.68,93.21 74.08,97.18 74.48,101.36 74.88,105.77 75.27,110.36 75.67,115.1 76.07,119.98 76.46,124.97 76.86,130.06 77.26,135.22 77.65,140.42 78.05,145.63 78.45,150.82 78.84,155.96 79.24,161.03 79.64,166 80.03,170.83 80.43,175.5 80.83,179.99 81.23,184.29 81.62,188.39 82.02,192.26 82.42,195.89 82.81,199.24 83.21,202.34 83.61,205.19 84,207.78 84.4,210.13 84.8,212.23 85.19,214.05 85.59,215.63 85.99,216.98 86.38,218.12 86.78,219.06 87.18,219.8 87.58,220.36 87.97,220.72 88.37,220.93 88.77,221 89.16,220.93 89.56,220.75 89.96,220.45 90.35,220.05 90.75,219.55 91.15,218.98 91.54,218.35 91.94,217.66 92.34,216.92 92.73,216.13 93.13,215.31 93.53,214.47 93.93,213.61 94.32,212.73 94.72,211.85 95.12,210.97 95.51,210.09 95.91,209.21 96.31,208.34 96.7,207.48 97.1,206.64 97.5,205.8 97.89,204.98 98.29,204.18 98.69,203.39 99.08,202.61 99.48,201.85 99.88,201.11 100.28,200.38 100.67,199.66 101.07,198.97 101.47,198.29 101.86,197.64 102.26,197 102.66,196.39 103.05,195.8 103.45,195.24 103.85,194.71 104.24,194.21 104.64,193.74 105.04,193.3 105.43,192.9 105.83,192.52 106.23,192.19 106.63,191.89 107.02,191.61 107.42,191.37 107.82,191.15 108.21,190.95 108.61,190.77 109.01,190.62 109.4,190.48 109.8,190.35 110.2,190.22 110.59,190.11 110.99,190 111.39,189.9 111.78,189.79 112.18,189.69 112.58,189.59 112.98,189.49 113.37,189.39 113.77,189.29 114.17,189.19 114.56,189.1 114.96,189.01 115.36,188.93 115.75,188.85 116.15,188.78 116.55,188.71 116.94,188.65 117.34,188.6 117.74,188.56 118.13,188.52 118.53,188.48 118.93,188.46 119.33,188.44 119.72,188.42 120.12,188.41 120.52,188.4 120.91,188.39 121.31,188.39 121.71,188.38 122.1,188.39 122.5,188.39 122.9,188.4 123.29,188.41 123.69,188.42 124.09,188.44 124.48,188.46 124.88,188.49 125.28,188.52 125.68,188.55 126.07,188.59 126.47,188.64 126.87,188.68 127.26,188.73 127.66,188.79 128.06,188.84 128.45,188.89 128.85,188.94 129.25,188.99 129.64,189.03 130.04,189.06 130.44,189.09 130.83,189.1 131.23,189.1 131.63,189.09 132.03,189.06 132.42,189.02 132.82,188.97 133.22,188.9 133.61,188.82 134.01,188.73 134.41,188.62 134.8,188.5 135.2,188.38 135.6,188.25 135.99,188.12 136.39,187.99 136.79,187.86 137.18,187.73 137.58,187.61 137.98,187.49 138.38,187.38 138.77,187.28 139.17,187.18 139.57,187.1 139.96,187.02 140.36,186.95 140.76,186.89 141.15,186.84 141.55,186.79 141.95,186.75 142.34,186.71 142.74,186.68 143.14,186.65 143.53,186.62 143.93,186.59 144.33,186.56 144.73,186.53 145.12,186.51 145.52,186.48 145.92,186.45 146.31,186.43 146.71,186.4 147.11,186.37 147.5,186.34 147.9,186.31 148.3,186.27 148.69,186.23 149.09,186.18 149.49,186.13 149.88,186.07 150.28,185.99 150.68,185.91 151.08,185.81 151.47,185.69 151.87,185.57 152.27,185.42 152.66,185.27 153.06,185.09 153.46,184.9 153.85,184.7 154.25,184.48 154.65,184.26 155.04,184.03 155.44,183.8 155.84,183.56 156.23,183.33 156.63,183.1 157.03,182.88 157.43,182.66 157.82,182.47 158.22,182.29 158.62,182.12 159.01,181.98 159.41,181.86 159.81,181.76 160.2,181.68 160.6,181.62 161,181.59 161.39,181.58 161.79,181.58 162.19,181.6 162.58,181.63 162.98,181.68 163.38,181.74 163.78,181.81 164.17,181.88 164.57,181.95 164.97,182.03 165.36,182.1 165.76,182.17 166.16,182.23 166.55,182.28 166.95,182.33 167.35,182.36 167.74,182.39 168.14,182.4 168.54,182.39 168.93,182.37 169.33,182.32 169.73,182.26 170.13,182.18 170.52,182.08 170.92,181.96 171.32,181.8 171.71,181.62 172.11,181.41 172.51,181.17 172.9,180.9 173.3,180.59 173.7,180.25 174.09,179.86 174.49,179.44 174.89,178.97 175.28,178.47 175.68,177.93 176.08,177.35 176.48,176.72 176.87,176.05 177.27,175.35 177.67,174.61 178.06,173.84 178.46,173.03 178.86,172.2 179.25,171.34 179.65,170.45 180.05,169.55 180.44,168.63 180.84,167.7 181.24,166.76 181.63,165.81 182.03,164.86 182.43,163.92 182.83,162.97 183.22,162.04 183.62,161.11 184.02,160.19 184.41,159.29 184.81,158.4 185.21,157.52 185.6,156.66 186,155.81 186.4,154.96 186.79,154.13 187.19,153.31 187.59,152.49 187.98,151.67 188.38,150.85 188.78,150.03 189.18,149.19 189.57,148.35 189.97,147.49 190.37,146.61 190.76,145.71 191.16,144.79 191.56,143.84 191.95,142.87 192.35,141.86 192.75,140.83 193.14,139.77 193.54,138.68 193.94,137.57 194.33,136.43 194.73,135.27 195.13,134.08 195.53,132.88 195.92,131.66 196.32,130.42 196.72,129.18 197.11,127.93 197.51,126.67 197.91,125.41 198.3,124.16 198.7,122.9 199.1,121.66 199.49,120.42 199.89,119.2 200.29,117.99 200.68,116.8 201.08,115.63 201.48,114.48 201.88,113.35 202.27,112.24 202.67,111.17 203.07,110.11 203.46,109.09 203.86,108.09 204.26,107.12 204.65,106.17 205.05,105.26 205.45,104.37 205.84,103.51 206.24,102.67 206.64,101.86 207.03,101.07 207.43,100.31 207.83,99.56 208.23,98.84 208.62,98.13 209.02,97.45 209.42,96.78 209.81,96.12 210.21,95.49 210.61,94.87 211,94.26 211.4,93.67 211.8,93.09 212.19,92.52 212.59,91.97 212.99,91.44 213.38,90.91 213.78,90.4 214.18,89.9 214.58,89.41 214.97,88.94 215.37,88.47 215.77,88.02 216.16,87.58 216.56,87.14 216.96,86.72 217.35,86.3 217.75,85.89 218.15,85.48 218.54,85.08 218.94,84.69 219.34,84.3 219.73,83.91 220.13,83.52 220.53,83.14 220.93,82.76 221.32,82.37 221.72,81.99 222.12,81.62 222.51,81.24 222.91,80.86 223.31,80.49 223.7,80.11 224.1,79.75 224.5,79.38 224.89,79.02 225.29,78.66 225.69,78.3 226.08,77.96 226.48,77.62 226.88,77.28 227.28,76.96 227.67,76.64 228.07,76.33 228.47,76.03 228.86,75.74 229.26,75.45 229.66,75.18 230.05,74.92 230.45,74.66 230.85,74.41 231.24,74.18 231.64,73.94 232.04,73.72 232.43,73.49 232.83,73.28 233.23,73.06 233.63,72.85 234.02,72.63 234.42,72.42 234.82,72.2 235.21,71.98 235.61,71.76 236.01,71.54 236.4,71.3 236.8,71.07 237.2,70.82 237.59,70.58 237.99,70.32 238.39,70.06 238.78,69.79 239.18,69.51 239.58,69.22 239.98,68.93 240.37,68.62 240.77,68.31 241.17,67.98 241.56,67.65 241.96,67.3 242.36,66.94 242.75,66.57 243.15,66.18 243.55,65.78 243.94,65.37 244.34,64.94 244.74,64.5 245.13,64.04 245.53,63.58 245.93,63.11 246.33,62.63 246.72,62.14 247.12,61.65 247.52,61.16 247.91,60.67 248.31,60.19 248.71,59.72 249.1,59.25 249.5,58.8 249.9,58.37 250.29,57.95 250.69,57.56 251.09,57.18 251.48,56.83 251.88,56.5 252.28,56.2 252.68,55.92 253.07,55.67 253.47,55.44 253.87,55.23 254.26,55.04 254.66,54.88 255.06,54.74 255.45,54.61 255.85,54.5 256.25,54.41 256.64,54.33 257.04,54.26 257.44,54.2 257.83,54.15 258.23,54.11 258.63,54.08 259.03,54.05 259.42,54.03 259.82,54.01 260.22,54 260.61,53.99 261.01,53.98 261.41,53.97 261.8,53.97" stroke-dasharray="none" stroke="rgb(31,120,180)" stroke-width="0.75" opacity="1" stroke-opacity="1" fill="none"/>
          </g>
          <g id="Fig:densplot_01.xyplot.lines.group.9.panel.1.1.1">
            <polyline id="Fig:densplot_01.xyplot.lines.group.9.panel.1.1.1.1" points="59.1,53.99 59.49,54 59.89,54.01 60.29,54.03 60.68,54.06 61.08,54.1 61.48,54.14 61.87,54.19 62.27,54.26 62.67,54.35 63.06,54.46 63.46,54.6 63.86,54.76 64.25,54.96 64.65,55.21 65.05,55.52 65.44,55.88 65.84,56.31 66.24,56.81 66.63,57.4 67.03,58.09 67.43,58.91 67.82,59.85 68.22,60.93 68.62,62.16 69.01,63.54 69.41,65.09 69.81,66.85 70.2,68.82 70.6,70.99 70.99,73.37 71.39,75.96 71.79,78.77 72.18,81.81 72.58,85.11 72.98,88.62 73.37,92.34 73.77,96.25 74.17,100.35 74.56,104.62 74.96,109.07 75.36,113.66 75.75,118.35 76.15,123.13 76.55,127.97 76.94,132.84 77.34,137.74 77.74,142.61 78.13,147.43 78.53,152.19 78.93,156.86 79.32,161.42 79.72,165.85 80.12,170.12 80.51,174.21 80.91,178.12 81.31,181.85 81.7,185.39 82.1,188.73 82.5,191.88 82.89,194.78 83.29,197.48 83.69,199.98 84.08,202.29 84.48,204.41 84.88,206.34 85.27,208.08 85.67,209.63 86.07,211.01 86.46,212.24 86.86,213.31 87.26,214.24 87.65,215.04 88.05,215.68 88.44,216.2 88.84,216.6 89.24,216.9 89.63,217.1 90.03,217.19 90.43,217.2 90.82,217.11 91.22,216.94 91.62,216.7 92.01,216.39 92.41,216.02 92.81,215.59 93.2,215.1 93.6,214.55 94,213.96 94.39,213.32 94.79,212.65 95.19,211.94 95.58,211.19 95.98,210.4 96.38,209.59 96.77,208.75 97.17,207.89 97.57,207 97.96,206.11 98.36,205.19 98.76,204.27 99.15,203.34 99.55,202.41 99.95,201.48 100.34,200.55 100.74,199.63 101.14,198.73 101.53,197.84 101.93,196.98 102.33,196.14 102.72,195.32 103.12,194.53 103.52,193.78 103.91,193.07 104.31,192.39 104.71,191.75 105.1,191.15 105.5,190.58 105.89,190.06 106.29,189.58 106.69,189.14 107.08,188.73 107.48,188.37 107.88,188.04 108.27,187.74 108.67,187.48 109.07,187.25 109.46,187.06 109.86,186.89 110.26,186.75 110.65,186.64 111.05,186.55 111.45,186.49 111.84,186.45 112.24,186.43 112.64,186.43 113.03,186.44 113.43,186.48 113.83,186.53 114.22,186.59 114.62,186.67 115.02,186.76 115.41,186.87 115.81,186.98 116.21,187.1 116.6,187.24 117,187.38 117.4,187.53 117.79,187.69 118.19,187.86 118.59,188.03 118.98,188.2 119.38,188.39 119.78,188.57 120.17,188.77 120.57,188.96 120.97,189.16 121.36,189.36 121.76,189.56 122.16,189.76 122.55,189.96 122.95,190.16 123.34,190.36 123.74,190.55 124.14,190.75 124.53,190.93 124.93,191.12 125.33,191.3 125.72,191.47 126.12,191.64 126.52,191.8 126.91,191.96 127.31,192.1 127.71,192.24 128.1,192.37 128.5,192.49 128.9,192.6 129.29,192.7 129.69,192.79 130.09,192.87 130.48,192.94 130.88,193 131.28,193.05 131.67,193.09 132.07,193.11 132.47,193.13 132.86,193.14 133.26,193.14 133.66,193.14 134.05,193.12 134.45,193.11 134.85,193.08 135.24,193.05 135.64,193.02 136.04,192.99 136.43,192.96 136.83,192.92 137.23,192.88 137.62,192.84 138.02,192.79 138.42,192.74 138.81,192.68 139.21,192.62 139.61,192.55 140,192.46 140.4,192.37 140.79,192.26 141.19,192.14 141.59,192.01 141.98,191.86 142.38,191.69 142.78,191.5 143.17,191.31 143.57,191.09 143.97,190.87 144.36,190.64 144.76,190.39 145.16,190.14 145.55,189.89 145.95,189.63 146.35,189.38 146.74,189.13 147.14,188.89 147.54,188.65 147.93,188.42 148.33,188.2 148.73,187.99 149.12,187.78 149.52,187.58 149.92,187.39 150.31,187.2 150.71,187.01 151.11,186.82 151.5,186.63 151.9,186.43 152.3,186.22 152.69,186.01 153.09,185.78 153.49,185.54 153.88,185.29 154.28,185.03 154.68,184.75 155.07,184.46 155.47,184.17 155.87,183.86 156.26,183.55 156.66,183.23 157.06,182.92 157.45,182.61 157.85,182.3 158.24,182 158.64,181.71 159.04,181.43 159.43,181.17 159.83,180.92 160.23,180.69 160.62,180.48 161.02,180.29 161.42,180.12 161.81,179.97 162.21,179.85 162.61,179.74 163,179.65 163.4,179.58 163.8,179.54 164.19,179.51 164.59,179.5 164.99,179.5 165.38,179.51 165.78,179.54 166.18,179.58 166.57,179.63 166.97,179.69 167.37,179.75 167.76,179.81 168.16,179.87 168.56,179.93 168.95,179.97 169.35,180 169.75,180.01 170.14,180.01 170.54,179.98 170.94,179.92 171.33,179.82 171.73,179.68 172.13,179.51 172.52,179.29 172.92,179.03 173.32,178.72 173.71,178.36 174.11,177.94 174.51,177.49 174.9,176.98 175.3,176.43 175.69,175.84 176.09,175.21 176.49,174.54 176.88,173.83 177.28,173.1 177.68,172.35 178.07,171.57 178.47,170.78 178.87,169.97 179.26,169.15 179.66,168.33 180.06,167.5 180.45,166.67 180.85,165.84 181.25,165.01 181.64,164.18 182.04,163.35 182.44,162.52 182.83,161.69 183.23,160.86 183.63,160.03 184.02,159.19 184.42,158.35 184.82,157.51 185.21,156.66 185.61,155.8 186.01,154.93 186.4,154.06 186.8,153.17 187.2,152.27 187.59,151.36 187.99,150.44 188.39,149.51 188.78,148.57 189.18,147.61 189.58,146.64 189.97,145.65 190.37,144.65 190.77,143.64 191.16,142.61 191.56,141.57 191.96,140.52 192.35,139.45 192.75,138.36 193.14,137.27 193.54,136.16 193.94,135.05 194.33,133.92 194.73,132.78 195.13,131.64 195.52,130.5 195.92,129.35 196.32,128.2 196.71,127.05 197.11,125.91 197.51,124.77 197.9,123.64 198.3,122.53 198.7,121.42 199.09,120.33 199.49,119.25 199.89,118.19 200.28,117.15 200.68,116.13 201.08,115.12 201.47,114.14 201.87,113.17 202.27,112.23 202.66,111.31 203.06,110.4 203.46,109.52 203.85,108.65 204.25,107.8 204.65,106.97 205.04,106.15 205.44,105.35 205.84,104.57 206.23,103.79 206.63,103.04 207.03,102.29 207.42,101.56 207.82,100.84 208.22,100.13 208.61,99.43 209.01,98.74 209.41,98.06 209.8,97.4 210.2,96.74 210.59,96.09 210.99,95.46 211.39,94.83 211.78,94.21 212.18,93.61 212.58,93.02 212.97,92.44 213.37,91.88 213.77,91.33 214.16,90.8 214.56,90.28 214.96,89.79 215.35,89.31 215.75,88.86 216.15,88.42 216.54,88 216.94,87.6 217.34,87.22 217.73,86.86 218.13,86.51 218.53,86.18 218.92,85.85 219.32,85.54 219.72,85.23 220.11,84.93 220.51,84.63 220.91,84.33 221.3,84.02 221.7,83.71 222.1,83.39 222.49,83.05 222.89,82.71 223.29,82.35 223.68,81.98 224.08,81.6 224.48,81.21 224.87,80.8 225.27,80.39 225.67,79.96 226.06,79.53 226.46,79.1 226.86,78.66 227.25,78.23 227.65,77.8 228.04,77.37 228.44,76.96 228.84,76.55 229.23,76.16 229.63,75.78 230.03,75.41 230.42,75.06 230.82,74.73 231.22,74.41 231.61,74.1 232.01,73.81 232.41,73.54 232.8,73.27 233.2,73.02 233.6,72.77 233.99,72.54 234.39,72.31 234.79,72.08 235.18,71.86 235.58,71.65 235.98,71.43 236.37,71.22 236.77,71 237.17,70.78 237.56,70.57 237.96,70.35 238.36,70.12 238.75,69.89 239.15,69.65 239.55,69.41 239.94,69.16 240.34,68.9 240.74,68.63 241.13,68.35 241.53,68.05 241.93,67.74 242.32,67.42 242.72,67.08 243.12,66.72 243.51,66.34 243.91,65.95 244.31,65.53 244.7,65.1 245.1,64.65 245.5,64.18 245.89,63.7 246.29,63.21 246.68,62.71 247.08,62.2 247.48,61.69 247.87,61.17 248.27,60.66 248.67,60.16 249.06,59.66 249.46,59.18 249.86,58.72 250.25,58.27 250.65,57.84 251.05,57.43 251.44,57.05 251.84,56.7 252.24,56.37 252.63,56.07 253.03,55.8 253.43,55.55 253.82,55.32 254.22,55.12 254.62,54.95 255.01,54.79 255.41,54.66 255.81,54.54 256.2,54.44 256.6,54.35 257,54.28 257.39,54.22 257.79,54.17 258.19,54.12 258.58,54.09 258.98,54.06 259.38,54.04 259.77,54.02 260.17,54 260.57,53.99 260.96,53.98 261.36,53.97 261.76,53.97" stroke-dasharray="none" stroke="rgb(31,120,180)" stroke-width="0.75" opacity="1" stroke-opacity="1" fill="none"/>
          </g>
          <g id="Fig:densplot_01.xyplot.lines.group.10.panel.1.1.1">
            <polyline id="Fig:densplot_01.xyplot.lines.group.10.panel.1.1.1.1" points="59.09,53.99 59.48,54 59.88,54.01 60.28,54.03 60.67,54.06 61.07,54.09 61.46,54.14 61.86,54.19 62.26,54.27 62.65,54.35 63.05,54.46 63.45,54.6 63.84,54.76 64.24,54.96 64.64,55.21 65.03,55.51 65.43,55.86 65.82,56.28 66.22,56.77 66.62,57.36 67.01,58.04 67.41,58.84 67.81,59.75 68.2,60.8 68.6,61.98 69,63.31 69.39,64.83 69.79,66.54 70.19,68.43 70.58,70.51 70.98,72.79 71.37,75.27 71.77,77.97 72.17,80.92 72.56,84.07 72.96,87.43 73.36,90.99 73.75,94.73 74.15,98.67 74.55,102.79 74.94,107.08 75.34,111.49 75.74,116.02 76.13,120.65 76.53,125.34 76.92,130.09 77.32,134.86 77.72,139.63 78.11,144.37 78.51,149.06 78.91,153.68 79.3,158.21 79.7,162.61 80.1,166.87 80.49,170.97 80.89,174.92 81.28,178.7 81.68,182.29 82.08,185.7 82.47,188.87 82.87,191.85 83.27,194.62 83.66,197.2 84.06,199.58 84.46,201.76 84.85,203.74 85.25,205.5 85.65,207.09 86.04,208.5 86.44,209.74 86.83,210.82 87.23,211.74 87.63,212.48 88.02,213.08 88.42,213.54 88.82,213.87 89.21,214.07 89.61,214.17 90.01,214.15 90.4,214.02 90.8,213.79 91.19,213.49 91.59,213.12 91.99,212.68 92.38,212.19 92.78,211.64 93.18,211.05 93.57,210.44 93.97,209.8 94.37,209.14 94.76,208.48 95.16,207.81 95.56,207.14 95.95,206.48 96.35,205.83 96.74,205.19 97.14,204.56 97.54,203.94 97.93,203.35 98.33,202.77 98.73,202.2 99.12,201.65 99.52,201.11 99.92,200.58 100.31,200.06 100.71,199.54 101.11,199.04 101.5,198.53 101.9,198.02 102.29,197.51 102.69,197 103.09,196.49 103.48,195.97 103.88,195.44 104.28,194.92 104.67,194.38 105.07,193.85 105.47,193.31 105.86,192.78 106.26,192.25 106.65,191.74 107.05,191.23 107.45,190.74 107.84,190.26 108.24,189.81 108.64,189.39 109.03,188.99 109.43,188.63 109.83,188.3 110.22,188.01 110.62,187.75 111.02,187.54 111.41,187.36 111.81,187.22 112.2,187.11 112.6,187.04 113,187 113.39,186.98 113.79,186.99 114.19,187.03 114.58,187.08 114.98,187.14 115.38,187.21 115.77,187.3 116.17,187.38 116.57,187.47 116.96,187.56 117.36,187.65 117.75,187.73 118.15,187.81 118.55,187.88 118.94,187.95 119.34,188.01 119.74,188.08 120.13,188.13 120.53,188.19 120.93,188.25 121.32,188.3 121.72,188.37 122.11,188.43 122.51,188.51 122.91,188.59 123.3,188.68 123.7,188.79 124.1,188.9 124.49,189.04 124.89,189.18 125.29,189.34 125.68,189.52 126.08,189.71 126.48,189.91 126.87,190.12 127.27,190.35 127.66,190.58 128.06,190.82 128.46,191.07 128.85,191.31 129.25,191.56 129.65,191.8 130.04,192.03 130.44,192.25 130.84,192.47 131.23,192.67 131.63,192.85 132.03,193.01 132.42,193.15 132.82,193.28 133.21,193.37 133.61,193.45 134.01,193.5 134.4,193.53 134.8,193.53 135.2,193.5 135.59,193.45 135.99,193.38 136.39,193.29 136.78,193.18 137.18,193.04 137.57,192.89 137.97,192.73 138.37,192.56 138.76,192.37 139.16,192.18 139.56,191.99 139.95,191.8 140.35,191.6 140.75,191.42 141.14,191.23 141.54,191.06 141.94,190.9 142.33,190.74 142.73,190.6 143.12,190.47 143.52,190.35 143.92,190.25 144.31,190.15 144.71,190.06 145.11,189.98 145.5,189.91 145.9,189.85 146.3,189.78 146.69,189.73 147.09,189.67 147.49,189.61 147.88,189.56 148.28,189.5 148.67,189.44 149.07,189.37 149.47,189.3 149.86,189.23 150.26,189.15 150.66,189.07 151.05,188.98 151.45,188.89 151.85,188.79 152.24,188.69 152.64,188.58 153.03,188.46 153.43,188.34 153.83,188.22 154.22,188.09 154.62,187.96 155.02,187.83 155.41,187.69 155.81,187.55 156.21,187.41 156.6,187.27 157,187.13 157.4,186.99 157.79,186.85 158.19,186.71 158.58,186.57 158.98,186.44 159.38,186.3 159.77,186.16 160.17,186.03 160.57,185.9 160.96,185.77 161.36,185.63 161.76,185.5 162.15,185.37 162.55,185.23 162.94,185.1 163.34,184.96 163.74,184.82 164.13,184.68 164.53,184.54 164.93,184.4 165.32,184.25 165.72,184.1 166.12,183.96 166.51,183.81 166.91,183.66 167.31,183.5 167.7,183.35 168.1,183.2 168.49,183.04 168.89,182.88 169.29,182.71 169.68,182.54 170.08,182.36 170.48,182.18 170.87,181.98 171.27,181.77 171.67,181.55 172.06,181.3 172.46,181.04 172.86,180.76 173.25,180.46 173.65,180.12 174.04,179.76 174.44,179.36 174.84,178.93 175.23,178.47 175.63,177.97 176.03,177.44 176.42,176.86 176.82,176.25 177.22,175.6 177.61,174.92 178.01,174.2 178.4,173.45 178.8,172.67 179.2,171.86 179.59,171.01 179.99,170.15 180.39,169.25 180.78,168.34 181.18,167.41 181.58,166.46 181.97,165.49 182.37,164.51 182.77,163.51 183.16,162.51 183.56,161.5 183.95,160.49 184.35,159.47 184.75,158.46 185.14,157.44 185.54,156.43 185.94,155.42 186.33,154.42 186.73,153.42 187.13,152.43 187.52,151.44 187.92,150.46 188.32,149.48 188.71,148.51 189.11,147.54 189.5,146.57 189.9,145.6 190.3,144.62 190.69,143.64 191.09,142.65 191.49,141.65 191.88,140.64 192.28,139.62 192.68,138.58 193.07,137.52 193.47,136.45 193.86,135.37 194.26,134.27 194.66,133.15 195.05,132.01 195.45,130.86 195.85,129.7 196.24,128.53 196.64,127.35 197.04,126.16 197.43,124.97 197.83,123.78 198.23,122.59 198.62,121.4 199.02,120.22 199.41,119.04 199.81,117.88 200.21,116.73 200.6,115.6 201,114.49 201.4,113.39 201.79,112.32 202.19,111.27 202.59,110.24 202.98,109.25 203.38,108.27 203.78,107.33 204.17,106.41 204.57,105.52 204.96,104.65 205.36,103.82 205.76,103.01 206.15,102.22 206.55,101.45 206.95,100.7 207.34,99.98 207.74,99.27 208.14,98.59 208.53,97.92 208.93,97.26 209.32,96.62 209.72,96 210.12,95.39 210.51,94.79 210.91,94.21 211.31,93.65 211.7,93.1 212.1,92.57 212.5,92.06 212.89,91.57 213.29,91.09 213.69,90.64 214.08,90.2 214.48,89.78 214.87,89.38 215.27,89 215.67,88.64 216.06,88.29 216.46,87.95 216.86,87.62 217.25,87.3 217.65,86.99 218.05,86.67 218.44,86.36 218.84,86.04 219.24,85.72 219.63,85.39 220.03,85.05 220.42,84.7 220.82,84.33 221.22,83.95 221.61,83.55 222.01,83.14 222.41,82.71 222.8,82.27 223.2,81.81 223.6,81.34 223.99,80.86 224.39,80.37 224.78,79.88 225.18,79.39 225.58,78.89 225.97,78.4 226.37,77.91 226.77,77.43 227.16,76.97 227.56,76.51 227.96,76.07 228.35,75.65 228.75,75.24 229.15,74.86 229.54,74.49 229.94,74.15 230.33,73.82 230.73,73.52 231.13,73.24 231.52,72.97 231.92,72.73 232.32,72.5 232.71,72.29 233.11,72.09 233.51,71.9 233.9,71.72 234.3,71.56 234.69,71.39 235.09,71.24 235.49,71.08 235.88,70.93 236.28,70.78 236.68,70.62 237.07,70.46 237.47,70.3 237.87,70.13 238.26,69.95 238.66,69.77 239.06,69.57 239.45,69.36 239.85,69.14 240.24,68.9 240.64,68.65 241.04,68.39 241.43,68.1 241.83,67.8 242.23,67.48 242.62,67.14 243.02,66.78 243.42,66.4 243.81,66 244.21,65.58 244.61,65.14 245,64.68 245.4,64.21 245.79,63.72 246.19,63.23 246.59,62.72 246.98,62.2 247.38,61.69 247.78,61.17 248.17,60.66 248.57,60.15 248.97,59.66 249.36,59.18 249.76,58.71 250.15,58.27 250.55,57.84 250.95,57.44 251.34,57.05 251.74,56.7 252.14,56.37 252.53,56.07 252.93,55.8 253.33,55.55 253.72,55.33 254.12,55.13 254.52,54.95 254.91,54.79 255.31,54.66 255.7,54.54 256.1,54.44 256.5,54.35 256.89,54.28 257.29,54.22 257.69,54.17 258.08,54.12 258.48,54.09 258.88,54.06 259.27,54.04 259.67,54.02 260.07,54 260.46,53.99 260.86,53.98 261.25,53.97 261.65,53.97" stroke-dasharray="none" stroke="rgb(31,120,180)" stroke-width="0.75" opacity="1" stroke-opacity="1" fill="none"/>
          </g>
          <g id="Fig:densplot_01.xyplot.lines.group.11.panel.1.1.1">
            <polyline id="Fig:densplot_01.xyplot.lines.group.11.panel.1.1.1.1" points="59.12,53.98 59.52,53.99 59.91,54.01 60.31,54.03 60.7,54.05 61.1,54.08 61.5,54.12 61.89,54.17 62.29,54.24 62.69,54.32 63.08,54.42 63.48,54.54 63.88,54.7 64.27,54.88 64.67,55.11 65.07,55.39 65.46,55.73 65.86,56.12 66.25,56.59 66.65,57.14 67.05,57.79 67.44,58.55 67.84,59.43 68.24,60.44 68.63,61.59 69.03,62.89 69.43,64.35 69.82,66.02 70.22,67.88 70.62,69.95 71.01,72.21 71.41,74.69 71.8,77.39 72.2,80.33 72.6,83.52 72.99,86.94 73.39,90.57 73.79,94.42 74.18,98.47 74.58,102.72 74.98,107.16 75.37,111.78 75.77,116.53 76.16,121.4 76.56,126.36 76.96,131.4 77.35,136.48 77.75,141.58 78.15,146.66 78.54,151.7 78.94,156.68 79.34,161.57 79.73,166.34 80.13,170.96 80.53,175.41 80.92,179.67 81.32,183.74 81.71,187.61 82.11,191.26 82.51,194.68 82.9,197.82 83.3,200.73 83.7,203.41 84.09,205.85 84.49,208.06 84.89,210.05 85.28,211.79 85.68,213.3 86.08,214.62 86.47,215.74 86.87,216.68 87.26,217.45 87.66,218.07 88.06,218.5 88.45,218.79 88.85,218.96 89.25,219.01 89.64,218.96 90.04,218.81 90.44,218.56 90.83,218.22 91.23,217.82 91.63,217.35 92.02,216.82 92.42,216.24 92.81,215.62 93.21,214.94 93.61,214.24 94,213.5 94.4,212.75 94.8,211.97 95.19,211.17 95.59,210.36 95.99,209.55 96.38,208.73 96.78,207.91 97.17,207.09 97.57,206.28 97.97,205.48 98.36,204.71 98.76,203.95 99.16,203.21 99.55,202.5 99.95,201.81 100.35,201.15 100.74,200.53 101.14,199.93 101.54,199.37 101.93,198.84 102.33,198.33 102.72,197.85 103.12,197.4 103.52,196.96 103.91,196.55 104.31,196.15 104.71,195.76 105.1,195.38 105.5,195.01 105.9,194.63 106.29,194.26 106.69,193.88 107.09,193.5 107.48,193.11 107.88,192.72 108.27,192.32 108.67,191.92 109.07,191.51 109.46,191.11 109.86,190.7 110.26,190.29 110.65,189.89 111.05,189.5 111.45,189.12 111.84,188.76 112.24,188.41 112.64,188.08 113.03,187.78 113.43,187.5 113.82,187.25 114.22,187.03 114.62,186.84 115.01,186.68 115.41,186.56 115.81,186.46 116.2,186.39 116.6,186.36 117,186.36 117.39,186.39 117.79,186.43 118.19,186.5 118.58,186.59 118.98,186.69 119.37,186.81 119.77,186.94 120.17,187.08 120.56,187.22 120.96,187.36 121.36,187.5 121.75,187.64 122.15,187.78 122.55,187.91 122.94,188.04 123.34,188.17 123.73,188.28 124.13,188.39 124.53,188.5 124.92,188.6 125.32,188.7 125.72,188.79 126.11,188.88 126.51,188.97 126.91,189.05 127.3,189.14 127.7,189.22 128.1,189.3 128.49,189.38 128.89,189.46 129.28,189.53 129.68,189.6 130.08,189.66 130.47,189.72 130.87,189.77 131.27,189.82 131.66,189.85 132.06,189.87 132.46,189.88 132.85,189.88 133.25,189.87 133.65,189.84 134.04,189.8 134.44,189.75 134.83,189.69 135.23,189.62 135.63,189.54 136.02,189.45 136.42,189.36 136.82,189.26 137.21,189.16 137.61,189.05 138.01,188.94 138.4,188.83 138.8,188.73 139.2,188.62 139.59,188.52 139.99,188.41 140.38,188.32 140.78,188.22 141.18,188.13 141.57,188.04 141.97,187.95 142.37,187.87 142.76,187.8 143.16,187.73 143.56,187.67 143.95,187.61 144.35,187.56 144.74,187.52 145.14,187.49 145.54,187.46 145.93,187.44 146.33,187.44 146.73,187.44 147.12,187.45 147.52,187.46 147.92,187.49 148.31,187.52 148.71,187.55 149.11,187.59 149.5,187.63 149.9,187.66 150.29,187.7 150.69,187.72 151.09,187.74 151.48,187.75 151.88,187.75 152.28,187.74 152.67,187.71 153.07,187.66 153.47,187.59 153.86,187.51 154.26,187.41 154.66,187.29 155.05,187.15 155.45,186.99 155.84,186.81 156.24,186.61 156.64,186.39 157.03,186.15 157.43,185.9 157.83,185.64 158.22,185.36 158.62,185.07 159.02,184.77 159.41,184.46 159.81,184.15 160.21,183.83 160.6,183.52 161,183.21 161.39,182.9 161.79,182.6 162.19,182.32 162.58,182.04 162.98,181.78 163.38,181.53 163.77,181.31 164.17,181.1 164.57,180.91 164.96,180.74 165.36,180.59 165.76,180.46 166.15,180.35 166.55,180.26 166.94,180.18 167.34,180.11 167.74,180.06 168.13,180.01 168.53,179.96 168.93,179.92 169.32,179.88 169.72,179.83 170.12,179.78 170.51,179.71 170.91,179.63 171.3,179.54 171.7,179.42 172.1,179.29 172.49,179.13 172.89,178.94 173.29,178.73 173.68,178.48 174.08,178.2 174.48,177.88 174.87,177.52 175.27,177.12 175.67,176.69 176.06,176.21 176.46,175.67 176.85,175.1 177.25,174.47 177.65,173.81 178.04,173.1 178.44,172.34 178.84,171.54 179.23,170.7 179.63,169.82 180.03,168.92 180.42,167.98 180.82,167.02 181.22,166.04 181.61,165.04 182.01,164.04 182.4,163.03 182.8,162.03 183.2,161.02 183.59,160.03 183.99,159.05 184.39,158.09 184.78,157.15 185.18,156.23 185.58,155.32 185.97,154.44 186.37,153.57 186.77,152.72 187.16,151.89 187.56,151.07 187.95,150.26 188.35,149.46 188.75,148.66 189.14,147.86 189.54,147.05 189.94,146.24 190.33,145.41 190.73,144.57 191.13,143.72 191.52,142.84 191.92,141.94 192.31,141.01 192.71,140.07 193.11,139.09 193.5,138.09 193.9,137.07 194.3,136.02 194.69,134.94 195.09,133.84 195.49,132.73 195.88,131.59 196.28,130.44 196.68,129.27 197.07,128.08 197.47,126.89 197.86,125.69 198.26,124.49 198.66,123.29 199.05,122.08 199.45,120.88 199.85,119.69 200.24,118.5 200.64,117.32 201.04,116.15 201.43,115 201.83,113.86 202.23,112.73 202.62,111.63 203.02,110.55 203.41,109.49 203.81,108.45 204.21,107.43 204.6,106.44 205,105.48 205.4,104.54 205.79,103.63 206.19,102.75 206.59,101.89 206.98,101.05 207.38,100.25 207.78,99.47 208.17,98.71 208.57,97.98 208.96,97.27 209.36,96.58 209.76,95.91 210.15,95.26 210.55,94.63 210.95,94.03 211.34,93.44 211.74,92.86 212.14,92.31 212.53,91.77 212.93,91.26 213.33,90.76 213.72,90.29 214.12,89.83 214.51,89.39 214.91,88.98 215.31,88.58 215.7,88.21 216.1,87.85 216.5,87.52 216.89,87.19 217.29,86.89 217.69,86.6 218.08,86.32 218.48,86.05 218.87,85.78 219.27,85.52 219.67,85.26 220.06,85 220.46,84.73 220.86,84.46 221.25,84.17 221.65,83.87 222.05,83.56 222.44,83.24 222.84,82.9 223.24,82.54 223.63,82.16 224.03,81.77 224.42,81.36 224.82,80.94 225.22,80.51 225.61,80.06 226.01,79.61 226.41,79.15 226.8,78.68 227.2,78.22 227.6,77.76 227.99,77.3 228.39,76.85 228.79,76.41 229.18,75.98 229.58,75.56 229.97,75.16 230.37,74.77 230.77,74.4 231.16,74.05 231.56,73.72 231.96,73.41 232.35,73.11 232.75,72.83 233.15,72.57 233.54,72.32 233.94,72.08 234.34,71.86 234.73,71.64 235.13,71.43 235.52,71.22 235.92,71.02 236.32,70.82 236.71,70.61 237.11,70.4 237.51,70.19 237.9,69.98 238.3,69.75 238.7,69.52 239.09,69.28 239.49,69.03 239.88,68.76 240.28,68.49 240.68,68.2 241.07,67.9 241.47,67.59 241.87,67.26 242.26,66.92 242.66,66.57 243.06,66.2 243.45,65.82 243.85,65.42 244.25,65 244.64,64.58 245.04,64.14 245.43,63.69 245.83,63.23 246.23,62.76 246.62,62.28 247.02,61.8 247.42,61.32 247.81,60.83 248.21,60.36 248.61,59.88 249,59.42 249.4,58.97 249.8,58.53 250.19,58.11 250.59,57.71 250.98,57.32 251.38,56.96 251.78,56.63 252.17,56.31 252.57,56.03 252.97,55.76 253.36,55.52 253.76,55.3 254.16,55.11 254.55,54.94 254.95,54.79 255.35,54.65 255.74,54.54 256.14,54.44 256.53,54.35 256.93,54.28 257.33,54.22 257.72,54.17 258.12,54.12 258.52,54.09 258.91,54.06 259.31,54.04 259.71,54.02 260.1,54 260.5,53.99 260.9,53.98 261.29,53.98 261.69,53.97" stroke-dasharray="none" stroke="rgb(31,120,180)" stroke-width="0.75" opacity="1" stroke-opacity="1" fill="none"/>
          </g>
          <g id="Fig:densplot_01.xyplot.lines.group.12.panel.1.1.1">
            <polyline id="Fig:densplot_01.xyplot.lines.group.12.panel.1.1.1.1" points="59.18,53.98 59.57,53.99 59.97,54.01 60.37,54.03 60.76,54.05 61.16,54.08 61.55,54.12 61.95,54.18 62.35,54.24 62.74,54.32 63.14,54.42 63.54,54.55 63.93,54.7 64.33,54.89 64.73,55.13 65.12,55.41 65.52,55.74 65.91,56.14 66.31,56.61 66.71,57.17 67.1,57.83 67.5,58.6 67.9,59.48 68.29,60.49 68.69,61.64 69.09,62.94 69.48,64.44 69.88,66.12 70.28,67.99 70.67,70.05 71.07,72.32 71.46,74.8 71.86,77.51 72.26,80.48 72.65,83.67 73.05,87.07 73.45,90.69 73.84,94.52 74.24,98.55 74.64,102.79 75.03,107.2 75.43,111.77 75.82,116.45 76.22,121.25 76.62,126.12 77.01,131.06 77.41,136.02 77.81,140.98 78.2,145.91 78.6,150.79 79,155.58 79.39,160.28 79.79,164.83 80.18,169.21 80.58,173.43 80.98,177.47 81.37,181.31 81.77,184.95 82.17,188.38 82.56,191.55 82.96,194.51 83.36,197.25 83.75,199.78 84.15,202.1 84.54,204.22 84.94,206.13 85.34,207.83 85.73,209.36 86.13,210.71 86.53,211.91 86.92,212.96 87.32,213.86 87.72,214.6 88.11,215.21 88.51,215.69 88.9,216.07 89.3,216.33 89.7,216.49 90.09,216.55 90.49,216.5 90.89,216.36 91.28,216.15 91.68,215.86 92.08,215.49 92.47,215.06 92.87,214.56 93.26,214.01 93.66,213.41 94.06,212.77 94.45,212.09 94.85,211.38 95.25,210.65 95.64,209.89 96.04,209.13 96.44,208.35 96.83,207.57 97.23,206.8 97.62,206.03 98.02,205.27 98.42,204.52 98.81,203.78 99.21,203.07 99.61,202.37 100,201.69 100.4,201.04 100.8,200.4 101.19,199.79 101.59,199.2 101.98,198.64 102.38,198.09 102.78,197.56 103.17,197.06 103.57,196.57 103.97,196.1 104.36,195.64 104.76,195.19 105.16,194.76 105.55,194.33 105.95,193.91 106.34,193.49 106.74,193.08 107.14,192.66 107.53,192.24 107.93,191.82 108.33,191.39 108.72,190.96 109.12,190.52 109.52,190.07 109.91,189.62 110.31,189.15 110.7,188.69 111.1,188.22 111.5,187.74 111.89,187.27 112.29,186.8 112.69,186.34 113.08,185.89 113.48,185.45 113.88,185.03 114.27,184.63 114.67,184.26 115.06,183.91 115.46,183.58 115.86,183.29 116.25,183.04 116.65,182.82 117.05,182.63 117.44,182.49 117.84,182.38 118.24,182.3 118.63,182.26 119.03,182.26 119.42,182.29 119.82,182.36 120.22,182.45 120.61,182.57 121.01,182.72 121.41,182.9 121.8,183.1 122.2,183.33 122.6,183.57 122.99,183.84 123.39,184.12 123.78,184.42 124.18,184.73 124.58,185.06 124.97,185.41 125.37,185.76 125.77,186.13 126.16,186.5 126.56,186.88 126.96,187.26 127.35,187.64 127.75,188.03 128.14,188.4 128.54,188.77 128.94,189.13 129.33,189.48 129.73,189.8 130.13,190.11 130.52,190.39 130.92,190.65 131.32,190.88 131.71,191.08 132.11,191.25 132.5,191.38 132.9,191.48 133.3,191.55 133.69,191.59 134.09,191.61 134.49,191.59 134.88,191.55 135.28,191.49 135.68,191.41 136.07,191.31 136.47,191.2 136.86,191.08 137.26,190.95 137.66,190.81 138.05,190.67 138.45,190.53 138.85,190.39 139.24,190.26 139.64,190.13 140.04,190 140.43,189.89 140.83,189.77 141.22,189.67 141.62,189.58 142.02,189.49 142.41,189.42 142.81,189.35 143.21,189.3 143.6,189.26 144,189.23 144.4,189.21 144.79,189.21 145.19,189.23 145.58,189.26 145.98,189.31 146.38,189.38 146.77,189.46 147.17,189.56 147.57,189.68 147.96,189.82 148.36,189.97 148.76,190.14 149.15,190.31 149.55,190.5 149.94,190.69 150.34,190.88 150.74,191.06 151.13,191.24 151.53,191.4 151.93,191.55 152.32,191.67 152.72,191.77 153.12,191.83 153.51,191.86 153.91,191.85 154.3,191.79 154.7,191.7 155.1,191.57 155.49,191.39 155.89,191.17 156.29,190.92 156.68,190.63 157.08,190.32 157.48,189.98 157.87,189.63 158.27,189.27 158.66,188.91 159.06,188.55 159.46,188.2 159.85,187.87 160.25,187.56 160.65,187.28 161.04,187.03 161.44,186.81 161.84,186.63 162.23,186.47 162.63,186.35 163.02,186.26 163.42,186.2 163.82,186.16 164.21,186.14 164.61,186.13 165.01,186.13 165.4,186.14 165.8,186.14 166.2,186.13 166.59,186.11 166.99,186.07 167.38,186.01 167.78,185.94 168.18,185.83 168.57,185.7 168.97,185.53 169.37,185.34 169.76,185.12 170.16,184.88 170.56,184.6 170.95,184.3 171.35,183.97 171.74,183.61 172.14,183.23 172.54,182.83 172.93,182.4 173.33,181.95 173.73,181.48 174.12,180.98 174.52,180.45 174.92,179.9 175.31,179.33 175.71,178.73 176.1,178.1 176.5,177.44 176.9,176.75 177.29,176.03 177.69,175.28 178.09,174.51 178.48,173.7 178.88,172.87 179.28,172.01 179.67,171.12 180.07,170.22 180.46,169.29 180.86,168.34 181.26,167.38 181.65,166.4 182.05,165.4 182.45,164.4 182.84,163.39 183.24,162.37 183.64,161.35 184.03,160.32 184.43,159.29 184.83,158.27 185.22,157.24 185.62,156.22 186.01,155.2 186.41,154.18 186.81,153.16 187.2,152.15 187.6,151.14 188,150.13 188.39,149.13 188.79,148.12 189.19,147.11 189.58,146.11 189.98,145.1 190.37,144.08 190.77,143.07 191.17,142.05 191.56,141.02 191.96,139.99 192.36,138.95 192.75,137.9 193.15,136.85 193.55,135.79 193.94,134.71 194.34,133.63 194.73,132.54 195.13,131.45 195.53,130.34 195.92,129.23 196.32,128.11 196.72,126.98 197.11,125.85 197.51,124.72 197.91,123.58 198.3,122.44 198.7,121.3 199.09,120.16 199.49,119.02 199.89,117.89 200.28,116.76 200.68,115.64 201.08,114.53 201.47,113.43 201.87,112.34 202.27,111.27 202.66,110.22 203.06,109.18 203.45,108.16 203.85,107.17 204.25,106.2 204.64,105.26 205.04,104.34 205.44,103.45 205.83,102.6 206.23,101.77 206.63,100.96 207.02,100.19 207.42,99.44 207.81,98.72 208.21,98.03 208.61,97.36 209,96.71 209.4,96.08 209.8,95.47 210.19,94.88 210.59,94.3 210.99,93.73 211.38,93.18 211.78,92.63 212.17,92.09 212.57,91.56 212.97,91.04 213.36,90.53 213.76,90.02 214.16,89.53 214.55,89.05 214.95,88.57 215.35,88.11 215.74,87.67 216.14,87.24 216.53,86.82 216.93,86.43 217.33,86.04 217.72,85.67 218.12,85.32 218.52,84.99 218.91,84.67 219.31,84.36 219.71,84.06 220.1,83.76 220.5,83.47 220.89,83.19 221.29,82.9 221.69,82.61 222.08,82.32 222.48,82.02 222.88,81.71 223.27,81.38 223.67,81.05 224.07,80.7 224.46,80.34 224.86,79.97 225.25,79.58 225.65,79.19 226.05,78.78 226.44,78.36 226.84,77.94 227.24,77.52 227.63,77.09 228.03,76.66 228.43,76.24 228.82,75.82 229.22,75.41 229.61,75.01 230.01,74.62 230.41,74.24 230.8,73.88 231.2,73.53 231.6,73.19 231.99,72.87 232.39,72.57 232.79,72.28 233.18,72 233.58,71.73 233.97,71.48 234.37,71.24 234.77,71.01 235.16,70.79 235.56,70.57 235.96,70.36 236.35,70.16 236.75,69.95 237.15,69.75 237.54,69.55 237.94,69.34 238.33,69.14 238.73,68.93 239.13,68.71 239.52,68.49 239.92,68.26 240.32,68.02 240.71,67.77 241.11,67.51 241.51,67.24 241.9,66.96 242.3,66.66 242.69,66.35 243.09,66.02 243.49,65.68 243.88,65.32 244.28,64.94 244.68,64.55 245.07,64.14 245.47,63.72 245.87,63.28 246.26,62.83 246.66,62.38 247.05,61.91 247.45,61.44 247.85,60.97 248.24,60.5 248.64,60.03 249.04,59.57 249.43,59.12 249.83,58.68 250.23,58.26 250.62,57.85 251.02,57.46 251.41,57.09 251.81,56.75 252.21,56.43 252.6,56.13 253,55.86 253.4,55.61 253.79,55.38 254.19,55.18 254.59,55 254.98,54.84 255.38,54.7 255.77,54.58 256.17,54.47 256.57,54.38 256.96,54.3 257.36,54.24 257.76,54.19 258.15,54.14 258.55,54.1 258.95,54.07 259.34,54.05 259.74,54.03 260.13,54.01 260.53,54 260.93,53.99 261.32,53.98 261.72,53.97" stroke-dasharray="none" stroke="rgb(31,120,180)" stroke-width="0.75" opacity="1" stroke-opacity="1" fill="none"/>
          </g>
        </g>
        <g id="Fig:densplot_01.panel.1.1.off.vp.2">
          <g id="Fig:densplot_01.border.panel.1.1.1">
            <rect id="Fig:densplot_01.border.panel.1.1.1.1" x="44.8" y="42.19" width="231.2" height="191.81" transform="" stroke="rgb(0,0,0)" stroke-dasharray="none" stroke-width="0.75" opacity="1" fill="none" stroke-opacity="1" fill-opacity="0"/>
          </g>
        </g>
        <g id="Fig:densplot_01..1"/>
      </g>
    </g>
  </g>
</svg>